<svg width="1000" height="872" viewBox="0 0 1000 872" fill="none" xmlns="http://www.w3.org/2000/svg">
  <path d="M336.4 507L336.2 508.4L336 514.9L336.2 515.7L336.6 516.4L337.6 517.6L338.1 518.6L338.6 520.2L338.7 521.3V524.4L338.5 525.7L337.8 526.6L336.8 527.2L336.2 527.3L331.9 527.4L331.3 527.7L330.1 528.6L329.2 529.5L327.8 531.4L326 534.6L325.2 536.4L324.9 537.6V538.4L325.1 539.1L325.7 539.7L327 540.4L327.9 540.6H328.7L330.6 540.3L331.1 540.5L331.5 541L331.6 542.6L331.8 543.3L333.4 544.4L333.9 544.9L334.1 545.9L334.3 548L334.6 548.7L335.1 549.3L336.1 549.8L337 550.1L344.2 550.5L344.9 550.6L345.5 551L349 555.2L349.4 555.9L350.9 559.4L351.1 560.7L351 561.6L350 562L349.1 562.1L344.8 561.6L343.5 561.8L342.4 562.3L341.5 563L340.9 564L340.3 565.1L339.6 566.8L338.7 569.4L338.1 570.5L337.7 570.8L336.3 571.6L336 572.1V573L336.2 574.2L337.1 576.2L341.6 583.8L342 584.9L342.3 586.9L342.5 587.7L343.3 589.8L343.2 590.5L342.9 591L340.2 593.1L339.6 594V594.8L340 595.8L343 600.3L343.9 600.8L344.7 600.5L345.6 599.6L346.6 598.3L347.4 597.5L348.4 597H351.9L352.5 596.6L352.9 595.3L353.2 593L353.5 591.7L353.9 591.2L354.4 590.9L357.4 590.3L358.3 590.5L359.5 591L361.4 592.5L364.1 593.7L364.6 594.3L364.9 595.4L365 597.8L365.2 598.4L365.6 599L366.2 599.5L367.4 600L369 600.1L372.3 598.9L372.9 598.8L373.6 599.2L374.2 600L376.8 605L379.1 608.7L379.6 609.3L380.6 609.9L391.2 613.2L394.8 615.3L396 615.8H396.5L397 615.6L397.8 614.8L399.1 612.9L399.4 612.5L399.9 612.3L400.4 612.5L403.7 614.8L404.4 615.8V616.8L404.2 617.5L403.6 618.6V619.3L403.8 620.2L407.2 625.7L408 626.5L408.8 627L412.4 627.7H417.9L418.5 627.9L419.1 628.3L420.1 629.9L421.3 631.9L421.6 633.6L421.5 635.3L421.2 637.1L420.9 637.6L419.9 638.2L407.5 638.8L406.9 639L406.3 639.9L405.5 642.5V643.3L405.7 644L407.8 645.9L408.3 647L408.2 647.8L407.8 648.3L405.8 650.3L406.4 651.6L407.8 653.6L412.3 658.3L416.5 661.6L417 662.3L417.6 663.9L417.9 664.9V665.8L417.8 666.4L417.3 667.7L417 668.2L415.2 670.3L415 670.8L414.9 671.3L416.5 672.5L429.9 680.8L430.5 682.1V683.2L430.7 684.4L431.4 686.2L432 686.9L432.7 687.2L438.2 687.4L439.4 687.9L440.2 688.7L440.6 689.5L441.7 692.7L442.3 693.6L443 694.2L445.8 695.5L456.2 702L457 702.7L457.6 703.6L458 704.6V705.9L457.6 707.2L456.5 709.1L456 710.3L455.9 711.1L456 711.9L456.2 713.4L456.3 714.8L456.1 719.3L456.3 721.4L456.6 729.9L456.7 731.1L457.2 732L459.2 733.9L460.6 735.6L463.2 737.8L464.1 739.1L464.2 739.8L464.1 740.7L463.5 742.4L462.6 743.9L456.4 752L456.2 752.7V753.6L456.4 755L457.1 757.2V759.1L456.5 762.2L455.7 765.1L455.2 766.2L454.3 767.6L454.1 768.6L454.5 769.3L455.3 770.2L458.5 773.3L459.1 774.2L459.6 775.1L459.8 776.2L459.9 777.7L459.8 782.7L459.5 784.5L458.6 787L458.1 788.2L457.6 789L457.1 789.3L455.8 789.4L454.8 792.1L455 805L455.1 806L451.4 805.9L449.5 806.9L446.6 810.1L444.3 811.3L442.1 811.4L435.9 810.4L431.8 811.7L429.5 812L428.1 810.6L428.7 807.8L430.2 804.2L430.5 801.3L427.4 800.5L424.9 800.8L422.8 800.6L421.3 799.1L420.5 795.8V791.3L420.8 787.7L420.1 785.1L417.3 783.4L413 782.5L403.8 782.1L393.3 785.8L386.4 784.7L366.6 775.9L343.6 775.2L342.2 774.4L340.9 772.6L340.6 771L340.9 769.4V768.2L339.7 767.6L315.4 766.5L312.3 765.2L305.5 759.1L302.4 758.4L295.1 758.6L272.8 754.4L264 756.2L229.4 755.6L211.8 750.8L207 750.9L202.3 752.5L192.9 757.4L163.6 762.2L161.4 762.1L155 760.6L129 762.6L126.8 763.4L124.5 765.8L120.7 771.5L119.1 774.8L116.6 785.8L113.7 789.9L101.8 798.1L86.2 812.2L82 812.9L79.1 810.1L76.1 806.5L72 804.8L69.4 804.6L62 802.4L59.6 802.3L49.4 805L48.1 805.7L47 806.8L45.8 809L45.7 810.4L46.3 811.7L49.1 819.8L49.4 821.4L48.9 824L48 824.5L47 823.7L46.6 821.5L45.2 820.6L43.5 820L42.2 817.4H43.7L41.4 813.4L40.5 811.1L40.1 808.7L40.6 804.1L40.5 802.5L39.3 801.2V799.9L40.3 799.8L40.9 799.4L42.2 797.7L41.7 797L41.1 795.8L40.7 794.8L41.2 794.3L42.1 793.8L41.9 792.8L41.2 791.6L40.8 790.7L41.4 786.8L41.8 785L42.2 783.8L44 781.8L46.2 780.4L48.2 778.4L49.4 774.5L47.4 771.9L45.8 768.8L47 767.4L47.4 763.7L48.7 763L48.5 762.1L47.9 761.9L48.6 760L48.7 754.5L49.4 751.4L51.3 746.7L52.7 744.5L54.4 743.3L53.2 740.4L51.7 733.9L50.8 731.8L50.7 729.9L50.3 727.9L49 727L48 726.6L47.4 725.5L46.9 724.1L46.2 722.8L44.2 721.6L39.3 721.8L37.2 721.1L34.3 715.3L34.7 714.7L35 712.7L34.6 711.4L32.9 713.1L32.2 712.3L31.2 711.4L30.8 710.6L29.3 712.4L28.3 712.2L27.4 711.2L26.1 710.6L24.6 711.2L24.3 710.9L25 709.4V708.3L22.9 708.1L16.4 705.6L15 704.2L13.4 704.9L5.9 702.8L3.5 701.3L4.3 698.3L4 696L2.9 694.4L1.3 693.1L1 693L5.8 683L7.8 680L12 674.9L24.7 655.3L33.9 647.6L43.1 642.1L60.6 637.2L74.5 627.7L78.6 622.5L80.1 615.1L79.8 610L81.7 609.6L95.6 610.7L96.7 610.3L97.7 609.7L100.9 607L103.2 605.5L104.2 605.4L104.9 605.5L105.3 605.9L106.1 607.4L106.7 608.4L107.5 608.9L108.8 609.4L113.2 610.2L114.3 610.1L118.7 608.5H119.5L120.1 608.6L120.3 608.9L120.5 610L120.7 610.6L121.2 611.2L121.7 611.3L122.2 611.1L123.8 610L126.4 609.2L127.4 609.1L128.2 609.3L128.7 609.6L133.4 612.9L134.2 613.8L134.8 614.2L137.1 615.4L139.8 615.9L142.3 615.7L144.7 615L145.9 614.2L146.1 613.8L146.4 612.9L146.5 612.3L146.4 610.9L146.1 609.6L145.7 608.5L144.8 607.1L144.7 606L145.5 604.5L146.3 602L146.9 601.1L149.2 599.4L149.4 598.9L149.5 597.6L149 596.5L147.9 595.3L147.6 594.9V594.4L147.8 593.9L150 591.4L150.3 590.9L151 590.2L152 589.4L154.5 588.1L155.5 587.3L156.2 586.6L156.4 586L156.3 584.7L155.9 584.3L155.4 584L152.5 583.6L151.6 583L151.4 582.5L151.5 582L152.3 581.1L157.4 578.2L158.8 577.7L159.8 577.6L166.3 580.9L171.9 582.2H175.3L176.4 581.9L177.1 581.5L177.7 580.5L178.4 578.5L178.9 577.7L179.8 576.7L180.6 576.4L181.4 576.3L184.1 576.9L185.2 577.4L186.1 578.2L186.8 579L187.7 580.5L188.1 581.6L188.5 583.4V584.7L188.1 586.6V587.2L188.6 587.9L193 589.7L194.3 589.9L195 589.7L195.5 589.3L196.6 587L197 586.4L197.7 585.7L198.3 585.6L198.9 585.7L199.3 586L199.5 586.4L199.4 587L198 592.1L197.8 593.4V594L198.4 594.9L198.5 596.1L198.3 596.8L198.1 598.1L198.5 598.7L199.2 599.2L200.5 599.6L201.3 599.5L201.9 599.1L202.8 598.3L207 596.7L208.2 596.5L209.4 596.6L211 597L211.9 597.1L212.7 597L213.2 596.7L213.5 596.3L215.2 594.9L217.5 594L218.8 593.8L219.7 594L219.9 594.5L220.1 595.8L220.7 596.8L221.6 597.4L223.3 598.1L224.9 598.5L225.7 598.4L226.4 598.2L227.2 597.5L227.5 597L227.7 595.7L227.5 595.1L227.2 594.6L225.5 593.9L225.1 593.5L224.8 593L224.5 591.8V591.2L224.8 590.7L226 589.6L226.3 589.2L226 588.2L224.4 586.6L223.8 585.6L223.6 584.3L223.9 583.5L224.5 582.6L225.9 581.6L226.8 581.5L227.6 581.7L228.5 582L230.6 582.2L232.3 581.8L234.9 580.6L235.8 579.7L236.2 578.9L236.3 577.6L236.9 576.5L238 575.3L238.7 574.3L239.9 572.2L241 570.6L242 569.5L247.4 566.3L248.1 565.4L248.4 564.9L251 557.4L254.3 551L255.2 548.4L255.4 547L255.2 545.7L255 545.2L254.2 543.6L253.1 542.3L252.1 541.7L250 541.3L249.5 540.9L249.4 540.4V539.7L250.1 538.5L252.3 536.5L254 535.2L254.9 534.5L255.4 533.7L255.5 533.1L255.4 531.8L254.7 530.9L252.7 529.6L252.1 528.7L252 528L252.7 525.2L253 524.4L253.6 523.4L254.3 523L257.4 522.7L258.1 522.3L258.6 521.9L259 520.6L259.6 515.4L259.8 514.2L260.3 512.7L263.3 507.5L264.4 505L265 504.1L266.2 502.6L267.1 502L267.8 501.7L269.2 501.9L270.6 502.3H271.7L275 501.5H276L277.1 501.9L278.5 503L279.2 503.1H280.2L281.9 502.7L283 502.6L283.8 502.7L284.3 503.1L285.4 504.4L286.4 504.9L301.2 506.2L303.4 505.6L305.7 505.4L311.3 506.8L320.2 507.3L322.8 508.1L325 509.2L325.6 509.4L328.3 509.2L336.4 507V507Z" fill="#006204" stroke="white" stroke-linecap="round" stroke-linejoin="round"/>
  <path d="M857.098 549.7L857.498 551.5L857.698 553.4L857.398 555.1L856.398 556.3L853.798 556.8L852.698 557.3L847.498 565.6L845.198 568.1L853.098 574.5L854.798 577.9L857.598 586.4L859.898 590L863.098 593.1L866.498 595.3L869.598 596.4L872.098 596.8L872.898 598.1L873.198 600.3L874.098 603.2L875.598 605.3L876.898 606.1L877.998 607.5L878.898 610.8V618.1L876.598 621.5L869.598 625.5L870.698 628.2L875.398 634.5L878.498 641.4L879.898 643.5L883.598 646.8L884.998 648.7L884.598 650.4L883.198 650.7L879.398 649.8L877.798 649.9L878.298 650.5L879.498 652.7L877.698 653.5L876.898 654.9L877.098 656.5L878.398 658.2L880.798 659.9L880.898 664.1L880.298 669.2V673.6L880.998 675.5L882.098 676.9L882.898 678.8L882.998 681.9L882.298 684.2L881.198 686.3L879.898 688L878.598 689.2L881.798 693.8L883.498 695.8L885.298 697.2L887.098 697.8L890.798 698.5L892.398 699.5L891.298 700.9L890.598 703L890.398 705.5L890.698 707.9L891.398 709.7L892.398 710.7L897.598 714.4L898.998 716.8L899.498 720.1L899.198 725.2L887.298 725.8L868.998 722.2L859.398 722.3L851.198 725.7L849.098 728.5L847.498 731.9L845.698 734.7L843.298 735.8L840.798 734.8L835.998 730.7L833.498 729.2L829.398 728.7L815.098 729.6L812.498 730.4L810.898 732.2L811.498 735.1L810.998 735.9L810.498 737.6L810.098 738.4L813.198 738.9L814.198 741.1L813.198 743.3L810.498 743.5L809.798 742.5L809.198 742.3L808.598 742.5L807.798 743.2L806.898 744.3L806.698 745.3L806.798 746.7L805.698 748.2L804.498 749.5L803.298 750.5L801.798 751.4L798.798 752.6V753.2L798.998 754.2L799.598 755V756.1L798.198 758.1L797.298 759.1L796.298 759.6L793.198 759.3L792.398 759.6L791.998 760.6L791.898 762.2L791.598 763.7L789.498 764.8L788.798 765.9L788.298 767L787.798 767.6L787.498 768.1L785.198 771.1L784.498 772.4L784.098 772.9V773.5L784.898 775.1L784.998 777.7L783.098 779.7L780.798 781.2L779.498 782.7L781.598 783.7L782.398 783.8V785.1L781.298 786.3L780.898 788.3L780.798 790.4L780.198 792L778.998 792.5L775.798 792.6L774.498 793L775.098 795.3L773.898 798.9L774.498 801.2L773.798 801.9L772.898 803.2L772.398 803.6L772.698 804.3L773.098 805.9L771.698 806.5L768.698 809.2V810.5L770.798 812.2L771.698 812.8V813.8L770.798 814.1L769.498 815.1V816.1L770.698 817.7L774.198 818.7L775.898 819.6L775.098 821.4L774.598 822.2L773.698 823L774.998 824L776.098 825.1L776.498 826.3L775.898 827.7L776.398 829.7L777.298 831L778.398 831.7L779.498 832.2V833.4L778.098 833.2L776.898 833.6L776.098 834.7L775.898 836.9L776.298 838.9L777.098 839.3H778.198L779.498 840.3L779.998 841.4L780.998 846.1L781.498 847L782.198 848L782.398 848.9L780.998 849.4L781.598 854.2L778.698 857.2L775.498 859.6L775.198 862L773.298 865.3L773.098 865.6L772.898 869.6L772.398 870.7L771.298 871L770.498 869.4L769.298 868.1L767.998 867.2L766.598 866.9L765.098 867L763.498 866.5L761.198 863L759.598 861.5L758.098 861.2H754.998L753.398 860.6L751.998 859.3L748.798 855.2L747.998 853.4L748.298 853.2L749.198 849.7L749.398 848.4V846.7L749.298 845.3L748.998 844.2L748.398 843.1L746.998 841.8L741.798 839.2L740.298 837.7L736.398 832.3L733.398 830.1L730.398 829.3L715.798 829.7L713.398 830.4L707.098 833.7L705.798 833.8L704.098 832.7L702.998 832.6L701.698 833.5L699.998 836.8L698.898 837.9L696.998 838.4L687.498 836.8L686.198 835L685.298 832.4L683.598 829.4L681.798 828.1L679.498 827.8L677.098 828.2L674.998 829.1L672.898 831L671.398 833.2L669.798 835.1L667.398 836.1L664.698 836.4L663.298 837.2L662.198 839.1L660.698 843.2L659.198 845.9L657.098 846L652.498 844.1L650.098 844.9L645.998 848.4L643.898 849.2L641.498 847.8L640.198 844.8L639.298 841.2L638.098 837.9L635.998 835.4L634.198 834.1L633.498 832.2L634.498 827.9L634.098 823.5L632.898 820.7L629.398 815.4L627.198 809.3L625.898 807.2L623.398 805.6L619.198 804.6L617.098 804.7L614.998 805.5L612.898 807.5L610.498 812.8L608.498 815L605.698 816L599.298 816.1L596.198 816.8L592.898 818.6L589.598 821.2L586.598 824.8L584.598 829.4L584.298 832.2L584.498 838.6L583.998 841.1L582.098 843.2L580.998 841.5L580.298 838.4L579.498 836.3L578.198 836.2L576.798 837.1L575.298 837.7L573.598 836.9L572.598 835.1L571.898 832.8L570.298 823.4L569.998 820L569.098 817.7L566.398 816.6L556.998 814.6H554.198L551.498 815.6L546.298 819.1L543.598 821.7L542.198 822.4L540.898 821.9L540.298 820.6L539.198 815.9L538.498 814.2L537.198 812.7L534.198 810.8L532.898 809.6L531.998 807.7L531.898 806.1L531.998 804.7L531.598 803L530.098 801.3L527.898 801.1L525.598 802.3L523.398 804.3L521.298 807.4L517.898 814L515.398 816.2L513.398 817H503.198L501.298 816.5L499.298 815.4L492.998 808.5L490.798 807.3L488.398 807.7L486.398 809.5L485.098 812.4L484.398 815.7L484.498 817.9L484.698 819.7L484.798 821.5L484.298 823.8L483.798 824.8L478.898 831.5L477.798 832.5L476.098 832.8L474.698 832.1L472.998 830.8L471.598 829.2L470.898 827.9L474.398 819.4L475.198 815.2L473.898 811.7L472.198 810.7L466.398 810.6L455.098 806L454.998 805L454.798 792.1L455.798 789.4L457.098 789.3L457.598 789L458.098 788.2L458.598 787L459.498 784.5L459.798 782.7L459.898 777.7L459.798 776.2L459.598 775.1L459.098 774.2L458.498 773.3L455.298 770.2L454.498 769.3L454.098 768.6L454.298 767.6L455.198 766.2L455.698 765.1L456.498 762.2L457.098 759.1V757.2L456.398 755L456.198 753.6V752.7L456.398 752L462.598 743.9L463.498 742.4L464.098 740.7L464.198 739.8L464.098 739.1L463.198 737.8L460.598 735.6L459.198 733.9L457.198 732L456.698 731.1L456.598 729.9L456.298 721.4L456.098 719.3L456.298 714.8L456.198 713.4L455.998 711.9L455.898 711.1L455.998 710.3L456.498 709.1L457.598 707.2L457.998 705.9V704.6L457.598 703.6L456.998 702.7L456.198 702L445.798 695.5L442.998 694.2L442.298 693.6L441.698 692.7L440.598 689.5L440.198 688.7L439.398 687.9L438.198 687.4L432.698 687.2L431.998 686.9L431.398 686.2L430.698 684.4L430.498 683.2V682.1L429.898 680.8L436.498 671.3L437.698 668.4L437.098 666.8L436.698 665.6L436.498 664.4L436.398 662.8L436.498 661.6L436.898 661L437.498 660.7L440.398 660.5L441.098 660.3L441.498 659.7L442.098 657.5L442.898 655.1L443.598 654.2L444.298 653.8L447.098 653.9L447.498 654.2L447.798 654.7L448.198 656.4L448.598 656.6L455.798 650.5L456.698 650.2L457.298 650.3L458.798 653.3L459.498 654.9L460.198 655.6L460.398 655.2L461.098 653.4L461.898 651.9L462.598 651.3L463.398 651.1L463.998 651.3L464.298 651.8L464.498 653.1L464.198 657.1V659L464.298 660.3L464.598 660.8L465.198 661.7L468.598 664.4L473.998 667.3L475.298 667.6L483.498 667.4L486.898 668.1L498.498 667L499.898 666.4L500.198 665.9L500.798 665.5L502.098 664.8L502.498 664.4L502.798 663.9L502.898 662.6L502.598 660L502.298 658.9L501.298 657L501.398 656.1L501.898 655.3L503.098 654.3L503.898 653.9L504.698 653.7L513.698 655.6L514.798 656.2L515.598 656.9L516.198 658.6L517.098 660.7L517.998 662.1L518.798 662.5L519.998 662.7L541.598 660.2L548.298 654.4L548.798 653.3V651.4L548.098 646.3L547.898 642.9L548.098 637.2L548.298 634.9L548.398 634.1L548.998 633.3L549.998 632.4L552.298 631.1L553.198 630.3L553.598 629.6L553.298 629.2L552.998 628.2L554.598 626.1L554.998 625.9L561.598 625.3L566.698 626.1L567.498 626L568.198 625.7L569.498 624.4L570.098 624L570.898 623.7L572.398 623.8L575.298 624.6H575.998L576.698 624.3L577.498 623.6L578.298 623.1L579.298 622.7L584.298 622.6L585.098 622.3L585.998 621.4L586.998 620.2L587.598 619.8L588.498 619.7L591.098 619.8L591.998 619.5L592.698 618.8L593.198 618.1L593.498 617.4L593.598 616.1L593.498 615.6L592.598 614.8L589.998 614L589.098 613.4L588.798 612.8L588.898 612L589.698 611.3L591.598 610.2L606.298 605.5L606.898 604.4L607.198 603.1L607.298 600.9L607.198 593.9L607.298 593.2L607.698 592.7L608.698 592.4L619.098 592.1L619.798 591.8L620.398 590.8L620.798 589.2L621.198 588.6L621.798 588.1L623.898 587.1L624.398 586.7L625.798 584.7L628.198 580.6L628.998 579.7L629.498 579.3L630.398 579.1L631.698 579L636.098 579.3L646.298 582.4L646.698 582.7V583.6L646.498 585V585.6L646.798 585.9L647.398 586L651.398 584.3L651.898 583.7L652.198 583L652.098 582.4L651.798 581.9L650.998 581.1L650.798 580.7L650.898 580.2L651.198 579.8L651.898 579.5L652.698 579.4L654.198 579.8L654.998 580.2L655.598 580.6L656.898 583.2L657.198 583.6L657.698 583.9H658.498L662.398 581.6L663.298 580.9L663.998 579.5L664.498 579.1L665.098 578.8L667.298 578.2L678.398 578.4L679.398 578.6L680.098 578.9L681.398 580L682.598 580.6H683.398L684.298 580.4L685.498 579.7L686.498 578.4L687.798 575.8L687.898 574.9L687.298 574L682.998 571.6L681.798 570.5L680.998 569.6L680.198 568.8L677.198 566.8L676.798 566.5V566L677.098 565.5L679.198 562.6L679.698 561.5V560.8L679.598 559.5L679.198 558.4L678.798 558.1L677.698 557.8L677.198 557.5L676.998 557L676.298 554.6L676.098 553.5L676.498 552.8L679.698 551.3L680.198 550.6L680.298 550L679.898 549.6L678.698 548.5V548.1L679.698 547.9L688.698 548.8L689.198 548.3L689.798 547.2L689.698 546.7L689.298 546.3L687.598 545.4L686.898 544.6L687.198 543.9L687.798 543.3L689.098 542.4L689.698 541.6L689.998 540.8L690.398 538L689.998 536.9L688.298 535.3L687.698 534.5L688.198 534.1H689.198L691.298 534.5H692.398L693.198 534.1L693.298 533.5V532.8L692.898 531.6L691.098 527.4L690.698 526.3L690.198 523.9L689.398 521.6L688.998 519.8L688.898 518.5L689.198 515.5L689.598 514.1L689.898 513.6L691.598 512.1L692.898 510L693.698 509.2L694.198 509L694.998 508.9L695.898 509.1L697.598 510.1L698.298 510.7L699.198 511.8L699.698 512.1L700.298 512.2L700.898 511.8L701.898 511L702.498 510.9L703.198 511.2L704.098 512.1L704.398 512.8L704.298 513.5L704.698 513.9L705.598 514.3L708.098 514.2L709.198 513.9L709.998 513.4L710.398 512.9L711.498 511.7L711.998 511.3L713.098 510.8L713.698 510.9L714.498 511.2L715.398 512.1L716.398 513.4L717.198 513.9L721.298 515.4L722.498 516.1L723.198 516.8L723.398 518.8L723.698 519.2L724.498 519.5L727.898 519.8L729.098 520.1L730.198 520.8L730.598 521.5L731.098 522.7L732.598 527.9L732.998 528.9L733.698 529.4L734.798 529.7H739.798L740.898 529.6L741.698 528L743.298 527.4L747.198 527.3L752.598 525L754.498 524.9L754.098 523.5L753.898 522.1L753.798 519.8L754.498 519.5L755.898 519.3L756.698 518.5L757.198 517.2L757.898 516.4L758.598 516.3L761.398 516.6L762.398 516.5L763.098 516.3L764.098 515.7L765.198 515.3L765.898 515.2L777.198 518.2L778.898 519.5L779.598 520.9L780.398 521.4L781.698 521.9L784.698 522.5H787.098L788.098 521.9L788.498 521.4L788.898 520.1L789.298 519.6L790.098 518.8L790.898 518.9L791.898 519.3L793.498 520.4L794.698 520.9L795.998 520.8L797.398 520.4L805.098 521.8L806.098 521.7L806.298 521.2L806.498 519.9L806.798 518.6L807.498 517.6L807.898 517.2L808.998 516.8L809.598 516.7L818.398 517.7L819.098 518.1L819.498 519.4L819.798 521.6L819.898 522.1L820.298 522.8L821.798 524.7L822.098 526.4L822.198 528.3L822.498 529.4L822.998 529.8L823.798 530.2L825.298 530.5L826.098 531L826.698 531.7L826.898 532.4L827.398 533.2L828.198 534L829.998 535.4L830.498 536.2L830.598 537L830.098 538.2V538.9L830.198 540.2L830.798 541.9L830.698 543.1L830.098 544.1L828.898 545.3L828.498 546.2L828.598 546.7L829.298 547.6L829.998 547.9L830.798 548L835.298 546.9H835.998L836.698 547.1L837.598 547.7L838.098 548.3L838.998 549.8L839.698 550.7L840.898 552L841.698 552.2L842.198 551.6L842.798 550.3L843.098 549.8L843.998 549H844.598L845.298 549.1L846.098 549.7L847.198 551.3L847.698 551.7L850.298 551.5L857.098 549.7V549.7Z" fill="#006204" stroke="white" stroke-linecap="round" stroke-linejoin="round"/>
  <path d="M838.097 313.8L841.197 314.8L842.897 318.4L845.397 327.6L846.697 329.8L847.997 331.2L849.097 332.8L849.897 335.7L850.597 346.2L851.697 351.3L853.297 354L869.597 367L872.297 369.2L874.797 370.4L880.297 371.8L888.997 376.7L892.297 377.4L895.197 377.5L896.297 378.1L897.497 379.5L898.297 381.5L898.997 384.1L899.897 386.2L901.197 386.7L903.797 384.9L904.397 384.7L905.297 385.4L905.397 386V386.8L907.797 396.2L907.297 397.6L907.097 398.9L906.997 400.2L906.897 401.6L905.697 405.5L903.997 415.7L902.197 420.2L898.097 426.9L897.197 431.3H901.597L910.597 434.4L932.597 428.6L934.897 429.1L941.097 433.6L954.197 437.3L957.897 440L961.197 444.5L962.697 445.5L967.897 445.2L969.997 445.6L972.097 446.8L973.997 449.4L974.797 450.7L974.997 452.1L974.797 453.4L973.997 454.7L966.297 458.7L965.497 459.4L965.397 460.8L965.697 463.9L966.797 468.8L968.697 472.4L971.197 475.1L973.997 477L979.297 479.5L981.697 481.3L983.397 484.5L984.097 485.7L984.897 486L985.697 485.6L986.597 484.6L988.397 484.3L990.197 484.5L991.797 485.4L991.497 486.9L990.897 488.7L991.397 490.6L992.597 491L995.797 489.9H997.097L998.997 493.9L997.397 506.7L998.797 512.2L996.697 513.8L995.097 513.6L993.497 512.8L991.697 512.4L984.397 514L984.797 514.6L985.697 516.2L986.097 516.9L983.297 518.5L979.997 519.2L976.697 518.8L973.997 517.4L971.397 518.2L970.597 520.3L971.497 522.2L973.897 522.7L972.897 526.1L971.397 529.4L968.097 535L966.197 537L964.497 537.9L960.697 539.2L957.297 542.3L954.697 546.1L951.797 548.9L946.397 548.7L945.797 549.4L945.697 550.3L945.397 551L945.497 552.3L945.297 553.1L944.797 553.6L943.497 553.3L939.797 553.8L937.097 555.9L936.097 556.5L932.497 556.3L924.897 553.2L921.797 553.5L919.097 554.9L916.597 555.2L914.097 554.6L908.697 551.4L907.397 551.1L903.697 551.4L902.597 551L900.897 548.3L899.797 541.1L898.397 538.1L896.497 537.1L891.897 537L889.897 536.6L883.497 534.1L881.397 533.9L879.297 534.5L875.397 536.7L872.897 536.8L867.797 535.8H862.897L858.897 538.9L856.997 547.3L857.097 549.7L850.297 551.5L847.697 551.7L847.197 551.3L846.097 549.7L845.297 549.1L844.597 549H843.997L843.097 549.8L842.797 550.3L842.197 551.6L841.697 552.2L840.897 552L839.697 550.7L838.997 549.8L838.097 548.3L837.597 547.7L836.697 547.1L835.997 546.9H835.297L830.797 548L829.997 547.9L829.297 547.6L828.597 546.7L828.497 546.2L828.897 545.3L830.097 544.1L830.697 543.1L830.797 541.9L830.197 540.2L830.097 538.9V538.2L830.597 537L830.497 536.2L829.997 535.4L828.197 534L827.397 533.2L826.897 532.4L826.697 531.7L826.097 531L825.297 530.5L823.797 530.2L822.997 529.8L822.497 529.4L822.197 528.3L822.097 526.4L821.797 524.7L820.297 522.8L819.897 522.1L819.797 521.6L819.497 519.4L819.097 518.1L818.397 517.7L809.597 516.7L808.997 516.8L807.897 517.2L807.497 517.6L806.797 518.6L806.497 519.9L806.297 521.2L806.097 521.7L805.097 521.8L797.397 520.4L795.997 520.8L794.697 520.9L793.497 520.4L791.897 519.3L790.897 518.9L790.097 518.8L789.297 519.6L788.897 520.1L788.497 521.4L788.097 521.9L787.097 522.5H784.697L781.697 521.9L780.397 521.4L779.597 520.9L778.897 519.5L777.197 518.2L765.897 515.2L765.197 515.3L764.097 515.7L763.097 516.3L762.397 516.5L761.397 516.6L758.597 516.3L757.897 516.4L757.197 517.2L756.697 518.5L755.897 519.3L754.497 519.5L753.797 519.8L753.897 522.1L754.097 523.5L754.497 524.9L752.597 525L747.197 527.3L743.297 527.4L741.697 528L740.897 529.6L739.797 529.7H734.797L733.697 529.4L732.997 528.9L732.597 527.9L731.097 522.7L730.597 521.5L730.197 520.8L729.097 520.1L727.897 519.8L724.497 519.5L723.697 519.2L723.397 518.8L723.197 516.8L722.497 516.1L721.297 515.4L717.197 513.9L716.397 513.4L715.397 512.1L714.497 511.2L713.697 510.9L713.097 510.8L711.997 511.3L711.497 511.7L710.397 512.9L709.997 513.4L709.197 513.9L708.097 514.2L705.597 514.3L704.697 513.9L704.297 513.5L704.397 512.8L704.097 512.1L703.197 511.2L702.497 510.9L701.897 511L700.897 511.8L700.297 512.2L699.697 512.1L699.197 511.8L698.297 510.7L697.597 510.1L695.897 509.1L694.997 508.9L694.197 509L693.697 509.2L692.897 510L691.597 512.1L689.897 513.6L689.597 514.1L689.197 515.5L688.897 518.5L688.997 519.8L689.397 521.6L690.197 523.9L690.697 526.3L691.097 527.4L692.897 531.6L693.297 532.8V533.5L693.197 534.1L692.397 534.5H691.297L689.197 534.1H688.197L687.697 534.5L688.297 535.3L689.997 536.9L690.397 538L689.997 540.8L689.697 541.6L689.097 542.4L687.797 543.3L687.197 543.9L686.897 544.6L687.597 545.4L689.297 546.3L689.697 546.7L689.797 547.2L689.197 548.3L688.697 548.8L679.697 547.9L678.697 548.1V548.5L679.897 549.6L680.297 550L680.197 550.6L679.697 551.3L676.497 552.8L676.097 553.5L676.297 554.6L676.997 557L677.197 557.5L677.697 557.8L678.797 558.1L679.197 558.4L679.597 559.5L679.697 560.8V561.5L679.197 562.6L677.097 565.5L676.797 566V566.5L677.197 566.8L680.197 568.8L680.997 569.6L681.797 570.5L682.997 571.6L687.297 574L687.897 574.9L687.797 575.8L686.497 578.4L685.497 579.7L684.297 580.4L683.397 580.6H682.597L681.397 580L680.097 578.9L679.397 578.6L678.397 578.4L667.297 578.2L665.097 578.8L664.497 579.1L663.997 579.5L663.297 580.9L662.397 581.6L658.497 583.9H657.697L657.197 583.6L656.897 583.2L655.597 580.6L654.997 580.2L654.197 579.8L652.697 579.4L651.897 579.5L651.197 579.8L650.897 580.2L650.797 580.7L650.997 581.1L651.797 581.9L652.097 582.4L652.197 583L651.897 583.7L651.397 584.3L647.397 586L646.797 585.9L646.497 585.6V585L646.697 583.6V582.7L646.297 582.4L636.097 579.3L631.697 579L630.397 579.1L629.497 579.3L628.997 579.7L628.197 580.6L625.797 584.7L624.397 586.7L623.897 587.1L621.797 588.1L621.197 588.6L620.797 589.2L620.397 590.8L619.797 591.8L619.097 592.1L608.697 592.4L607.697 592.7L607.297 593.2L607.197 593.9L607.297 600.9L607.197 603.1L606.897 604.4L606.297 605.5L591.597 610.2L589.697 611.3L588.897 612L588.797 612.8L589.097 613.4L589.997 614L592.597 614.8L593.497 615.6L593.597 616.1L593.497 617.4L593.197 618.1L592.697 618.8L591.997 619.5L591.097 619.8L588.497 619.7L587.597 619.8L586.997 620.2L585.997 621.4L585.097 622.3L584.297 622.6L579.297 622.7L578.297 623.1L577.497 623.6L576.697 624.3L575.997 624.6H575.297L572.397 623.8L570.897 623.7L570.097 624L569.497 624.4L568.197 625.7L567.497 626L566.697 626.1L561.597 625.3L554.997 625.9L548.997 620.2L538.697 613.7L537.197 612.2L536.497 611.2L548.797 598.7L550.997 595.1L551.797 593.4L551.897 592.7L552.497 589.7L552.697 589.1L553.197 587.9L556.197 584.5L556.997 583.3L557.397 582.1L557.497 581.3L557.297 580.7L556.897 580.2L553.897 578.1L553.397 577.6V577L553.597 576.5L554.497 575L555.397 573.4L557.197 568.4L557.497 567.9L558.297 567.6L561.697 568L562.197 567.9L561.997 567L561.497 566.1L560.997 564.9L560.597 562.9L560.697 561.5L561.697 557.1L561.797 556V555.2L559.597 549.5L559.397 548.7L559.197 547.5L559.497 546.7L560.697 545.2V544.7L560.297 544.2L559.797 543.9L559.197 543.8L557.297 544L556.197 544.5L554.897 545.6L553.897 546.1L549.997 546.5L549.197 545.6L548.397 543.9L547.397 539.2L546.597 537.3L545.797 536.3L542.097 535.8L541.497 535.9L541.097 536.2L540.497 537.3L539.897 539.3L539.297 540.1L538.797 540L535.697 538.2L534.397 537.8L530.697 537.3L529.897 537L529.197 536.5L527.197 533L526.397 532.2L525.797 531.8L523.497 530.8L519.197 529.7L518.297 529.2L517.897 528.2L517.197 525.4L516.897 524.6L515.297 521.5V520.7L515.597 520.2L518.697 518.6L519.797 518.3L521.797 518.1L522.497 518.2L524.097 519L525.097 519.7L525.897 520.5L528.597 524.1L528.997 524.3L529.497 524.2L529.997 523.5L531.297 523.2L543.497 524L544.097 523.9L544.597 523.6L544.897 523.1L545.697 521.3L546.097 520.9L546.597 520.7L551.797 520L552.397 519.7L552.897 519.2L553.397 518.2L553.497 517.5L553.297 516.9L552.397 515.4L551.797 513.8L551.197 513L550.597 512.5L544.997 510.3L544.397 509.9L543.897 509.2L543.797 508.6L543.897 507.9L544.297 506.8L547.097 503.8L547.397 503.3L547.897 502L548.097 500.9L548.297 495.5L547.997 491.6V488.8L549.097 486.7L550.297 484.7L551.397 483.2L552.997 481.6L553.997 481L555.297 480.9H556.697L558.797 481.4L559.397 481.5L559.897 481.3L560.997 480L561.497 479.7L564.997 478.5L566.097 477.6L566.197 477.1L565.997 476.6L565.297 476.4L563.797 476L563.097 475.6L563.497 475L567.797 474L568.297 473.7L568.797 473.3L569.197 472.6L569.697 471.5L569.797 470.7V470L568.997 467.8L568.797 466.4V465.5L569.097 464.8L569.797 463.7L570.497 463.2L571.197 463L571.897 463.1L572.997 463.6L574.997 465L577.297 466.1L586.797 467.9L587.997 467.5L589.297 466.5L589.897 466.3L591.197 466.4L592.297 467.1L592.997 468L593.497 468.9L593.897 469.2H594.297L595.697 467.7L596.097 467.4H596.697L597.097 467.7L597.297 468.2L597.397 468.9L597.297 469.6L596.897 470.4L596.297 471.4L596.097 472.1L596.197 472.7L597.497 474.5L599.397 478.8L600.097 479.6L600.797 479.7L604.497 480L605.097 479.9L605.797 479.6V478.6L604.997 475.5V474L605.197 473L605.097 471.3L604.897 469.8L605.797 469.2L615.197 468.4L615.897 468.1L616.597 467.6L617.497 466.6L617.897 465.7L618.097 464.9L617.897 463.7L616.897 461.4L616.697 460.7V459.5L616.897 458.8L617.197 458.2L621.297 454L622.197 453.4L623.297 453.1L624.997 453.7L626.997 454.1L627.497 454.4L628.297 455.3L629.197 456L630.497 456.4H631.197L632.397 456.1L640.497 451.7L642.197 450.2L643.197 448.9L644.497 446.8L645.297 445.7L646.197 445L647.397 444.8L647.997 445L648.797 445.7L649.797 447.2L650.397 447.5H650.997L651.697 447.1L652.097 446.3L652.397 445.1L652.797 444.5L653.297 444.1L654.597 443.5L655.397 442.8L655.697 442.2L655.597 441.7L655.197 441.3L653.797 441L652.597 440.3L652.297 439.8L652.197 439L652.497 438.4L652.897 438L656.197 436.6L657.697 435.7L658.997 434.3L660.197 432.7L660.597 431.8L660.797 431L660.397 430.7L658.497 430.3L657.997 430L657.197 429.1L656.197 428.6H655.597L653.897 429L653.297 428.9L652.797 428.6L652.097 427.7L651.697 427.3L651.097 427.1L648.997 426.9L648.397 426.8L648.097 426.5L648.697 425.8L650.997 424.6L651.797 423.9L652.197 423.2L652.397 422.4L652.197 421.3L651.697 421.1L651.297 421.2L649.297 422.4L648.697 422.5L648.197 422.4L647.797 421.8L647.897 421.2L648.197 420.8L649.097 419.9L650.497 418.2L650.697 417.5L650.397 417L648.097 415.8L647.597 415.3L647.497 414.2L647.797 413.4L648.497 412.3L648.597 411.7L648.197 410.7L647.997 410L648.197 407.3V403.1L647.997 401.7L647.697 400.5L646.897 399L646.297 398L645.797 396.7L645.897 394.9L646.097 394.3L647.097 392.2L647.897 391.3L649.397 390.4L650.297 389.7L651.297 388.2L653.297 386.2L654.097 385.1L654.497 384.3L654.597 383.5L654.497 382.8L654.297 381.6L653.697 380.6L652.897 379.7L652.497 379.2L652.397 378.3L652.497 377.7L652.897 377.2L654.197 376.7L654.897 376.3L655.097 375.7L655.297 375V368.4L655.097 365.4L655.297 364.8L655.697 364.4L657.897 363.1L658.697 362.3L658.797 361.7L658.597 361.2L657.797 360.4L657.697 359.8L657.597 357.6L657.397 357.1L656.897 356.7L654.797 356.1L654.297 355.7L653.997 355.3L653.797 353.6L657.897 350.7L659.197 349.2L659.497 348.6L660.497 345.8L660.997 345.2L661.597 344.9L663.497 344.6L666.397 343.7L666.797 343.1L667.497 341.1L668.397 339.3L669.197 338.6L669.897 338.2H671.397L672.797 338.5L678.897 341.2L680.397 341.4L683.397 340.7L684.997 340.9L694.297 339.4L696.697 338.6L697.497 337.8L697.597 337.4L697.297 337L695.897 336L695.597 335.5L695.697 334.8L696.297 333.9L696.897 333.6H697.597L701.597 334.9L702.197 335.2L702.497 335.7L702.597 336.3L702.397 337.5L702.497 338.1L702.697 338.6L704.097 339.7L704.397 340.1L704.497 340.7L704.297 341.8V342.3L705.097 342.7L706.297 343L710.397 343.2L711.197 343.5L711.397 344.1L711.197 345.4L711.797 346L712.997 346.4L716.097 346.5L717.497 346.4L718.397 346L718.797 345.5L719.197 344.2L719.097 342.9L718.397 341.3L717.797 339.5L717.397 336.9L717.597 336.2L718.097 335.5L721.597 333.3L722.397 332.5L722.997 331.3L723.497 329.6L723.797 328.9L724.497 328L725.197 327.7H725.997L726.997 328.3L727.097 328.7L726.897 329.2L726.097 329.9L725.997 330.4L726.197 330.8L729.997 333.1L731.297 334.5L732.097 334.9L732.797 334.8L733.297 334.6L733.697 334.1L733.897 333.4L734.097 331.8L734.397 330.9L734.897 330.7L737.297 331.3L739.297 331.4L740.397 331.2L741.197 331L746.197 327.4L746.897 327.3L747.297 327.6L747.097 328.1L745.997 330.5L745.297 332.4L744.597 333.5L741.997 336.7L741.497 337.7L741.897 338.8L742.697 339.4L748.597 340.7L750.397 340.6L752.597 339.6L755.397 337.7L756.197 336.7L756.397 336.2L756.597 334.2L757.197 333.4L757.797 333.2L758.397 333.3L759.297 334.1L759.897 335.1L761.497 338.7L761.697 339L763.197 340.6L764.997 342.2L766.497 343L768.097 343.4H768.997L769.697 343.2L772.997 341.6L774.297 340.5L775.097 339.7L775.697 338.5L776.297 336.4L776.497 335.7L777.197 334.7L778.597 333.6L779.197 332.6L779.097 332.1L778.897 331.6L776.697 329.5L776.397 329L776.197 328.5V327.8L776.497 327.2L777.097 326.6L778.097 326.1L782.697 324.7L783.197 324.2L783.597 323.7L783.797 322.3L784.197 321.6L784.897 321L786.797 320L787.897 319.6L788.897 319.5L789.497 319.7L793.597 321.7L798.897 322.7L805.897 322.9L808.097 322.6L809.097 322.1L809.297 321.6L809.397 321L809.097 319.9V319.2L809.497 318.5L810.597 317.5L811.697 317.2L812.597 317.1L813.197 317.3L815.897 319.1L819.597 320.2L821.697 321.5L822.697 322.3L823.397 322.6L824.397 322.8L824.897 322.6L825.197 322.1L825.097 320.9L824.597 319.1L824.497 318.6L824.597 318L825.097 317.5L825.997 317.1L828.697 316.3L829.397 316L831.697 314L832.497 313.7H833.497L835.797 314.1H837.497L838.097 313.8V313.8Z" fill="#006204" stroke="white" stroke-linecap="round" stroke-linejoin="round"/>
  <path d="M838.098 313.8L837.498 314.1H835.798L833.498 313.7H832.498L831.698 314L829.398 316L828.698 316.3L825.998 317.1L825.098 317.5L824.598 318L824.498 318.6L824.598 319.1L825.098 320.9L825.198 322.1L824.898 322.6L824.398 322.8L823.398 322.6L822.698 322.3L821.698 321.5L819.598 320.2L815.898 319.1L813.198 317.3L812.598 317.1L811.698 317.2L810.598 317.5L809.498 318.5L809.098 319.2V319.9L809.398 321L809.298 321.6L809.098 322.1L808.098 322.6L805.898 322.9L798.898 322.7L793.598 321.7L789.498 319.7L788.898 319.5L787.898 319.6L786.798 320L784.898 321L784.198 321.6L783.798 322.3L783.598 323.7L783.198 324.2L782.698 324.7L778.098 326.1L777.098 326.6L776.498 327.2L776.198 327.8V328.5L776.398 329L776.698 329.5L778.898 331.6L779.098 332.1L779.198 332.6L778.598 333.6L777.198 334.7L776.498 335.7L776.298 336.4L775.698 338.5L775.098 339.7L774.298 340.5L772.998 341.6L769.698 343.2L768.998 343.4H768.098L766.498 343L764.998 342.2L763.198 340.6L761.698 339L761.498 338.7L759.898 335.1L759.298 334.1L758.398 333.3L757.798 333.2L757.198 333.4L756.598 334.2L756.398 336.2L756.198 336.7L755.398 337.7L752.598 339.6L750.398 340.6L748.598 340.7L742.698 339.4L741.898 338.8L741.498 337.7L741.998 336.7L744.598 333.5L745.298 332.4L745.998 330.5L747.098 328.1L747.298 327.6L746.898 327.3L746.198 327.4L741.198 331L740.398 331.2L739.298 331.4L737.298 331.3L734.898 330.7L734.398 330.9L734.098 331.8L733.898 333.4L733.698 334.1L733.298 334.6L732.798 334.8L732.098 334.9L731.298 334.5L729.998 333.1L726.198 330.8L725.998 330.4L726.098 329.9L726.898 329.2L727.098 328.7L726.998 328.3L725.998 327.7H725.198L724.498 328L723.798 328.9L723.498 329.6L722.998 331.3L722.398 332.5L721.598 333.3L718.098 335.5L717.598 336.2L717.398 336.9L717.798 339.5L718.398 341.3L719.098 342.9L719.198 344.2L718.798 345.5L718.398 346L717.498 346.4L716.098 346.5L712.998 346.4L711.798 346L711.198 345.4L711.398 344.1L711.198 343.5L710.398 343.2L706.298 343L705.098 342.7L704.298 342.3V341.8L704.498 340.7L704.398 340.1L704.098 339.7L702.698 338.6L702.498 338.1L702.398 337.5L702.598 336.3L702.498 335.7L702.198 335.2L701.598 334.9L697.598 333.6H696.898L696.298 333.9L695.698 334.8L695.598 335.5L695.898 336L697.298 337L697.598 337.4L697.498 337.8L696.698 338.6L694.298 339.4L684.998 340.9L683.398 340.7L680.398 341.4L678.898 341.2L672.798 338.5L671.398 338.2H669.898L669.198 338.6L668.398 339.3L667.498 341.1L666.798 343.1L666.398 343.7L663.498 344.6L661.598 344.9L660.998 345.2L660.498 345.8L659.498 348.6L659.198 349.2L657.898 350.7L653.798 353.6L650.498 354.7H649.798L648.998 354.4L647.898 352.9L647.698 352.1L647.598 351.3L647.898 347.5L648.198 346.2L648.798 345.2L651.898 342.5L652.398 342L652.798 341.3L653.198 340.2L653.298 339.4L653.098 338.8L650.998 335.4L649.798 334.3L648.798 333.3L648.898 332.7L649.598 332L649.998 331.4L650.398 330.6L650.698 329.3L650.998 328.6L651.498 328.1L652.098 328L652.798 326.1L653.498 322.8L654.798 307.8L655.698 306L656.798 304.6L657.598 303.3L658.098 302.2V301.4L657.898 300.7L656.398 298.8L656.098 298.1V297.5L656.298 296.9L657.898 295.1L661.398 291.9L661.798 291.2V290.2L661.098 286.3L660.498 285.3L659.898 284.6L658.498 284.2L657.898 284.3L657.598 284.6L657.498 285.2L657.598 287.3L657.398 288.8L656.698 289.9L655.698 290.5H655.098L652.098 289.9L649.598 288.9L648.198 288.7H647.498L646.398 289.2L645.398 289.8L642.698 292L642.198 292.2L641.598 292.1L639.398 290.9L638.198 290.7L634.698 290.6L634.198 290.4L633.998 289.2L634.098 287.6V286.4L633.898 284.8L633.298 281.8L632.698 280.6L631.898 280L630.698 280.3L628.498 281.3L626.098 282L625.498 282.1L624.798 281.9L624.198 281.4L623.998 280.8L624.098 280.3L624.398 279.8L625.298 278.9L625.498 278.5L624.698 278.3L622.398 279.2L620.298 280.3L619.498 281.2L617.998 284.1L617.598 284.5L616.698 285.1L614.798 285.6H611.898L598.398 283.1L597.798 283.2L597.398 283.5L597.098 284.1L596.698 286.1L596.298 287.4L596.598 288.5L598.398 290.8L598.598 291.3L598.298 292.4L597.298 294.1L596.498 295L595.298 295.3L593.898 295.5L592.898 295.4L592.498 294.8V293.3L592.098 291.6L591.498 291.3L590.798 291.1L586.198 290.5H585.498L584.998 290.8L583.798 292.1L582.898 292.8L582.298 292.9H581.698L575.398 290.6L574.698 289.9L574.198 289.3L573.698 287.5L573.598 286.1L573.898 284.7L575.398 281.9V281L575.198 279.9L573.898 277.8L573.098 277.1L572.498 276.9L572.098 277.3L569.898 280.2L568.898 280.9L568.098 281L567.698 280.7L567.498 280.1L567.198 278.9L566.698 277.5L566.198 276.6L565.698 276.4H565.098L556.798 279L556.298 279.3L555.598 280.4L554.598 283.8L553.798 285.7L553.598 286.4L550.398 295.6L549.998 296.2L548.998 296.5L547.098 296.4L543.098 294.3L542.298 293.6L541.898 292.5L541.498 291.1L540.898 290.2L539.698 288.9L536.098 286.8L535.298 285.9L534.598 285L533.798 283.4L533.198 282L532.598 281L531.198 279.4L530.498 278.8L529.698 278.5L526.798 278.2L521.698 279.2L519.398 280.1L517.098 281.8L516.698 282.2L515.898 282.5L514.998 282.7L510.198 281.4L509.498 281.3L498.098 284.8L496.498 285L496.098 284.5L495.798 284L495.698 281.7V280.9L495.298 280.1L494.798 279.6L493.498 279.1L492.798 279H492.198L491.698 279.3L489.898 281.7L489.498 282.1L488.298 282.3L486.498 282.2L480.498 280.4L479.798 279.7L479.498 278.9L478.798 277.8L476.298 275.6L475.398 274.6L474.998 273.6L474.898 272.8L474.498 271.8L472.998 270.1L472.398 269.1L472.298 268.2L472.798 267.1L473.298 265.8L473.698 264.4L473.798 262.9L473.198 262L472.098 260.9L466.698 257.4L456.598 255.7L455.798 255.2L455.598 254.5L455.698 253.8L456.398 250.9L456.198 249.6L455.798 249.1L447.698 242.2L447.398 241.8L446.798 240.6L445.798 239.3L444.798 238.3L443.998 237.9L443.198 237.8L437.598 238.4L435.498 238.2L434.898 237.8L434.598 237.2L434.398 234.4L433.998 233.2L433.498 232.1L431.598 229.1L430.698 228.1L427.998 225.9L427.698 225.3L427.598 224.8L427.798 224.3L430.598 220.2L430.898 219L430.598 218.2L429.998 217.3L428.598 216L427.598 215.5L426.798 215.3L421.098 216.7L413.598 214.6L412.598 214.5L409.298 217.1L409.098 217.6L409.198 218.8L409.698 220.7L409.798 222L409.698 222.6L409.398 223.2L408.898 223.4L407.698 223.8L399.798 224.3L395.698 223.9L394.898 223.5L394.398 223.1L393.698 221.9L392.398 220L391.598 219.6L390.798 219.4L380.098 221.2L378.998 221.6L375.798 224.3L374.498 224.9L373.298 225.1L372.698 224.9L372.198 224.5L371.598 223.2L370.998 222.4L369.798 221.2L368.998 220.6L368.098 220.3L364.898 220.1L362.498 220.3L361.598 220.5L361.298 220.7L360.898 221.6L360.298 222.4L359.398 223.1L358.298 223.5L356.798 223.6L355.798 223.2L354.898 222.7L353.898 221.8L352.998 221.4L347.298 221.8L344.298 221.3L342.098 220.5L338.198 218.4L337.098 218.1L336.398 218.2L335.698 218.6L335.198 219.2L334.898 220.1V221L334.998 221.8L335.298 223L335.198 223.5L334.498 224.4L333.398 225.2L331.898 224.1L330.698 224.3L329.798 224.8L327.498 227.1L326.798 227.6L326.098 227.8L325.198 227.5L324.498 226.8L323.598 224.7L322.998 221.4V220.4L322.098 219.5L321.498 219L315.198 216.5L314.898 216.1L316.698 213.3L320.498 204.9L320.998 203.3L321.198 201.1L321.098 196.6L321.398 194.5L324.698 189.3L329.398 188.5L340.998 191.5H341.898L342.898 191.2L343.498 190.4L344.198 189.4L344.998 188.5L346.498 188.3L357.598 193.3L359.898 192.8L361.498 190.2L362.598 184.9L363.298 179.8L364.098 177.8L365.698 175.5L368.698 172.6L370.298 171.6L376.998 169.8L379.598 167.9L380.698 164.9L379.798 161.8L377.398 160L359.998 156.9L353.698 158.6L351.998 158.5L345.698 156.2L344.098 155.1L343.598 153.1L344.598 149.7L347.098 145.1L347.798 143.3L349.198 136.5L350.098 134.4L353.798 130.7L354.198 128.5L352.198 124.7L352.698 120.2L354.698 116.8L357.298 113.9L359.298 110.7L360.298 106.6L360.598 101.7L360.198 96.7L359.198 92.3L361.398 88.4L363.898 87L366.698 87.3L372.298 89.6L374.698 89.4L382.998 85.1L385.098 82.6L391.098 71.6L397.098 64.2L399.598 62.6L413.098 60.9L417.398 61.6L419.598 62.9L426.098 68.4L428.998 70L430.998 69.2L435.898 64.4L438.098 61.8L440.698 64.9L443.898 66.8L447.398 67.9L460.498 69.1L463.498 68.7L464.398 65.9L465.298 61.9L465.998 53L468.898 44.8L479.298 37.9L482.698 31.8L483.098 27.3L486.398 23.9L493.498 18.4L494.798 15.9L495.698 13.6L496.698 11.6L498.398 9.9L499.698 9.2L503.998 8.3L508.498 6.1L513.098 2.7L517.598 1L521.598 3.7L523.698 6.9L530.898 14.9L534.098 19.5L536.298 21.7L538.498 22.4L540.798 21L544.298 15.6L546.698 13.8L562.198 12.1L568.098 13.1L569.898 13.8L570.798 14.8L572.498 18.1L576.198 23.3L577.098 25.2L578.098 29.6L578.598 34.1L579.798 37.9L582.498 40.3L590.498 42.6L592.798 42L592.998 37.7L595.798 34.8L602.298 31.8L608.498 27.8L613.698 25.8L619.698 26L625.598 28.1L630.598 31.8L633.898 34.4L649.898 39L651.798 40.1L653.598 41.9L655.498 44.5L656.498 46.2L656.898 47.7L656.498 48.9L655.798 49.1L654.898 49L654.098 49.4L653.098 50.2L652.198 50.5L651.398 51.2L650.598 52.8L650.198 54.4L649.698 58.9L649.298 60.9L646.798 67.1L646.398 70.1L647.098 74L648.398 76.7L653.598 81.1L658.598 88.6L660.698 89.7L663.498 88.9L671.598 79.2L681.898 73.1L684.698 72.5L691.898 74.4L694.598 73L698.698 65.3L701.298 62L705.298 59.6L709.498 58.7L713.698 58.9L725.998 63.6L728.698 62.6L733.398 58.1L735.798 56.9L737.698 57.4L741.198 60.6L743.198 61.9L763.898 68.9L764.798 69.9V71.5L764.198 73L763.898 74.6L765.098 76.2L774.398 80.7L775.498 81.6L776.298 82.8L776.698 85.2L776.398 86.8L775.898 88.3V90.1L777.198 92.7L779.298 94.1L781.698 94.7L785.898 94.3L787.398 95.1L788.398 96.9L789.398 99.8L792.398 105.8L795.398 106.3L798.898 104.3L803.498 102.7L807.498 104.6L810.298 110L810.998 116.8L808.898 123.4L810.398 124.4L810.998 124.6L810.298 127L807.598 129.1L806.998 132.2L807.798 135.5L809.498 137.8L810.898 140.2L810.798 143.9L809.598 146.1L803.298 150.6L799.698 155.8L798.198 159.2L797.898 162.7L798.898 165L800.698 166.6L804.398 168.6L805.798 170.7L807.498 177.5L808.998 179.8L813.898 183.6L815.198 185.2L815.298 185.9L814.898 187.6L815.098 188.5L815.398 188.8L816.498 189.2L816.798 189.4L817.198 190.4L817.698 191L817.898 191.9L817.398 193.8L816.498 195.1L816.298 196.4L816.598 197.8L817.398 199.1L818.798 202.7L819.998 207.2V210.7L817.398 211.5L812.398 210.2L810.298 210.4L809.598 212.6L810.698 215.6L812.198 217.6L812.698 219.8L810.698 223.3L808.898 224.7L802.498 226L799.998 228L800.298 229.9L801.398 232.6L801.198 237.2L799.598 240.1L797.198 242.6L795.198 245.8L794.598 250.9L795.398 253.8L796.998 255L801.298 256.5L817.398 268.3L818.898 271.2L819.298 274.5L821.598 274.1L830.398 275.1L832.798 280.1L836.898 283.5L833.898 290.5L828.698 299L826.098 306.8L829.198 309.1L836.898 311.4L838.098 313.8V313.8Z" fill="#006204" stroke="white" stroke-width="2" stroke-linecap="round" stroke-linejoin="round"/>
  <path d="M333.398 225.2L332.598 226.2L330.698 227.2L330.298 227.5L330.098 228.1L330.198 228.8L331.498 231.2L332.298 233.2L332.498 234.8L332.298 238.5V239.7L332.998 241.2L333.698 242.3L334.698 243.4L335.798 244.4L337.098 245.2L338.298 245.8L339.298 246.1L340.898 246.3L341.498 246.6L343.798 249.4L349.398 258.1L349.998 258.6L350.698 259.1L352.798 260L353.398 260.3L353.698 260.8L353.898 261.9L353.998 263.1L353.498 265.7L353.398 266.8L353.598 268.3L353.998 269.2L355.298 272L356.298 274.5L357.298 276.3L357.698 277.2L357.998 278.1L358.298 279.6L358.698 280.4L359.198 280.9L361.198 281.5L362.998 282.7L363.698 282.9L364.498 282.6L367.098 281.3H367.598L367.798 282V283.4L367.398 286.4L367.598 288.3L368.398 290.4V291.1L367.698 292.1L367.098 292.4H366.398L365.298 292.2L364.898 292.6L364.598 293.6L364.498 298.4L364.298 299.4L363.798 299.9L363.098 299.8L362.198 299.4L358.998 297.2H358.298L358.198 298L358.698 299.4L358.798 300V301.8L359.098 302.8L359.598 303.7L360.598 305.4L360.998 306.7L361.198 308.4L360.998 311.2L360.798 313L360.098 314.2L359.598 314.8L357.698 316.2L356.998 317.3L355.798 321.5L349.298 338.8L347.298 343.1L346.098 345.1L341.998 349.4L340.898 350.9L340.098 351.6L339.498 351.9L327.898 354.1L322.898 353.1L321.498 353.2L319.698 353.7L313.598 359.1L313.098 359.4L311.898 359.6L308.898 359.3L308.398 359.5L307.698 360.4L305.998 365.5L304.998 369.9V370.6L305.098 371.2L306.298 372.2L309.298 373.5L309.798 373.6L310.198 373.4L310.498 372.9L310.998 370.8L311.298 370.2L312.098 369.7L312.598 369.8L314.898 370.9L315.398 371.3L315.698 371.8L315.598 372.9L315.098 375.5L314.798 381.5V383L314.998 384.1L315.498 385.3L316.598 387.6L317.498 388.4L318.298 388.7L324.898 387.7L325.898 387.1L326.098 386.5L326.198 385.8L326.098 384.7L326.598 384.2L327.298 384.1L331.898 384.7L332.598 385L332.998 386.2L334.098 391.9L334.898 393.3L335.498 394L341.798 394.2L342.298 395.1L342.398 396.8L341.898 400.8L341.398 402.4L340.898 403.4L337.098 404.3L336.598 404.6L335.898 405.5L335.298 406.6L334.198 409.8L333.698 411L333.098 412L331.798 413.2L330.798 413.9L329.698 414.4L322.598 416.6L320.598 417.8L319.898 418.7L319.698 419.6L319.598 420.8L319.498 424.1L319.598 425.1L320.298 425.9L321.498 426.8L328.698 429.8L329.498 430.7L328.998 432.3L328.298 433.4L327.898 433.8L327.298 434.1L325.098 434L324.398 434.1L323.998 434.9L323.798 436.2V438.8L323.498 441.2V442L324.498 443.6L325.298 444.5L326.698 445.6L327.798 446.2L331.398 446.7L332.398 447.3L332.598 448L332.698 449L332.598 450.9V452.2L332.698 453.4L333.198 454.7L333.798 455.4L334.398 455.8L340.998 457.8L345.298 460.2L346.098 461.1L346.598 462.1L346.998 463.6L347.298 466.6L347.498 467.3L347.898 468.4L349.498 470.9L349.998 471.8L350.798 473.9L350.698 475L350.298 476.5L348.898 479.7L348.598 481.6V482.6L349.098 482.9L349.998 483L352.398 482.5H352.998L353.798 483L354.098 483.4L354.298 484.5V486.4L353.698 492V493.4L353.898 494.7L354.598 497.1L355.098 498.1L355.698 499.1L356.398 500L355.498 500.6L336.398 507L328.298 509.2L325.598 509.4L324.998 509.2L322.798 508.1L320.198 507.3L311.298 506.8L305.698 505.4L303.398 505.6L301.198 506.2L286.398 504.9L285.398 504.4L284.298 503.1L283.798 502.7L282.998 502.6L281.898 502.7L280.198 503.1H279.198L278.498 503L277.098 501.9L275.998 501.5H274.998L271.698 502.3H270.598L269.198 501.9L267.798 501.7L267.098 502L266.198 502.6L264.998 504.1L264.398 505L263.298 507.5L260.298 512.7L259.798 514.2L259.598 515.4L258.998 520.6L258.598 521.9L258.098 522.3L257.398 522.7L254.298 523L253.598 523.4L252.998 524.4L252.698 525.2L251.998 528L252.098 528.7L252.698 529.6L254.698 530.9L255.398 531.8L255.498 533.1L255.398 533.7L254.898 534.5L253.998 535.2L252.298 536.5L250.098 538.5L249.398 539.7V540.4L249.498 540.9L249.998 541.3L252.098 541.7L253.098 542.3L254.198 543.6L254.998 545.2L255.198 545.7L255.398 547L255.198 548.4L254.298 551L250.998 557.4L248.398 564.9L248.098 565.4L247.398 566.3L241.998 569.5L240.998 570.6L239.898 572.2L238.698 574.3L237.998 575.3L236.898 576.5L236.298 577.6L236.198 578.9L235.798 579.7L234.898 580.6L232.298 581.8L230.598 582.2L228.498 582L227.598 581.7L226.798 581.5L225.898 581.6L224.498 582.6L223.898 583.5L223.598 584.3L223.798 585.6L224.398 586.6L225.998 588.2L226.298 589.2L225.998 589.6L224.798 590.7L224.498 591.2V591.8L224.798 593L225.098 593.5L225.498 593.9L227.198 594.6L227.498 595.1L227.698 595.7L227.498 597L227.198 597.5L226.398 598.2L225.698 598.4L224.898 598.5L223.298 598.1L221.598 597.4L220.698 596.8L220.098 595.8L219.898 594.5L219.698 594L218.798 593.8L217.498 594L215.198 594.9L213.498 596.3L213.198 596.7L212.698 597L211.898 597.1L210.998 597L209.398 596.6L208.198 596.5L206.998 596.7L202.798 598.3L201.898 599.1L201.298 599.5L200.498 599.6L199.198 599.2L198.498 598.7L198.098 598.1L198.298 596.8L198.498 596.1L198.398 594.9L197.798 594V593.4L197.998 592.1L199.398 587L199.498 586.4L199.298 586L198.898 585.7L198.298 585.6L197.698 585.7L196.998 586.4L196.598 587L195.498 589.3L194.998 589.7L194.298 589.9L192.998 589.7L188.598 587.9L188.098 587.2V586.6L188.498 584.7V583.4L188.098 581.6L187.698 580.5L186.798 579L186.098 578.2L185.198 577.4L184.098 576.9L181.398 576.3L180.598 576.4L179.798 576.7L178.898 577.7L178.398 578.5L177.698 580.5L177.098 581.5L176.398 581.9L175.298 582.2H171.898L166.298 580.9L159.798 577.6L158.798 577.7L157.398 578.2L152.298 581.1L151.498 582L151.398 582.5L151.598 583L152.498 583.6L155.398 584L155.898 584.3L156.298 584.7L156.398 586L156.198 586.6L155.498 587.3L154.498 588.1L151.998 589.4L150.998 590.2L150.298 590.9L149.998 591.4L147.798 593.9L147.598 594.4V594.9L147.898 595.3L148.998 596.5L149.498 597.6L149.398 598.9L149.198 599.4L146.898 601.1L146.298 602L145.498 604.5L144.698 606L144.798 607.1L145.698 608.5L146.098 609.6L146.398 610.9L146.498 612.3L146.398 612.9L146.098 613.8L145.898 614.2L144.698 615L142.298 615.7L139.798 615.9L137.098 615.4L134.798 614.2L134.198 613.8L133.398 612.9L128.698 609.6L128.198 609.3L127.398 609.1L126.398 609.2L123.798 610L122.198 611.1L121.698 611.3L121.198 611.2L120.698 610.6L120.498 610L120.298 608.9L120.098 608.6L119.498 608.5H118.698L114.298 610.1L113.198 610.2L108.798 609.4L107.498 608.9L106.698 608.4L106.098 607.4L105.298 605.9L104.898 605.5L104.198 605.4L103.198 605.5L100.898 607L97.6984 609.7L96.6984 610.3L95.5984 610.7L81.6984 609.6L79.7984 610L78.9984 589L78.6984 587.7L78.2984 586.8L77.8984 585.8L77.7984 583.9L78.0984 582.5L79.2984 580.2L79.5984 579.1L79.4984 577.7L78.6984 572.9L78.5984 571.8L78.8984 569.7L78.6984 568.4L77.4984 565.8L74.3984 561.7L73.4984 558.8L73.5984 555.4L74.5984 553L75.8984 550.9L76.7984 548.4L76.9984 544.1L75.8984 542L74.1984 540.6L72.2984 538.6L70.9984 535.9L70.1984 533.4L69.1984 530.9L67.2984 528.4L65.4984 523.4L61.2984 506.8L59.1984 501.3L54.2984 491L45.3984 463.7L42.8984 451.4L42.6984 440.5L40.0984 436.8L38.9984 433.1L38.0984 423.7L36.9984 419.3L35.5984 415.2L34.5984 410.9L34.3984 405.7L37.9984 406.6L47.3984 412.3L49.1984 412.9L50.7984 412.8L55.9984 410.6L62.4984 409.7L64.2984 408.3L65.8984 407.7L66.6984 407.8L68.4984 408.9L69.3984 409.2L70.1984 409.1L78.1984 404.5L79.7984 404.2L81.3984 404.8L84.4984 406.8L86.1984 407.2H92.8984L95.9984 406.3L102.398 402.8L105.898 402.2L109.198 403.3L112.098 406.9L113.898 412L114.998 413.7L116.998 414.1L120.598 413.9L123.898 414.9L127.598 415L131.398 413L143.398 402.3L148.598 399.2L155.298 397.9L157.798 396L158.198 395.9L158.998 396.2L160.298 399.7L161.898 401.2L163.798 401.4L170.498 400.3L172.398 399.3L173.798 396.2L173.998 391.3L172.998 387.9L171.598 384.9L170.398 381.1L169.898 378.3L170.098 377.7H170.698L171.698 376.5L173.598 375.3L173.698 374.6L173.498 373.4L173.598 372L173.998 370.9L177.598 368.7L182.398 368.2L187.198 368.9L195.498 372.1L200.098 371.3L204.698 368.4L208.998 363.6L210.698 359.8L212.798 351.4L214.198 349.1L215.998 348.8L222.698 351.1L231.198 350.7L233.798 349L237.998 342.8L240.598 341.5L241.898 341.8L242.598 342.5L243.098 343.5L250.498 353.6L249.598 354.3L247.198 354.1L244.998 355.3L244.798 357.1L247.298 358.5L247.898 360L247.098 361.3L244.098 362.4L243.398 363.6L244.098 366.8L246.498 369.1L249.298 370.5L258.598 372L260.898 371.9L261.998 371.3L263.598 369L264.798 368.5L268.698 369L269.898 368.8L272.298 367L273.198 364.2L273.298 356L273.598 355.2L274.798 353.5L275.098 352.7L274.798 351.7L274.298 351.3L273.698 351.1L273.298 350.5L272.598 348.5L271.798 346.9L270.798 345.6L269.798 344.5L269.398 344.3L268.198 344.7L267.698 344.6L267.298 344L266.198 340.8L265.898 339.1L265.298 337.6L263.898 336.7L262.298 337.2L256.098 340.5L251.498 340.8L249.298 339.9L247.798 337.6L247.998 333.1L249.898 329.2L254.698 323.4L256.598 319.5L256.998 316L256.898 312.3L257.398 307.6L258.498 303.9L260.098 301.8L266.498 298L268.498 295.9L269.998 293.1L270.498 289.5L269.898 286L267.298 279.6L266.598 276L266.698 273.8L267.198 272L267.698 270.3L268.098 268.4L268.298 266.5L267.998 257.3L268.298 254.8L269.398 253.2L271.698 251.2L272.698 250.6H273.398L273.898 250.3L274.398 248.8L274.298 247.3L273.398 243.6L273.298 242L274.398 238.6L276.498 236.4L278.898 234.5L281.098 232L281.698 230.1L281.898 228.5L282.298 227.1L283.498 226L287.498 224.3L289.398 224.4L293.198 225.3H295.098L307.798 222.7L311.598 220.5L313.098 218.8L314.898 216.1L315.198 216.5L321.498 219L322.098 219.5L322.998 220.4V221.4L323.598 224.7L324.498 226.8L325.198 227.5L326.098 227.8L326.798 227.6L327.498 227.1L329.798 224.8L330.698 224.3L331.898 224.1L333.398 225.2V225.2Z" fill="#006204" stroke="white" stroke-linecap="round" stroke-linejoin="round"/>
  <path d="M653.8 353.6L654 355.3L654.3 355.7L654.8 356.1L656.9 356.7L657.4 357.1L657.6 357.6L657.7 359.8L657.8 360.4L658.6 361.2L658.8 361.7L658.7 362.3L657.9 363.1L655.7 364.4L655.3 364.8L655.1 365.4L655.3 368.4V375L655.1 375.7L654.9 376.3L654.2 376.7L652.9 377.2L652.5 377.7L652.4 378.3L652.5 379.2L652.9 379.7L653.7 380.6L654.3 381.6L654.5 382.8L654.6 383.5L654.5 384.3L654.1 385.1L653.3 386.2L651.3 388.2L650.3 389.7L649.4 390.4L647.9 391.3L647.1 392.2L646.1 394.3L645.9 394.9L645.8 396.7L646.3 398L646.9 399L647.7 400.5L648 401.7L648.2 403.1V407.3L648 410L648.2 410.7L648.6 411.7L648.5 412.3L647.8 413.4L647.5 414.2L647.6 415.3L648.1 415.8L650.4 417L650.7 417.5L650.5 418.2L649.1 419.9L648.2 420.8L647.9 421.2L647.8 421.8L648.2 422.4L648.7 422.5L649.3 422.4L651.3 421.2L651.7 421.1L652.2 421.3L652.4 422.4L652.2 423.2L651.8 423.9L651 424.6L648.7 425.8L648.1 426.5L648.4 426.8L649 426.9L651.1 427.1L651.7 427.3L652.1 427.7L652.8 428.6L653.3 428.9L653.9 429L655.6 428.6H656.2L657.2 429.1L658 430L658.5 430.3L660.4 430.7L660.8 431L660.6 431.8L660.2 432.7L659 434.3L657.7 435.7L656.2 436.6L652.9 438L652.5 438.4L652.2 439L652.3 439.8L652.6 440.3L653.8 441L655.2 441.3L655.6 441.7L655.7 442.2L655.4 442.8L654.6 443.5L653.3 444.1L652.8 444.5L652.4 445.1L652.1 446.3L651.7 447.1L651 447.5H650.4L649.8 447.2L648.8 445.7L648 445L647.4 444.8L646.2 445L645.3 445.7L644.5 446.8L643.2 448.9L642.2 450.2L640.5 451.7L632.4 456.1L631.2 456.4H630.5L629.2 456L628.3 455.3L627.5 454.4L627 454.1L625 453.7L623.3 453.1L622.2 453.4L621.3 454L617.2 458.2L616.9 458.8L616.7 459.5V460.7L616.9 461.4L617.9 463.7L618.1 464.9L617.9 465.7L617.5 466.6L616.6 467.6L615.9 468.1L615.2 468.4L605.8 469.2L604.9 469.8L605.1 471.3L605.2 473L605 474V475.5L605.8 478.6V479.6L605.1 479.9L604.5 480L600.8 479.7L600.1 479.6L599.4 478.8L597.5 474.5L596.2 472.7L596.1 472.1L596.3 471.4L596.9 470.4L597.3 469.6L597.4 468.9L597.3 468.2L597.1 467.7L596.7 467.4H596.1L595.7 467.7L594.3 469.2H593.9L593.5 468.9L593 468L592.3 467.1L591.2 466.4L589.9 466.3L589.3 466.5L588 467.5L586.8 467.9L577.3 466.1L575 465L573 463.6L571.9 463.1L571.2 463L570.5 463.2L569.8 463.7L569.1 464.8L568.8 465.5V466.4L569 467.8L569.8 470V470.7L569.7 471.5L569.2 472.6L568.8 473.3L568.3 473.7L567.8 474L563.5 475L563.1 475.6L563.8 476L565.3 476.4L566 476.6L566.2 477.1L566.1 477.6L565 478.5L561.5 479.7L561 480L559.9 481.3L559.4 481.5L558.8 481.4L556.7 480.9H555.3L554 481L553 481.6L551.4 483.2L550.3 484.7L549.1 486.7L548 488.8V491.6L548.3 495.5L548.1 500.9L547.9 502L547.4 503.3L547.1 503.8L544.3 506.8L543.9 507.9L543.8 508.6L543.9 509.2L544.4 509.9L545 510.3L550.6 512.5L551.2 513L551.8 513.8L552.4 515.4L553.3 516.9L553.5 517.5L553.4 518.2L552.9 519.2L552.4 519.7L551.8 520L546.6 520.7L546.1 520.9L545.7 521.3L544.9 523.1L544.6 523.6L544.1 523.9L543.5 524L531.3 523.2L530 523.5L529.5 524.2L529 524.3L528.6 524.1L525.9 520.5L525.1 519.7L524.1 519L522.5 518.2L521.8 518.1L519.8 518.3L518.7 518.6L515.6 520.2L515.3 520.7V521.5L516.9 524.6L517.2 525.4L517.9 528.2L518.3 529.2L519.2 529.7L523.5 530.8L525.8 531.8L526.4 532.2L527.2 533L529.2 536.5L529.9 537L530.7 537.3L534.4 537.8L535.7 538.2L538.8 540L539.3 540.1L539.9 539.3L540.5 537.3L541.1 536.2L541.5 535.9L542.1 535.8L545.8 536.3L546.6 537.3L547.4 539.2L548.4 543.9L549.2 545.6L550 546.5L553.9 546.1L554.9 545.6L556.2 544.5L557.3 544L559.2 543.8L559.8 543.9L560.3 544.2L560.7 544.7V545.2L559.5 546.7L559.2 547.5L559.4 548.7L559.6 549.5L561.8 555.2V556L561.7 557.1L560.7 561.5L560.6 562.9L561 564.9L561.5 566.1L562 567L562.2 567.9L561.7 568L558.3 567.6L557.5 567.9L557.2 568.4L555.4 573.4L554.5 575L553.6 576.5L553.4 577V577.6L553.9 578.1L556.9 580.2L557.3 580.7L557.5 581.3L557.4 582.1L557 583.3L556.2 584.5L553.2 587.9L552.7 589.1L552.5 589.7L551.9 592.7L551.8 593.4L551 595.1L548.8 598.7L536.5 611.2L537.2 612.2L538.7 613.7L549 620.2L555 625.9L554.6 626.1L553 628.2L553.3 629.2L553.6 629.6L553.2 630.3L552.3 631.1L550 632.4L549 633.3L548.4 634.1L548.3 634.9L548.1 637.2L547.9 642.9L548.1 646.3L548.8 651.4V653.3L548.3 654.4L541.6 660.2L520 662.7L518.8 662.5L518 662.1L517.1 660.7L516.2 658.6L515.6 656.9L514.8 656.2L513.7 655.6L504.7 653.7L503.9 653.9L503.1 654.3L501.9 655.3L501.4 656.1L501.3 657L502.3 658.9L502.6 660L502.9 662.6L502.8 663.9L502.5 664.4L502.1 664.8L500.8 665.5L500.2 665.9L499.9 666.4L498.5 667L486.9 668.1L483.5 667.4L475.3 667.6L474 667.3L468.6 664.4L465.2 661.7L464.6 660.8L464.3 660.3L464.2 659V657.1L464.5 653.1L464.3 651.8L464 651.3L463.4 651.1L462.6 651.3L461.9 651.9L461.1 653.4L460.4 655.2L460.2 655.6L459.5 654.9L458.8 653.3L457.3 650.3L456.7 650.2L455.8 650.5L448.6 656.6L448.2 656.4L447.8 654.7L447.5 654.2L447.1 653.9L444.3 653.8L443.6 654.2L442.9 655.1L442.1 657.5L441.5 659.7L441.1 660.3L440.4 660.5L437.5 660.7L436.9 661L436.5 661.6L436.4 662.8L436.5 664.4L436.7 665.6L437.1 666.8L437.7 668.4L436.5 671.3L429.9 680.8L416.5 672.5L414.9 671.3L415 670.8L415.2 670.3L417 668.2L417.3 667.7L417.8 666.4L417.9 665.8V664.9L417.6 663.9L417 662.3L416.5 661.6L412.3 658.3L407.8 653.6L406.4 651.6L405.8 650.3L407.8 648.3L408.2 647.8L408.3 647L407.8 645.9L405.7 644L405.5 643.3V642.5L406.3 639.9L406.9 639L407.5 638.8L419.9 638.2L420.9 637.6L421.2 637.1L421.5 635.3L421.6 633.6L421.3 631.9L420.1 629.9L419.1 628.3L418.5 627.9L417.9 627.7H412.4L408.8 627L408 626.5L407.2 625.7L403.8 620.2L403.6 619.3V618.6L404.2 617.5L404.4 616.8V615.8L403.7 614.8L400.4 612.5L399.9 612.3L399.4 612.5L399.1 612.9L397.8 614.8L397 615.6L396.5 615.8H396L394.8 615.3L391.2 613.2L380.6 609.9L379.6 609.3L379.1 608.7L376.8 605L374.2 600L373.6 599.2L372.9 598.8L372.3 598.9L369 600.1L367.4 600L366.2 599.5L365.6 599L365.2 598.4L365 597.8L364.9 595.4L364.6 594.3L364.1 593.7L361.4 592.5L359.5 591L358.3 590.5L357.4 590.3L354.4 590.9L353.9 591.2L353.5 591.7L353.2 593L352.9 595.3L352.5 596.6L351.9 597H348.4L347.4 597.5L346.6 598.3L345.6 599.6L344.7 600.5L343.9 600.8L343 600.3L340 595.8L339.6 594.8V594L340.2 593.1L342.9 591L343.2 590.5L343.3 589.8L342.5 587.7L342.3 586.9L342 584.9L341.6 583.8L337.1 576.2L336.2 574.2L336 573V572.1L336.3 571.6L337.7 570.8L338.1 570.5L338.7 569.4L339.6 566.8L340.3 565.1L340.9 564L341.5 563L342.4 562.3L343.5 561.8L344.8 561.6L349.1 562.1L350 562L351 561.6L351.1 560.7L350.9 559.4L349.4 555.9L349 555.2L345.5 551L344.9 550.6L344.2 550.5L337 550.1L336.1 549.8L335.1 549.3L334.6 548.7L334.3 548L334.1 545.9L333.9 544.9L333.4 544.4L331.8 543.3L331.6 542.6L331.5 541L331.1 540.5L330.6 540.3L328.7 540.6H327.9L327 540.4L325.7 539.7L325.1 539.1L324.9 538.4V537.6L325.2 536.4L326 534.6L327.8 531.4L329.2 529.5L330.1 528.6L331.3 527.7L331.9 527.4L336.2 527.3L336.8 527.2L337.8 526.6L338.5 525.7L338.7 524.4V521.3L338.6 520.2L338.1 518.6L337.6 517.6L336.6 516.4L336.2 515.7L336 514.9L336.2 508.4L336.4 507L355.5 500.6L356.4 500L355.7 499.1L355.1 498.1L354.6 497.1L353.9 494.7L353.7 493.4V492L354.3 486.4V484.5L354.1 483.4L353.8 483L353 482.5H352.4L350 483L349.1 482.9L348.6 482.6V481.6L348.9 479.7L350.3 476.5L350.7 475L350.8 473.9L350 471.8L349.5 470.9L347.9 468.4L347.5 467.3L347.3 466.6L347 463.6L346.6 462.1L346.1 461.1L345.3 460.2L341 457.8L334.4 455.8L333.8 455.4L333.2 454.7L332.7 453.4L332.6 452.2V450.9L332.7 449L332.6 448L332.4 447.3L331.4 446.7L327.8 446.2L326.7 445.6L325.3 444.5L324.5 443.6L323.5 442V441.2L323.8 438.8V436.2L324 434.9L324.4 434.1L325.1 434L327.3 434.1L327.9 433.8L328.3 433.4L329 432.3L329.5 430.7L328.7 429.8L321.5 426.8L320.3 425.9L319.6 425.1L319.5 424.1L319.6 420.8L319.7 419.6L319.9 418.7L320.6 417.8L322.6 416.6L329.7 414.4L330.8 413.9L331.8 413.2L333.1 412L333.7 411L334.2 409.8L335.3 406.6L335.9 405.5L336.6 404.6L337.1 404.3L340.9 403.4L341.4 402.4L341.9 400.8L342.4 396.8L342.3 395.1L341.8 394.2L335.5 394L334.9 393.3L334.1 391.9L333 386.2L332.6 385L331.9 384.7L327.3 384.1L326.6 384.2L326.1 384.7L326.2 385.8L326.1 386.5L325.9 387.1L324.9 387.7L318.3 388.7L317.5 388.4L316.6 387.6L315.5 385.3L315 384.1L314.8 383V381.5L315.1 375.5L315.6 372.9L315.7 371.8L315.4 371.3L314.9 370.9L312.6 369.8L312.1 369.7L311.3 370.2L311 370.8L310.5 372.9L310.2 373.4L309.8 373.6L309.3 373.5L306.3 372.2L305.1 371.2L305 370.6V369.9L306 365.5L307.7 360.4L308.4 359.5L308.9 359.3L311.9 359.6L313.1 359.4L313.6 359.1L319.7 353.7L321.5 353.2L322.9 353.1L327.9 354.1L339.5 351.9L340.1 351.6L340.9 350.9L342 349.4L346.1 345.1L347.3 343.1L349.3 338.8L355.8 321.5L357 317.3L357.7 316.2L359.6 314.8L360.1 314.2L360.8 313L361 311.2L361.2 308.4L361 306.7L360.6 305.4L359.6 303.7L359.1 302.8L358.8 301.8V300L358.7 299.4L358.2 298L358.3 297.2H359L362.2 299.4L363.1 299.8L363.8 299.9L364.3 299.4L364.5 298.4L364.6 293.6L364.9 292.6L365.3 292.2L366.4 292.4H367.1L367.7 292.1L368.4 291.1V290.4L367.6 288.3L367.4 286.4L367.8 283.4V282L367.6 281.3H367.1L364.5 282.6L363.7 282.9L363 282.7L361.2 281.5L359.2 280.9L358.7 280.4L358.3 279.6L358 278.1L357.7 277.2L357.3 276.3L356.3 274.5L355.3 272L354 269.2L353.6 268.3L353.4 266.8L353.5 265.7L354 263.1L353.9 261.9L353.7 260.8L353.4 260.3L352.8 260L350.7 259.1L350 258.6L349.4 258.1L343.8 249.4L341.5 246.6L340.9 246.3L339.3 246.1L338.3 245.8L337.1 245.2L335.8 244.4L334.7 243.4L333.7 242.3L333 241.2L332.3 239.7V238.5L332.5 234.8L332.3 233.2L331.5 231.2L330.2 228.8L330.1 228.1L330.3 227.5L330.7 227.2L332.6 226.2L333.4 225.2L334.5 224.4L335.2 223.5L335.3 223L335 221.8L334.9 221V220.1L335.2 219.2L335.7 218.6L336.4 218.2L337.1 218.1L338.2 218.4L342.1 220.5L344.3 221.3L347.3 221.8L353 221.4L353.9 221.8L354.9 222.7L355.8 223.2L356.8 223.6L358.3 223.5L359.4 223.1L360.3 222.4L360.9 221.6L361.3 220.7L361.6 220.5L362.5 220.3L364.9 220.1L368.1 220.3L369 220.6L369.8 221.2L371 222.4L371.6 223.2L372.2 224.5L372.7 224.9L373.3 225.1L374.5 224.9L375.8 224.3L379 221.6L380.1 221.2L390.8 219.4L391.6 219.6L392.4 220L393.7 221.9L394.4 223.1L394.9 223.5L395.7 223.9L399.8 224.3L407.7 223.8L408.9 223.4L409.4 223.2L409.7 222.6L409.8 222L409.7 220.7L409.2 218.8L409.1 217.6L409.3 217.1L412.6 214.5L413.6 214.6L421.1 216.7L426.8 215.3L427.6 215.5L428.6 216L430 217.3L430.6 218.2L430.9 219L430.6 220.2L427.8 224.3L427.6 224.8L427.7 225.3L428 225.9L430.7 228.1L431.6 229.1L433.5 232.1L434 233.2L434.4 234.4L434.6 237.2L434.9 237.8L435.5 238.2L437.6 238.4L443.2 237.8L444 237.9L444.8 238.3L445.8 239.3L446.8 240.6L447.4 241.8L447.7 242.2L455.8 249.1L456.2 249.6L456.4 250.9L455.7 253.8L455.6 254.5L455.8 255.2L456.6 255.7L466.7 257.4L472.1 260.9L473.2 262L473.8 262.9L473.7 264.4L473.3 265.8L472.8 267.1L472.3 268.2L472.4 269.1L473 270.1L474.5 271.8L474.9 272.8L475 273.6L475.4 274.6L476.3 275.6L478.8 277.8L479.5 278.9L479.8 279.7L480.5 280.4L486.5 282.2L488.3 282.3L489.5 282.1L489.9 281.7L491.7 279.3L492.2 279H492.8L493.5 279.1L494.8 279.6L495.3 280.1L495.7 280.9V281.7L495.8 284L496.1 284.5L496.5 285L498.1 284.8L509.5 281.3L510.2 281.4L515 282.7L515.9 282.5L516.7 282.2L517.1 281.8L519.4 280.1L521.7 279.2L526.8 278.2L529.7 278.5L530.5 278.8L531.2 279.4L532.6 281L533.2 282L533.8 283.4L534.6 285L535.3 285.9L536.1 286.8L539.7 288.9L540.9 290.2L541.5 291.1L541.9 292.5L542.3 293.6L543.1 294.3L547.1 296.4L549 296.5L550 296.2L550.4 295.6L553.6 286.4L553.8 285.7L554.6 283.8L555.6 280.4L556.3 279.3L556.8 279L565.1 276.4H565.7L566.2 276.6L566.7 277.5L567.2 278.9L567.5 280.1L567.7 280.7L568.1 281L568.9 280.9L569.9 280.2L572.1 277.3L572.5 276.9L573.1 277.1L573.9 277.8L575.2 279.9L575.4 281V281.9L573.9 284.7L573.6 286.1L573.7 287.5L574.2 289.3L574.7 289.9L575.4 290.6L581.7 292.9H582.3L582.9 292.8L583.8 292.1L585 290.8L585.5 290.5H586.2L590.8 291.1L591.5 291.3L592.1 291.6L592.5 293.3V294.8L592.9 295.4L593.9 295.5L595.3 295.3L596.5 295L597.3 294.1L598.3 292.4L598.6 291.3L598.4 290.8L596.6 288.5L596.3 287.4L596.7 286.1L597.1 284.1L597.4 283.5L597.8 283.2L598.4 283.1L611.9 285.6H614.8L616.7 285.1L617.6 284.5L618 284.1L619.5 281.2L620.3 280.3L622.4 279.2L624.7 278.3L625.5 278.5L625.3 278.9L624.4 279.8L624.1 280.3L624 280.8L624.2 281.4L624.8 281.9L625.5 282.1L626.1 282L628.5 281.3L630.7 280.3L631.9 280L632.7 280.6L633.3 281.8L633.9 284.8L634.1 286.4V287.6L634 289.2L634.2 290.4L634.7 290.6L638.2 290.7L639.4 290.9L641.6 292.1L642.2 292.2L642.7 292L645.4 289.8L646.4 289.2L647.5 288.7H648.2L649.6 288.9L652.1 289.9L655.1 290.5H655.7L656.7 289.9L657.4 288.8L657.6 287.3L657.5 285.2L657.6 284.6L657.9 284.3L658.5 284.2L659.9 284.6L660.5 285.3L661.1 286.3L661.8 290.2V291.2L661.4 291.9L657.9 295.1L656.3 296.9L656.1 297.5V298.1L656.4 298.8L657.9 300.7L658.1 301.4V302.2L657.6 303.3L656.8 304.6L655.7 306L654.8 307.8L653.5 322.8L652.8 326.1L652.1 328L651.5 328.1L651 328.6L650.7 329.3L650.4 330.6L650 331.4L649.6 332L648.9 332.7L648.8 333.3L649.8 334.3L651 335.4L653.1 338.8L653.3 339.4L653.2 340.2L652.8 341.3L652.4 342L651.9 342.5L648.8 345.2L648.2 346.2L647.9 347.5L647.6 351.3L647.7 352.1L647.9 352.9L649 354.4L649.8 354.7H650.5L653.8 353.6V353.6ZM488.8 391.9L486 391L483.1 393.7L480.2 395.4L476 396.8H473.4L469.3 395.2L468.2 395L464.8 393.7L460.6 392.8L454.1 391.9L447.6 393.2L444.2 395.4L441.8 401.2L440.8 408.8L440.3 413.6V419L441.6 423.8L445.7 424.7L451.5 427.4L455.4 428.7L457.2 432.2L459.6 433.1L462.5 429.6L469.5 428.7L473.4 428.3L476 429.2L481 429.6L485.4 428.7L488.3 424.3L487.3 419.9L483.9 417.2L482.6 411.4L483.1 407L486 401.7L489.1 398.1L488.8 391.9V391.9Z" fill="#006204" stroke="white" stroke-linecap="round" stroke-linejoin="round"/>
  <path d="M488.797 391.9L489.097 398.1L485.997 401.7L483.097 407L482.597 411.4L483.897 417.2L487.297 419.9L488.297 424.3L485.397 428.7L480.997 429.6L475.997 429.2L473.397 428.3L469.497 428.7L462.497 429.6L459.597 433.1L457.197 432.2L455.397 428.7L451.497 427.4L445.697 424.7L441.597 423.8L440.297 419V413.6L440.797 408.8L441.797 401.2L444.197 395.4L447.597 393.2L454.097 391.9L460.597 392.8L464.797 393.7L468.197 395L469.297 395.2L473.397 396.8H475.997L480.197 395.4L483.097 393.7L485.997 391L488.797 391.9V391.9Z" fill="#006204" stroke="white" stroke-linecap="round" stroke-linejoin="round"/>
</svg>
