<svg width="31" height="31" viewBox="0 0 31 31" fill="none" xmlns="http://www.w3.org/2000/svg">
  <path d="M27.9948 23.9648C27.1644 23.2246 26.4374 22.3759 25.8334 21.4418C25.174 20.1523 24.7788 18.7441 24.6709 17.2998V13.0459C24.6766 10.7774 23.8537 8.58492 22.3569 6.88035C20.86 5.17578 18.7922 4.07647 16.542 3.78898V2.67815C16.542 2.37326 16.4209 2.08086 16.2053 1.86527C15.9897 1.64968 15.6973 1.52856 15.3924 1.52856C15.0875 1.52856 14.7951 1.64968 14.5796 1.86527C14.364 2.08086 14.2429 2.37326 14.2429 2.67815V3.8062C12.0128 4.11442 9.97 5.22037 8.49281 6.91921C7.01562 8.61806 6.20415 10.7947 6.20869 13.0459V17.2998C6.10084 18.7441 5.70561 20.1523 5.04619 21.4418C4.45278 22.3738 3.73747 23.2223 2.91924 23.9648C2.82739 24.0455 2.75377 24.1448 2.70329 24.2562C2.65281 24.3676 2.62662 24.4884 2.62646 24.6106V25.7818C2.62646 26.0101 2.71719 26.2292 2.87868 26.3907C3.04017 26.5521 3.2592 26.6429 3.48758 26.6429H27.4265C27.6548 26.6429 27.8739 26.5521 28.0354 26.3907C28.1969 26.2292 28.2876 26.0101 28.2876 25.7818V24.6106C28.2874 24.4884 28.2612 24.3676 28.2108 24.2562C28.1603 24.1448 28.0867 24.0455 27.9948 23.9648ZM4.41758 24.9206C5.21876 24.1467 5.92417 23.2794 6.51869 22.3373C7.34933 20.78 7.83398 19.0617 7.93952 17.2998V13.0459C7.90537 12.0367 8.07465 11.031 8.43728 10.0886C8.79991 9.14618 9.34848 8.28638 10.0503 7.56039C10.7522 6.8344 11.5929 6.25707 12.5225 5.86277C13.4521 5.46848 14.4516 5.26528 15.4613 5.26528C16.4711 5.26528 17.4705 5.46848 18.4001 5.86277C19.3297 6.25707 20.1705 6.8344 20.8723 7.56039C21.5742 8.28638 22.1227 9.14618 22.4854 10.0886C22.848 11.031 23.0173 12.0367 22.9831 13.0459V17.2998C23.0887 19.0617 23.5733 20.78 24.404 22.3373C24.9985 23.2794 25.7039 24.1467 26.5051 24.9206H4.41758Z" fill="black"/>
  <path d="M15.5002 29.519C16.0426 29.5065 16.5632 29.3026 16.9697 28.9433C17.3763 28.584 17.6427 28.0925 17.7218 27.5557H13.1924C13.2737 28.107 13.5526 28.6101 13.9771 28.9713C14.4016 29.3324 14.9429 29.5271 15.5002 29.519V29.519Z" fill="black"/>
</svg>
