<svg width="58" height="58" viewBox="0 0 58 58" fill="none" xmlns="http://www.w3.org/2000/svg">
<path d="M18.7823 5.8942L21.3827 5.06286C23.8235 4.2847 26.4263 5.54378 27.4727 8.00395L29.5486 12.9049C30.4524 15.0389 29.9522 17.5498 28.3064 19.1109L23.7293 23.4561C24.0096 26.0564 24.8844 28.6157 26.3489 31.1339C27.7404 33.5704 29.6067 35.7029 31.8372 37.4051L37.3351 35.5685C39.4207 34.8749 41.6899 35.6748 42.9659 37.5525L45.9457 41.9267C47.4319 44.1114 47.1661 47.1225 45.3222 48.9737L43.3453 50.9578C41.3782 52.9322 38.5676 53.6499 35.9697 52.8379C29.8338 50.9239 24.1933 45.2424 19.0458 35.7932C13.891 26.3295 12.0713 18.2965 13.5889 11.7039C14.2269 8.92953 16.2013 6.71828 18.7823 5.8942Z" fill="#009247"/>
</svg>
