<svg width="1623" height="922" viewBox="0 0 1623 922" fill="none" xmlns="http://www.w3.org/2000/svg">
<rect width="1623" height="922" rx="30" fill="url(#paint0_linear_441_121)"/>
<path d="M249.405 452.572H242.536C242.271 451.105 241.78 449.813 241.06 448.697C240.341 447.582 239.46 446.635 238.418 445.857C237.376 445.079 236.209 444.492 234.918 444.096C233.641 443.7 232.283 443.501 230.844 443.501C228.246 443.501 225.92 444.155 223.865 445.461C221.825 446.767 220.21 448.683 219.021 451.207C217.847 453.732 217.26 456.814 217.26 460.455C217.26 464.124 217.847 467.221 219.021 469.746C220.21 472.27 221.832 474.179 223.887 475.47C225.942 476.762 228.254 477.408 230.822 477.408C232.246 477.408 233.597 477.217 234.874 476.835C236.165 476.439 237.332 475.859 238.374 475.096C239.416 474.333 240.297 473.401 241.016 472.3C241.75 471.184 242.257 469.907 242.536 468.469L249.405 468.491C249.038 470.707 248.326 472.747 247.269 474.612C246.227 476.461 244.884 478.061 243.24 479.411C241.611 480.747 239.747 481.782 237.648 482.516C235.549 483.25 233.259 483.616 230.778 483.616C226.874 483.616 223.395 482.692 220.342 480.842C217.289 478.978 214.882 476.314 213.121 472.85C211.374 469.386 210.501 465.254 210.501 460.455C210.501 455.64 211.381 451.508 213.143 448.059C214.904 444.595 217.311 441.938 220.364 440.089C223.417 438.225 226.889 437.293 230.778 437.293C233.171 437.293 235.402 437.638 237.472 438.327C239.556 439.003 241.427 440.001 243.086 441.322C244.745 442.628 246.117 444.228 247.203 446.121C248.289 448 249.023 450.151 249.405 452.572ZM255.322 443.766V437.909H290.219V443.766H276.15V483H269.369V443.766H255.322ZM297.93 483V437.909H314.003C317.511 437.909 320.417 438.548 322.722 439.825C325.026 441.102 326.751 442.848 327.896 445.065C329.04 447.266 329.613 449.747 329.613 452.506C329.613 455.281 329.033 457.776 327.874 459.992C326.729 462.194 324.997 463.941 322.678 465.232C320.373 466.509 317.474 467.148 313.981 467.148H302.928V461.379H313.364C315.581 461.379 317.379 460.998 318.759 460.234C320.138 459.456 321.151 458.4 321.797 457.064C322.443 455.728 322.766 454.209 322.766 452.506C322.766 450.804 322.443 449.292 321.797 447.971C321.151 446.65 320.131 445.615 318.737 444.866C317.357 444.118 315.537 443.744 313.276 443.744H304.734V483H297.93ZM336.614 483H329.393L345.619 437.909H353.479L369.706 483H362.484L349.737 446.099H349.384L336.614 483ZM337.825 465.342H361.251V471.067H337.825V465.342ZM376.218 483V437.909H383.021V457.504H405.5V437.909H412.325V483H405.5V463.339H383.021V483H376.218ZM422.233 437.909H428.97V471.023H429.389L452.33 437.909H458.627V483H451.824V449.93H451.406L428.508 483H422.233V437.909ZM508.556 476.989L507.962 493.656H501.181V483H498.01V476.989H508.556ZM468.551 483V437.909H475.069V477.099H496.821V437.909H503.36V483H468.551ZM519.829 483H512.608L528.834 437.909H536.694L552.921 483H545.699L532.951 446.099H532.599L519.829 483ZM521.04 465.342H544.466V471.067H521.04V465.342ZM575.841 483V437.909H592.353C595.553 437.909 598.203 438.437 600.301 439.494C602.4 440.536 603.971 441.953 605.013 443.744C606.055 445.52 606.576 447.523 606.576 449.754C606.576 451.633 606.231 453.218 605.542 454.51C604.852 455.787 603.927 456.814 602.767 457.592C601.623 458.356 600.36 458.913 598.98 459.266V459.706C600.478 459.779 601.938 460.264 603.362 461.159C604.8 462.04 605.989 463.295 606.929 464.924C607.868 466.553 608.338 468.535 608.338 470.869C608.338 473.173 607.795 475.243 606.708 477.077C605.637 478.897 603.978 480.343 601.733 481.415C599.487 482.472 596.617 483 593.124 483H575.841ZM582.644 477.165H592.463C595.722 477.165 598.056 476.534 599.465 475.272C600.874 474.01 601.578 472.432 601.578 470.538C601.578 469.115 601.219 467.808 600.5 466.619C599.78 465.43 598.753 464.484 597.417 463.779C596.096 463.075 594.526 462.722 592.706 462.722H582.644V477.165ZM582.644 457.416H591.759C593.285 457.416 594.658 457.123 595.876 456.536C597.109 455.948 598.085 455.126 598.804 454.07C599.538 452.998 599.905 451.736 599.905 450.283C599.905 448.419 599.252 446.855 597.946 445.593C596.639 444.331 594.636 443.7 591.935 443.7H582.644V457.416ZM616.407 483V437.909H632.479C635.987 437.909 638.894 438.548 641.198 439.825C643.503 441.102 645.227 442.848 646.372 445.065C647.517 447.266 648.089 449.747 648.089 452.506C648.089 455.281 647.51 457.776 646.35 459.992C645.205 462.194 643.473 463.941 641.154 465.232C638.85 466.509 635.951 467.148 632.457 467.148H621.405V461.379H631.841C634.057 461.379 635.855 460.998 637.235 460.234C638.615 459.456 639.628 458.4 640.273 457.064C640.919 455.728 641.242 454.209 641.242 452.506C641.242 450.804 640.919 449.292 640.273 447.971C639.628 446.65 638.607 445.615 637.213 444.866C635.833 444.118 634.013 443.744 631.753 443.744H623.21V483H616.407ZM656.065 483V437.909H684.335V443.766H662.868V457.504H682.86V463.339H662.868V477.143H684.599V483H656.065ZM693.423 437.909H701.679L716.034 472.96H716.562L730.918 437.909H739.174V483H732.701V450.371H732.283L718.984 482.934H713.612L700.314 450.349H699.896V483H693.423V437.909ZM749.065 483V437.909H777.335V443.766H755.868V457.504H775.86V463.339H755.868V477.143H777.599V483H749.065ZM786.423 483V437.909H793.226V457.504H815.705V437.909H822.531V483H815.705V463.339H793.226V483H786.423ZM832.438 483V437.909H839.241V457.504H861.721V437.909H868.546V483H861.721V463.339H839.241V483H832.438ZM917.622 460.455C917.622 465.269 916.741 469.408 914.98 472.872C913.219 476.321 910.804 478.978 907.737 480.842C904.683 482.692 901.212 483.616 897.322 483.616C893.418 483.616 889.932 482.692 886.864 480.842C883.811 478.978 881.404 476.314 879.643 472.85C877.881 469.386 877.001 465.254 877.001 460.455C877.001 455.64 877.881 451.508 879.643 448.059C881.404 444.595 883.811 441.938 886.864 440.089C889.932 438.225 893.418 437.293 897.322 437.293C901.212 437.293 904.683 438.225 907.737 440.089C910.804 441.938 913.219 444.595 914.98 448.059C916.741 451.508 917.622 455.64 917.622 460.455ZM910.885 460.455C910.885 456.785 910.29 453.695 909.102 451.185C907.927 448.661 906.313 446.753 904.258 445.461C902.218 444.155 899.906 443.501 897.322 443.501C894.724 443.501 892.405 444.155 890.365 445.461C888.325 446.753 886.71 448.661 885.521 451.185C884.347 453.695 883.76 456.785 883.76 460.455C883.76 464.124 884.347 467.221 885.521 469.746C886.71 472.256 888.325 474.164 890.365 475.47C892.405 476.762 894.724 477.408 897.322 477.408C899.906 477.408 902.218 476.762 904.258 475.47C906.313 474.164 907.927 472.256 909.102 469.746C910.29 467.221 910.885 464.124 910.885 460.455ZM942.512 483V437.909H949.316V457.504H971.795V437.909H978.62V483H971.795V463.339H949.316V483H942.512ZM988.528 483V437.909H1016.8V443.766H995.331V457.504H1015.32V463.339H995.331V477.143H1017.06V483H988.528ZM1042.29 483V437.909H1058.37C1061.87 437.909 1064.78 438.548 1067.08 439.825C1069.39 441.102 1071.11 442.848 1072.26 445.065C1073.4 447.266 1073.98 449.747 1073.98 452.506C1073.98 455.281 1073.4 457.776 1072.24 459.992C1071.09 462.194 1069.36 463.941 1067.04 465.232C1064.74 466.509 1061.84 467.148 1058.34 467.148H1047.29V461.379H1057.73C1059.94 461.379 1061.74 460.998 1063.12 460.234C1064.5 459.456 1065.51 458.4 1066.16 457.064C1066.81 455.728 1067.13 454.209 1067.13 452.506C1067.13 450.804 1066.81 449.292 1066.16 447.971C1065.51 446.65 1064.49 445.615 1063.1 444.866C1061.72 444.118 1059.9 443.744 1057.64 443.744H1049.1V483H1042.29ZM1080.98 483H1073.76L1089.98 437.909H1097.84L1114.07 483H1106.85L1094.1 446.099H1093.75L1080.98 483ZM1082.19 465.342H1105.61V471.067H1082.19V465.342ZM1120.58 483V437.909H1148.7V443.766H1127.38V456.095H1137.47C1140.81 456.095 1143.65 456.638 1145.99 457.724C1148.34 458.811 1150.13 460.344 1151.36 462.326C1152.61 464.308 1153.23 466.641 1153.23 469.327C1153.23 472.013 1152.61 474.384 1151.36 476.439C1150.13 478.494 1148.34 480.101 1145.99 481.261C1143.65 482.42 1140.81 483 1137.47 483H1120.58ZM1127.38 477.276H1137.47C1139.41 477.276 1141.04 476.894 1142.38 476.131C1143.73 475.367 1144.75 474.377 1145.44 473.158C1146.14 471.94 1146.49 470.634 1146.49 469.239C1146.49 467.214 1145.72 465.474 1144.16 464.021C1142.61 462.554 1140.37 461.82 1137.47 461.82H1127.38V477.276ZM1200.44 460.455C1200.44 465.269 1199.56 469.408 1197.79 472.872C1196.03 476.321 1193.62 478.978 1190.55 480.842C1187.5 482.692 1184.03 483.616 1180.14 483.616C1176.23 483.616 1172.75 482.692 1169.68 480.842C1166.63 478.978 1164.22 476.314 1162.46 472.85C1160.7 469.386 1159.82 465.254 1159.82 460.455C1159.82 455.64 1160.7 451.508 1162.46 448.059C1164.22 444.595 1166.63 441.938 1169.68 440.089C1172.75 438.225 1176.23 437.293 1180.14 437.293C1184.03 437.293 1187.5 438.225 1190.55 440.089C1193.62 441.938 1196.03 444.595 1197.79 448.059C1199.56 451.508 1200.44 455.64 1200.44 460.455ZM1193.7 460.455C1193.7 456.785 1193.1 453.695 1191.92 451.185C1190.74 448.661 1189.13 446.753 1187.07 445.461C1185.03 444.155 1182.72 443.501 1180.14 443.501C1177.54 443.501 1175.22 444.155 1173.18 445.461C1171.14 446.753 1169.52 448.661 1168.34 451.185C1167.16 453.695 1166.57 456.785 1166.57 460.455C1166.57 464.124 1167.16 467.221 1168.34 469.746C1169.52 472.256 1171.14 474.164 1173.18 475.47C1175.22 476.762 1177.54 477.408 1180.14 477.408C1182.72 477.408 1185.03 476.762 1187.07 475.47C1189.13 474.164 1190.74 472.256 1191.92 469.746C1193.1 467.221 1193.7 464.124 1193.7 460.455ZM1204.76 443.766V437.909H1239.65V443.766H1225.59V483H1218.8V443.766H1204.76ZM1245.85 483H1238.63L1254.85 437.909H1262.71L1278.94 483H1271.72L1258.97 446.099H1258.62L1245.85 483ZM1247.06 465.342H1270.48V471.067H1247.06V465.342ZM1285.45 483V437.909H1313.72V443.766H1292.25V457.504H1312.24V463.339H1292.25V477.143H1313.98V483H1285.45ZM1320.58 443.766V437.909H1355.48V443.766H1341.41V483H1334.63V443.766H1320.58ZM1383.41 477.408C1382.21 477.408 1381.17 476.982 1380.3 476.131C1379.44 475.265 1379.01 474.223 1379.01 473.004C1379.01 471.801 1379.44 470.773 1380.3 469.922C1381.17 469.056 1382.21 468.623 1383.41 468.623C1384.61 468.623 1385.65 469.056 1386.51 469.922C1387.38 470.773 1387.81 471.801 1387.81 473.004C1387.81 473.812 1387.61 474.553 1387.2 475.228C1386.8 475.888 1386.27 476.417 1385.61 476.813C1384.95 477.21 1384.22 477.408 1383.41 477.408ZM1383.41 454.818C1382.21 454.818 1381.17 454.393 1380.3 453.541C1379.44 452.675 1379.01 451.633 1379.01 450.415C1379.01 449.211 1379.44 448.184 1380.3 447.332C1381.17 446.466 1382.21 446.033 1383.41 446.033C1384.61 446.033 1385.65 446.466 1386.51 447.332C1387.38 448.184 1387.81 449.211 1387.81 450.415C1387.81 451.222 1387.61 451.963 1387.2 452.638C1386.8 453.299 1386.27 453.827 1385.61 454.224C1384.95 454.62 1384.22 454.818 1383.41 454.818ZM1398.55 460.455C1398.55 454.936 1399.27 449.857 1400.73 445.219C1402.18 440.58 1404.3 436.302 1407.09 432.383H1413.12C1412.04 433.836 1411.02 435.619 1410.08 437.733C1409.14 439.847 1408.32 442.166 1407.62 444.69C1406.91 447.2 1406.36 449.806 1405.97 452.506C1405.57 455.192 1405.37 457.842 1405.37 460.455C1405.37 463.948 1405.72 467.485 1406.41 471.067C1407.1 474.648 1408.03 477.973 1409.2 481.04C1410.38 484.108 1411.68 486.611 1413.12 488.548H1407.09C1404.3 484.629 1402.18 480.351 1400.73 475.712C1399.27 471.074 1398.55 465.988 1398.55 460.455Z" fill="white"/>
<defs>
<linearGradient id="paint0_linear_441_121" x1="1623" y1="16" x2="-0.000100348" y2="881" gradientUnits="userSpaceOnUse">
<stop stop-color="#009247"/>
<stop offset="1" stop-color="#009247"/>
</linearGradient>
</defs>
</svg>
