<svg width="1612" height="885" viewBox="0 0 1612 885" fill="none" xmlns="http://www.w3.org/2000/svg">
  <path d="M772.501 203.211L778.864 203.597L782.218 210.631L788.113 208.008L795.635 206.849L795.919 213.111H808.584L812.589 215.265L816.959 215.814L819.48 214.371L827.835 217.339L827.388 203.739L836.169 203.495L838.487 206.382L844.118 208.659L848.285 212.48L849.362 213.09L851.66 210.813L850.643 209.39L851.843 207.297L853.408 208.496L858.348 203.109L857.9 201.178L855.481 200.202L854.607 195.771L860.36 195.893L861.905 192.457L863.592 191.481L867.943 192.071L868.939 188.859L870.036 188.676L870.789 184.895L873.614 183.187L875.261 183.025L875.932 180.606L877.294 180.707L879.042 178.918L880.119 179.284L883.494 177.597L880.14 173.775L882.315 174.223L880.444 167.738L886.523 162.127L884.205 158.915L885.608 158.468L885.75 155.703L885.059 153.447L882.315 153.223L882.823 148.548L878.412 148.202L877.172 145.621L874.996 144.889L874.814 142.653L871.968 138.526L873.167 136.676L874.834 136.514L875.972 136.046L876.054 134.379L878.066 132.854L879.103 134.054L880.322 131.635L878.391 131.757L878.269 128.403L884.083 128.565L884.978 127.508L883.921 126.309L884.246 125.211L882.945 123.158L885.994 123.382L886.34 121.735L890.222 122.02L890.405 124.012L895.975 123.605L895.853 120.21L899.736 120.515L899.858 123.341L902.338 123.829L902.806 125.536L904.452 125.963L905.164 128.26L905.265 131.35L907.989 132.123L909.27 129.155L907.074 128.687L906.404 125.557L908.071 125.394L908.802 122.081L910.998 122.548L911.933 120.658L913.864 120.536L915.348 118.95L923.927 119.092L924.313 122.223L926.488 122.975L926.935 129.744L925.98 131.899L927.321 132.57L928.216 131.249L933.115 132.489L935.941 131.33L936.286 134.989L934.579 135.965L935.026 137.693L933.359 137.835L933.522 139.786L932.343 140.823L940.067 140.62L940.677 139.563L942.059 139.664L942.263 140.803L946.288 145.885L946.877 149.015L950.719 148.507L949.987 143.71L953.565 143.181L954.521 137.672L971.21 137.205L971.048 139.156L971.576 139.197L970.987 143.059L977.37 144.198L977.797 145.377L981.293 145.417L982.777 143.872L983.875 143.689L984.81 142.388L987.27 142.043L988.591 139.38L992.616 139.482L992.372 141.982L1000.56 150.886L998.979 153.264L997.698 157.899L998.958 161.375L996.438 162.513L996.478 164.75L998.389 166.904L998.918 169.466L1010.44 170.909L1019.79 170.198L1021.64 165.359L1029.27 163.672L1030.96 165.258L1034.63 163.428L1038.9 163.388L1040.18 161.558L1041.53 161.436L1042.36 163.53L1042.38 168.348L1044.05 170.238L1045.14 181.927L1050.21 179.772L1057.77 183.614L1063.13 183.492L1063.62 186.094L1066.57 185.952L1069.4 191.38L1084.68 192.518L1084.8 193.656L1086.88 193.961L1087.79 234.537L1088.63 236.305L1086.21 236.773L1080.66 241.143L1079.42 242.607L1079.21 254.58L1086.45 251.023L1088.46 255.678L1093.12 256.105L1096.98 258.321L1096.01 259.805L1093.89 260.028L1092.35 261.959L1088.32 260.821L1079.52 266.574L1078.93 271.087L1074.66 276.128L1067.89 274.116L1065.33 278.059L1064.19 274.685L1063.11 275.071L1063.74 276.23L1060.51 277.145L1059.43 275.376L1057.52 276.189L1056.87 279.34L1058.6 280.113L1061.04 285.54L1060.63 286.821L1062.06 287.817L1064.17 283.284L1066.2 283.568L1071.35 285.886L1065.47 291.496L1054.98 294.891L1056.39 298.286L1054.19 299.323L1050.8 299.668L1049.19 302.392L1042.81 299.689L1040.49 303.917L1038.92 304.263L1038.54 305.279L1039.68 306.478L1037.01 309.589L1031.3 309.934L1031.06 312.028L1029.61 311.316L1027.6 313.187L1028.72 314.65L1025.85 317.191L1030.14 320.098L1026.87 321.806L1022.34 318.879L1020.77 321.318L1017.84 322.294L1018.72 328.189L1016.07 328.921L1016.62 330.832L1011.68 327.071L1003.39 327.945L1002.41 329.937L999.954 329.124L1003.57 324.022L1002.86 321.054L1004.06 319.346L1003.69 317.984L1002.5 317.313L1005.2 313.675L1000.73 309.711L997.881 309.914L997.352 307.739L994.669 308.755L994.1 306.844L992.27 307.17L992.352 308.755L986.436 311.276L985.318 317.212L982.492 317.171L981.212 319.671L977.675 319.285L974.585 321.847L975.418 323.757L970.194 327.416L967.389 327.376L966.779 328.352L964.177 328.88L963.668 341.89L960.822 336.91L952.305 340.732L954.765 346.972L953.504 349.452L949.134 350.042L943.462 353.66L940.271 355.165L937.831 353.904L937.994 349.493L941.511 344.37L940.677 342.48L938.827 343.09L937.628 339.593L925.329 343.151L923.561 342.988L922.219 343.659L920.471 343.232L918.133 343.801L919.089 338.699L916.791 338.495L915.633 337.093L914.149 333.556L913.112 333.739L911.913 335.71L911.181 332.255L905.814 335.182L907.217 339.735L903.964 341.789L902.196 341.646L901.037 340.244L900.63 342.033L901.789 343.435L901.301 346.24L900.265 346.403L898.577 344.98L893.495 347.663L888.372 344.391L886.075 344.208L885.425 342.602L882.254 343.638L880.892 341.199L883.717 338.048L885.364 330.364L887.112 327.64L886.238 322.334L888.149 321.176L888.698 307.332L876.44 307.678L875.22 309.934L870.402 311.662L861.824 318.106L858.104 315.199L852.513 316.378L850.176 315.951L852.818 319.529L853.103 322.965L848.407 326.542L831.189 328.778L821.879 334.694L816.268 326.014L820.659 323.412L818.077 316.988L814.682 315.748L804.905 318.594L794.374 314.854L791.244 312.597L786.345 313.898L784.292 305.645L781.263 307.068L779.962 305.95L778.051 306.885L778.132 304.527L776.75 305.767L776.852 303.145L776.404 300.746L769.005 296.396L766.545 304.425L758.678 305.32L757.174 302.087L759.776 289.809L751.36 281.658L753.596 279.645L750.201 275.213L755.832 270.192L753.962 268.749L757.296 259.052L753.698 251.592L748.758 251.328L746.766 244.477L753.637 245.148L764.004 239.822L765.63 232.646L767.379 222.462L772.217 218.416L772.501 203.211Z" fill="#035F38" stroke="white"/>
  <path d="M495.037 590.119L491.663 591.908L487.536 592.782L485.585 594.083L483.837 596.482L481.885 600.608L480.36 604.959L480.137 608.862L478.409 609.736L477.108 611.911L477.006 613.598L460.906 618.152L403.906 636.183L398.234 594.367L394.677 584.508L391.424 578.146L392.156 575.747L387.501 569.73L387.013 562.208L363.818 555.296L355.789 551.963L343.937 540.03L341.478 530.476L335.582 523.036L338.693 499.231L340.197 489.982L337.514 485.408L336.639 474.41L330.48 467.519L331.903 462.112L329.707 452.679L328.203 450.118L329.504 440.686L330.663 439.771L330.48 430.237L323.385 429.627L323.365 427.106L320.397 424.952L319.096 427.147L316.514 426.476L316.636 429.993L315.661 435.177L311.351 434.75L308.973 433.55L299.561 432.554L301.146 428.529L299.459 424.687L300.597 421.231L297.853 407.307L295.78 406.819L293.991 411.413L291.572 410.214L292.161 408.608L287.364 406.433L284.233 403.546L283.867 397.915L286.469 389.031L285.087 385.86L287.547 387.08L289.153 382.974L292.202 380.229L296.064 380.25L296.776 377.302L301.654 377.2L305.029 377.81L308.912 375.513L307.997 373.826L310.741 370.37L311.575 368.195H315.945L313.628 365.369L317.429 358.681L317.287 356.872L319.055 353.294L318.547 350.204L315.884 348.944L315.762 347.379L313.892 346.81L313.75 341.585L314.482 337.296L311.514 333.169L315.722 328.697L315.051 326.929L320.031 320.993L319.421 320.119L320.641 320.932L321.373 320.667L323.67 317.069L325.093 316.277L325.865 314.976L325.215 312.191L323.629 308.552L322.979 304.039L324.178 301.498L324.991 298.815L326.17 299.241L327.126 299.119L328.488 299.872L329.138 299.851L329.646 299.485L329.992 299.811L330.195 300.99L331.11 301.274L331.761 302.291L332.594 301.965L332.533 300.766L333.448 300.542L333.692 299.994L334.342 300.055L334.668 299.587L335.664 299.506L336.172 299.75L337.127 298.53L336.924 297.29L338.611 296.456L339.892 297.209L340.624 298.083L340.827 299.546L340.563 300.258L339.282 301.864L338.977 302.657L339.282 303.429L340.4 304.445L342.291 305.645L350.564 313.39L351.276 313.675L352.495 312.516L355.707 312.699L356.52 314.61L359.062 315.931L363.127 319.082L363.879 319.102L364.733 318.391L365.526 316.541L368.697 314.691L370.649 314.122L374.958 311.825L377.032 309.893L379.268 308.267L380.752 307.698L381.26 307.149L381.463 306.478L381.219 304.486L381.321 302.433L382.866 297.31L383.496 296.416L384.309 296.131L387.602 297.818L390.021 297.839L391.14 296.843L391.566 294.098L392.136 293.814L393.965 294.2L394.677 293.712L394.9 292.736L394.311 290.094L394.29 288.203L395.612 286.699L395.815 286.638L396.811 287.898L397.157 289.179L399.251 290.317L401.121 292.858L402.991 292.96L404.861 293.976L405.349 293.57L405.654 291.883L404.861 289.707L404.495 287.492L404.739 287.309L407.036 287.248L407.829 286.963L408.805 287.085L410.838 288.711L411.651 288.874L413.785 287.512L414.537 287.878L415.391 288.772L416.347 288.976L420.351 287.471L422.689 286.252L423.441 287.105L424.132 289.504L425.413 290.521L426.938 291.151L427.954 292.858L428.035 295.034L429.255 296.619L432.833 299.058L435.557 299.851L436.228 299.607L436.35 299.16L435.801 297.818L435.963 297.331L439.236 295.765L441.249 295.786L442.326 297.778L443.993 297.046L444.603 294.83L444.867 286.923L445.192 284.097L446.148 283.609L447.713 283.487L448.628 284.91L449.848 285.804L450.478 285.703L450.966 285.073L451.982 284.829L452.714 286.292L454.442 286.252L454.95 287.004L456.881 285.195L457.45 285.134L458.406 284.32L458.853 285.012L458.69 286.353L459.056 287.268L462.024 287.959L462.248 287.756L462.004 287.085L462.187 286.536L463.224 286.292L463.63 285.743L463.346 283.934L464.301 283.487L464.972 282.796L465.297 282.979L465.643 282.613L465.968 282.816L466.415 282.145L467.757 282.694L468.977 286.536L469.546 287.309L470.562 287.492L472.859 286.963L474.831 287.187L476.417 287.512L477.189 288.406L478.714 291.578L478.632 292.431L477.819 293.529L477.23 295.908L477.514 299.994L478.511 303.023L479.425 303.571L480.645 303.693L484.101 302.392L485.625 302.514L486.093 303.185L485.625 305.177L485.93 306.499L488.654 307.8L489.467 309.995L490.728 310.971L492.923 311.276L494.631 310.788L495.566 310.849L498.392 311.865L502.925 312.374L503.962 312.8L504.632 313.878L505.384 314.101L506.32 313.309L509.714 314.122L512.398 313.39L513.17 313.41L515.671 316.846V317.334L514.817 317.72L514.715 318.086L514.776 321.826L514.837 322.314L515.284 322.416L518.395 320.83L525.327 319.062L527.176 318.086L529.758 313.776L533.925 302.88L535.104 301.173L536.487 300.603L539.17 300.99L540.939 301.904L541.325 302.474L541.427 305.32L546.244 311.337L547.769 312.191L552.546 312.78L556.835 313.105L560.942 312.882L563.381 313.37L566.43 313.329L570.354 311.926L573.525 311.764L590.052 305.035L590.987 304.242L591.597 302.596L592.776 294.851L596.354 276.799L599.667 275.681L602.289 276.962L605.196 275.681L606.965 272.591L609.73 276.86L610.075 280.865L612.027 287.431L615.239 288.691L617.332 285.764L618.389 284.991L624.244 288.508V290.948L622.923 291.171L621.601 295.745L628.716 302.677L624.244 305.787L625.037 309.284L625.016 313.024L630.546 311.296L634.164 329.714L639.389 338.028L640.181 341.199L648.78 354.047L649.553 357.218L647.642 363.926L641.381 358.783L635.079 364.373L634.51 370.878L628.269 374.68L629.55 381.693L630.83 383.523L626.175 381.917L622.821 386.287L624.874 388.625L632.091 400.842L630.79 401.838L630.017 401.066L624.102 402.021L623.085 404.847L628.208 404.379L631.034 414.157L642.052 425.053L650.589 420.398L654.696 424.057L654.94 426.334L652.317 429.83L653.822 434.933L666.71 439.303L669.007 441.885L675.451 444.324L681.854 448.797L690.372 465.059L697.609 477.724L701.207 479.33L692.445 488.986L645.853 521.552L642.885 522.507L641.157 520.027L629.794 518.258L631.501 514.315L620.605 500.451L615.665 501.203L612.413 495.003L605.664 484.839L581.656 490.368L568.057 526.735L551.53 525.373L550.391 537.895L538.276 538.892L522.359 553.67L519.025 558.874L514.471 563.855L505.791 576.885L495.037 590.119Z" fill="#035F38" stroke="white"/>
  <path d="M1262.32 518.645L1267.04 521.714L1269.01 524.032L1273.99 524.479L1275.92 529.439L1293.51 527.467L1305.91 544.848L1324.71 538.282L1333.15 541.778L1332.99 545.844L1346.5 551.78L1357.99 558.204L1370.27 558.509L1372.48 561.883L1374.35 561.822L1376.57 560.379L1377.73 563.286L1379.01 564.77L1380.78 562.269L1381.94 562.29L1380.45 564.607L1381.77 564.892L1383.16 564.953L1384.54 565.989L1385.82 563.631L1386.75 563.591L1386.02 565.583L1384.03 567.067L1384.58 567.677L1386.31 567.331L1384.9 569.181L1398 584.529L1401.09 596.218L1407.49 603.19L1406.27 611.728L1406.76 614.94L1408.2 616.2L1412.29 614.737L1412.96 615.651L1416.43 617.745L1417.9 619.046L1424.73 620.51L1425.28 621.282L1426.33 625.307L1424.83 632.483L1420.64 638.663L1418.55 637.199L1413.55 632.747L1411.43 632.219L1408.24 632.89L1405.96 633.805L1402.18 636.407L1399.66 636.65L1398.5 635.98L1397.81 633.927L1397.43 633.723L1395.31 634.272L1394.3 633.967L1394.03 631.711L1393.58 630.837L1393.1 628.275L1391.63 627.157L1390.88 625.836L1389.21 624.921L1388.83 625.531L1388.01 625.937L1386.71 625.633L1384.82 627.137L1384.25 628.255L1382.79 628.601L1382.2 629.414L1381.14 630.044L1379.19 630.369L1378.58 629.292L1378.34 629.332L1376.45 631.121L1375.21 630.837L1374.78 630.471L1373.58 631.609L1371.61 631.934L1370.84 631.69L1370.55 632.097L1369.07 632.564L1368.5 633.642L1368.07 633.744L1366.18 633.174L1366.1 633.845L1365.51 634.475L1365.41 635.187L1364.98 635.654L1364.17 635.614L1362.62 636.142L1360.1 636.061L1357.7 638.114L1356.26 638.256L1354.8 637.321L1352.22 636.59L1351.32 635.695L1351.04 635.817L1350.81 637.016L1350.04 637.728L1346.48 639.232L1344.61 638.988L1342.82 639.253L1342.03 638.622L1341.12 638.826L1340.14 639.659L1339.43 641.611L1337.6 642.891H1336.05L1335.26 641.834L1334.73 641.672L1333.62 642.098L1332.13 643.339L1331.2 643.643L1329.47 643.745L1328.49 642.851L1327.13 642.973L1325.81 642.627L1325.48 643.176L1325.97 644.294L1325.85 644.802L1325.26 644.477L1324.67 644.599L1322.39 647.099L1318.39 649.64L1317.76 650.352L1316.74 650.657L1316.3 651.368L1316.74 651.856L1317.8 651.104L1318.67 651.084L1319.98 651.958L1321.01 652.1L1322.17 655.535L1323.78 656.41L1326.97 655.922L1328.23 654.783L1331.2 655.21L1332.6 654.153L1333.6 654.275L1334.21 654.966L1333.98 655.657L1334.33 655.84L1336.01 655.352L1336.95 657.202L1340.2 658.829L1341.6 660.191L1341.81 661.654L1338.43 662.793L1336.83 664.419L1338.51 667.021L1338.01 668.159L1336.95 672.571L1336.1 674.075L1336.91 676.738L1337.68 682.958L1338.47 685.296V689.646L1339.04 693.387L1340.22 696.334L1339.96 697.473L1340.02 698.022L1340.59 698.753L1340.49 700.298L1342.56 704.872L1342.44 706.539L1343.09 709.527L1343.82 710.056L1345.85 714.589L1350.85 727.193L1351.46 728.006L1351.99 729.917L1351.52 731.563L1351.59 732.62L1350.59 733.637L1348.64 737.824L1348.72 738.211L1349.19 738.8L1351.95 738.617L1352.5 738.861L1352.58 740.365L1353.4 741.992L1353.44 743.354L1354.13 745L1353.23 746.667L1351.99 746.769L1351.08 747.541L1350.06 746.931L1348.96 746.728L1345.98 747.582L1342.38 750.55L1338.74 751.587L1337.9 752.542L1337.88 754.229L1338.51 755.408L1339.82 756.689L1341.62 757.868L1345 758.742L1345.87 760.267L1345.77 760.511L1345.34 760.429L1344.23 761.039L1343.78 760.572L1343.62 761.039L1342.93 761.304L1342.28 761.019L1342.01 761.588L1339.12 762.808L1339.14 763.336L1338.27 763.926L1337.66 763.702L1336.6 764.129L1336.58 763.682L1335.49 764.109L1335.28 763.519L1334.92 763.499L1332.76 763.865L1332.64 765.491L1331.99 767.117L1331.2 770.492L1329.79 771.854L1329.18 774.131L1329.59 776.265L1330.85 778.887L1332.03 779.985L1333.11 780.087L1333.53 780.575L1332.78 781.449L1331.12 782.282L1330.87 783.482L1330.81 785.271L1331.64 786.429L1331.58 789.316L1333.43 790.637L1332.96 792.243L1333.92 793.565L1333.57 795.516L1332.27 796.268L1331.54 796.309L1330.83 795.74L1330.36 795.719L1329.22 796.654L1328.61 796.532L1327.56 797.264L1327.25 797.081L1326.99 796.167L1327.31 793.524L1326.58 792.406L1325.93 790.556L1325.02 789.966L1323.47 789.58L1321.89 788.056L1321.24 786.185L1320.67 785.169L1320.2 784.864L1317.84 784.701L1317.47 785.494L1316.95 785.637L1316.64 785.25V784.518L1316.36 784.417L1314.61 784.274L1313.98 783.868L1313.02 784.01L1312.49 783.156L1309.32 782.648L1307.41 783.99L1305.73 783.705L1303.22 783.746L1302.23 782.079L1298.69 779.233L1297.74 777.139L1297.25 776.672L1294.93 774.883L1293.06 774.375L1292.33 773.419L1291.74 773.196L1290.11 770.35L1289.71 768.134L1289.89 767.138L1290.36 766.487L1290.11 766.264L1289.16 766.284L1287.04 766.975L1286.41 768.337L1286.01 768.601L1284.81 767.036L1284.1 766.63L1282.55 766.812L1281.41 766.386L1280.29 766.711L1279.22 765.979L1277.14 765.572L1276.13 765.024L1275.09 765.125L1273.91 764.109L1272.71 764.17L1272.14 763.743L1270.68 764.271L1269.56 762.767L1265.52 761.832L1264.62 760.409L1263.1 759.84L1259.66 761.263L1258.4 760.795L1257.73 762.117L1256.75 762.422L1250.72 761.039L1249.9 762.3L1247.93 761.954L1246.98 762.259L1246.02 763.336L1245.25 762.218L1244.54 761.791L1243.93 761.812L1242.44 762.726L1241.18 761.365L1239.94 761.751L1238.48 761.039L1237.12 761.121L1236.41 760.816L1235.23 759.474L1231.99 759.677L1229.58 759.149L1227.22 759.108L1225.14 758.336L1223.23 758.559L1222.01 758.112L1217.83 759.21L1214.51 759.311L1213.07 758.864L1211.91 757.258L1211.2 756.831L1207.68 756.465L1205.95 756.75L1201.46 755.571L1198.19 755.612L1196.46 757.299L1194.61 757.563L1193.96 759.25L1193.33 759.759L1188.78 759.352L1187.15 759.515L1185.1 759.027L1183.96 760.633L1182.35 760.795L1178.51 761.893L1177.56 761.852L1177.25 761.588L1176.64 759.738L1175.4 759.006L1170.12 758.783L1166.21 759.515L1165.72 759.291L1165.09 758.417L1163.26 758.214L1161.94 757.116L1160.7 757.726L1159.38 757.34L1157.47 758.315L1157.17 758.356L1156.76 756.445L1154.71 757.34L1152.51 755.957L1148.69 756.384L1148.24 755.51L1150.52 754.819L1151.58 752.664L1144.14 749.147L1140.31 748.354L1139.38 744.492L1137.85 743.821L1138.4 741.483L1136.9 740.589L1137.35 735.995L1142.59 729.632L1141.17 727.233L1135.25 727.965L1135.84 726.075L1133.61 725.79L1132.26 726.705L1125.6 724.367L1125.58 720.871L1134.22 712.658L1135.72 711.946L1136.65 709.405L1135.74 705.482L1137.49 703.47L1138.38 701.111L1138.2 694.322L1134.09 691.517L1131.86 688.488L1129.4 688.142L1125.62 684.666L1124.95 684.585L1116.12 683.629L1108.58 676.413L1107.3 674.4L1109.11 667.732L1105.33 661.207L1092.64 652.324L1091.87 649.905L1090.33 648.055L1090 641.265L1078.92 640.98L1078.21 630.593L1090.14 631.467L1087.99 625.795L1086.28 605.06L1090.04 598.718L1093.21 591.786L1096.67 586.074L1101.2 580.971L1109.6 572.352L1120.35 562.635L1142.94 549.645L1152.35 551.536L1164.42 549.3L1177.9 551.678L1177.86 553.345L1180.14 553.955L1182.84 550.763L1183.94 554.077L1185.16 552.593L1188.76 553.894L1190 550.967L1192.56 551.373L1196.2 552.451L1202.19 555.114L1197.92 550.804L1200.67 550.296L1204.84 552.43L1208.76 551.882L1212.7 553.975L1214 557.309L1216.97 556.862L1216.91 553.244L1228.88 551.902L1227.18 522.06L1228.25 520.068L1238.46 522.345L1244.25 515.839L1249.29 521.145L1255.66 513.034L1262.32 518.645Z" fill="#035F38" stroke="white"/>
  <path d="M132.259 577.597L131.975 577.841L131.365 577.698L130.145 575.157L129.739 574.934L130.064 574.547L128.966 572.108L128.763 570.482L127.848 569.486L127.706 569.018L127.929 568.693L128.539 568.469L130.694 569.323L132.646 571.519L133.316 574.039L132.259 577.597ZM284.234 403.546L287.344 406.453L292.141 408.608L291.552 410.234L293.951 411.433L295.739 406.839L297.813 407.327L300.557 421.252L299.419 424.708L301.086 428.55L299.52 432.575L308.912 433.571L311.291 434.77L315.6 435.197L316.576 430.013L316.474 426.497L319.056 427.167L320.337 424.972L323.325 427.127V429.647L330.419 430.257L330.602 439.791L329.444 440.686L328.143 450.118L329.647 452.679L331.842 462.112L330.419 467.519L336.579 474.41L337.453 485.408L340.136 489.982L338.632 499.251L335.522 523.036L341.417 530.496L343.877 540.05L355.728 551.963L363.758 555.297L386.952 562.208L387.44 569.73L392.095 575.726L391.364 578.125L394.596 584.488L391.059 582.374L387.969 582.597L386.119 580.87L383.395 582.272L379.207 581.012L378.171 577.841L376.422 577.068L374.41 578.45L372.377 577.251L369.429 576.397L368.779 574.588L369.409 571.458L368.047 567.372L366.116 567.107L364.978 567.717L364.368 568.734L363.209 569.099L360.648 567.514L355.87 560.745L346.56 569.974L342.19 569.364L326.577 570.99L319.015 573.938L313.039 574.08L309.38 575.544L306.818 576.153L304.399 576.031L301.594 576.682L300.801 577.983L294.703 577.231L295.252 579.751L293.117 583.837L284.132 590.525L288.279 592.965L285.718 595.425L281.713 597.844L276.936 599.897L274.11 600.283L271.467 602.031L265.369 601.218L264.109 604.369L258.783 604.084L249.736 601.848L249.675 601.34L251.159 601.584L251.871 601.279L250.367 600.751L250.123 600.242L250.265 598.88L251.098 598.514L250.977 597.579L251.363 597.254L254.412 596.949L252.806 596.014L252.542 595.16L253.07 594.611L254.676 594.185L253.802 593.209L253.253 591.806L252.298 591.034L252.074 590.322L252.42 589.956L254.148 589.936L254.717 588.879L252.521 586.948L251.729 586.643L250.529 585.22L251.363 584.122L252.745 584.142L251.342 583.451L251.18 582.658L250.631 582.475L251.058 581.784L250.977 580.992L252.095 580.138L253.822 580.361L253.192 579.304L253.802 578.898L252.969 578.613L252.847 578.064L254.229 577.312L255.205 575.686L255.998 576.601L255.876 575.787L256.14 575.015L255.896 574.751L255.347 574.934L254.961 574.283L255.489 573.429L255.611 572.291L256.506 571.01L256.648 569.465L259.087 566.843L260.185 566.477L259.148 566.091L259.047 565.745L260.307 565.562L260.531 565.257L259.697 564.79L258.905 563.509L257.217 562.005L257.786 558.915L257.319 556.841L258.803 555.398L257.238 554.809L257.786 553.467L257.014 550.641L256.607 550.519L256.059 550.804L255.469 550.519L254.575 551.129L254.046 550.885L254.514 549.971L255.225 549.747L253.944 548.446L253.518 548.609L253.192 548.385L253.518 546.982L254.27 546.413L253.782 545.397L252.969 545.071L252.725 545.214L251.769 546.779L249.818 547.938L248.74 549.645L248.7 551.109L248.029 551.048L247.338 550.56L247.419 549.544L247.073 548.934L247.236 548.263L247.765 547.734L247.521 546.86L246.809 546.393L246.057 546.698L245.549 547.348L245.142 547.226L245.224 545.702L245.549 545.193L244.837 544.949L244.695 544.38L243.069 543.73L242.845 543.364L243.028 543.018L243.76 543.222L244.614 542.266L244.268 541.778L244.471 540.803L244.024 540.03L243.109 539.4L237.255 540.538L235.73 542.205L234.816 542.652L234.328 542.571L233.616 540.985L232.722 540.823L231.644 545.722L231.177 546.271L229.998 546.759H228.27L225.343 545.153L221.44 544.441L218.553 542.835L216.479 543.059L215.585 542.591L215.544 542.144L215.056 542.347L214.833 541.86L212.292 540.965L209.446 540.538L208.003 540.619L206.498 539.542L206.742 541.738L207.657 542.632L208.673 543.14L209.222 544.075L209.08 546.413L208.551 547.49L208.287 547.308L208.511 547.958L208.246 547.978L207.555 546.108L207.901 544.421L207.067 543.547L206.356 543.445L206.153 542.652L205.36 541.941L204.404 538.363L204.079 538.383L204.018 539.054L203.591 539.095L203.083 539.827L202.087 540.01L200.745 541.392L200.318 541.595L200.074 541.25L201.132 540.152L202.128 539.583L202.534 537.956L202.9 537.936L203.002 537.611L202.676 537.062L203.347 536.513L203.49 535.415L201.68 536.371L200.217 538.16L201.091 536.452L201.071 535.822L198.814 533.22L193.651 531.695L192.065 531.939L191.537 531.512L190.48 531.98L188.528 531.33L187.634 531.756L186.841 531.716L184.056 534.114L183.426 534.155L182.856 534.582L182.551 536.066L181.901 535.903L181.271 536.269L179.34 536.208L178.425 535.761L177.449 535.741L175.254 534.663L173.383 535.111L172.57 535.639L171.717 536.838L171.391 537.001L171.025 536.615L170.416 536.737L168.606 540.111L167.549 541.128L166.756 541.168L166.411 540.782L166.797 539.217L166.634 538.485L166.126 538.221L165.557 538.485L164.256 539.44L163.24 540.782L162.955 542.896L161.878 545.742L161.39 546.23L160.699 546.068L160.272 545.458L160.78 543.669L160.516 543.283L159.194 544.36L158.605 544.34L158.239 541.961L157.263 540.477L155.312 543.77L154.905 544.949L154.194 545.702L153.909 545.803L153.421 545.193L153.746 543.384L153.279 543.364L152.161 544.035L151.571 544.827L151.937 545.315L150.595 546.413L149.579 548.527L149.111 550.316L148.4 551.414L147.871 550.804L147.709 546.637L145.046 549.462L143.867 550.296L141.021 554.544L140.533 556.293L137.829 555.561L136.406 556.232L134.841 558.712L135.044 560.643L134.495 561.436L133.459 561.944L132.808 562.879L131.101 562.31L130.023 561.436L130.531 563.001L130.226 564.241L132.137 565.786L131.731 565.969L130.531 565.4L130.247 565.725L131.893 567.067L132.524 568.124L132.341 568.571L131.263 568.266L128.722 566.782L127.868 566.68L126.832 568.368L126.141 568.266L125.592 567.677L125.144 567.798L124.779 569.445L125.307 570.421L124.575 571.193L124.087 570.888L123.417 569.445L122.38 568.205L122.034 568.225L122.237 569.791L122.929 570.888L122.969 571.498L124.148 572.698L124.392 573.755L124.128 574.06L121.445 572.494L120.123 571.437L119.92 570.97L118.985 570.949L117.338 569.73L116.891 569.75L116.525 570.441L115.387 568.083L114.899 567.819L115.021 567.006L114.757 566.457L115.184 565.745L116.444 566.111L114.838 564.322L114.94 563.59L114.716 563.164L112.663 562.432L111.768 562.554L111.464 562.798L112.175 563.631H112.927L113.313 564.038L113.496 564.688L113.273 565.501L113.761 567.351L115.834 569.628L116.058 570.441L115.773 571.275L116.627 571.803L116.871 572.271V572.84L116.546 573.206L115.854 573.246L115.468 573.958H115.082L113.862 573.023L113.984 572.515L113.313 570.197L113.496 569.343L112.968 569.14L113.191 568.571L112.033 565.725L110.752 564.526L109.044 563.55L108.983 563.123L108.516 562.757L107.743 562.615L108.048 563.082L107.865 563.326L106.849 562.574L106.727 562.777L107.642 564.729L108.658 565.176L108.8 564.424L109.268 564.77L109.512 565.623L110.122 566.294L109.939 566.924L110.244 567.839L109.736 567.758L108.902 566.619L107.662 565.847L107.499 566.213L108.069 566.64L108.536 567.839L107.601 568.205L107.682 566.904L106.808 566.132L106.158 564.993L106.259 564.546L106.646 564.322L105.833 563.57L105.121 563.55L104.938 563.814L105.426 564.891L104.836 565.257L105.67 566.05L105.772 566.843L106.564 567.88L107.642 568.815L107.52 569.282L105.345 568.103L101.421 567.006L100.73 565.908L99.1649 564.952L98.0468 564.729L96.014 563.712L94.3674 562.127L92.9851 562.249L91.5824 560.277L91.0539 558.813L89.6919 558.082L89.0211 558.102L88.2486 557.492L86.9882 557.309L85.6466 554.646L84.8131 555.175L82.4957 554.687L81.8858 554.036L82.0891 552.979L81.9265 552.573L80.5848 552.41L79.4465 551.861L79.4668 550.662L80.6458 547.531L83.3901 545.193L86.3784 545.356L87.6184 546.311L87.8624 547.978L90.0985 550.153L92.05 550.377L96.5222 549.849L98.1688 548.487L100.12 545.6L98.7583 541.697L91.2775 531.573L89.387 527.203L86.541 520.129L85.8295 517.669L84.4269 508.216L79.1212 508.115L75.4824 507.098L71.4168 500.593L69.6685 496.426L67.6357 492.868L62.513 487.908L60.5005 487.664L58.8946 488.173L52.1252 488.843L48.1002 488.925L42.8149 487.258L37.1026 484.818L37.1839 486.424L36.7571 489.636L35.8626 492.95L28.7477 488.721L26.4709 486.404L25.5562 484.818L27.2434 483.944L27.406 483.578L23.8079 477.134L21.7141 474.004L26.5116 471.646L27.3044 470.426L28.7477 470.568L29.1949 469.389L24.8244 467.824L24.743 466.747L25.6781 464.815L25.5765 463.108L25.1903 462.071L24.8244 461.563L22.4663 460.506L21.6328 459.144L27.6093 461.136L32.2442 460.892L52.3488 464.043L87.1915 467.926L98.1281 470.995L117.481 478.659L117.176 472.56L129.474 473.231L131.629 471.483L138.276 471.646L146.286 463.433L167.996 448.858L170.477 448.797L174.176 445.28L175.803 446.093L179.441 443.857L181.637 436.966L189.809 436.396L194.505 434.242L211.214 437.128L212.271 439.283L210.909 440.238L210.605 445.117L223.269 448.004L224.672 445.524L226.4 445.28L235.08 450.199L239.328 450.098L242.113 448.41L241.219 445.483L243.963 433.835L248.74 433.632L248.131 419.097L251.627 420.642L253.985 415.153L256.424 416.332L270.146 416.353L276.265 414.422L275.228 412.002L282.872 405.518L284.234 403.546Z" fill="#035F38" stroke="white"/>
  <path d="M1074.65 276.128L1088.27 281.068L1088.43 285.662L1090.16 288.325L1088.41 293.692L1087.54 298.388L1087.76 304.547L1085.65 305.035L1084.57 307.271L1086.28 309.914L1083.35 312.678L1089.16 319.082L1095 317.557L1100.69 317.09L1103.88 314.406L1104.41 316.073L1110.87 317.334L1113.05 320.058L1110.77 321.826L1113.39 328.555L1116.16 321.623L1121.69 327.518L1123.97 327.62L1127.01 332.864L1125.63 333.678L1126.71 336.747L1131.26 338.556L1131.91 341.016L1130.57 341.585L1131.16 342.724L1129.03 343.415L1128.62 342.825L1123.23 345.102L1123.29 346.423L1120.77 348.111L1122.14 352.766L1124.68 352.644L1125.43 354.331L1129.39 353.152L1137.57 347.196L1139.48 344.635L1151.06 345.021L1152.47 344.228L1153.01 342.236L1154.91 341.504L1156.65 343.374L1170.54 339.552L1175.66 342.561L1177.53 342.114L1179.36 337.194L1180.27 337.886L1183.39 336.097L1187.84 335.609L1192.27 338.251L1193.75 335.649L1193.51 329.571L1195.97 319.773L1200.03 315.809L1207.66 313.837L1214.65 321.237L1222.9 321.562L1229.41 325.729L1231.75 334.044L1228.6 338.373L1233.15 341.626L1232.25 345.102L1226.44 349.94L1223.33 354.27L1217.74 356.832L1215.99 358.051L1212.39 358.153L1211.3 362.849L1212.5 364.638L1211.58 368.337L1212.62 371.122L1211.8 374.314L1208.29 379.843L1198 383.624L1188.67 388.117L1188.08 391.593L1191.25 395.232L1191.15 397.264L1194.48 398.362L1200.42 403.261L1200.52 407.083L1203.71 408.933L1207.54 412.917L1203.75 414.523L1202.94 413.364L1199.65 415.072L1199.99 417.41L1199.08 421.313L1201.86 426.862L1218.04 424.199L1219.67 429.038L1218 435.543L1218.04 438.063L1210.77 445.544L1207.74 444.507L1205.73 444.67L1203.67 446.561L1204.12 449.65L1200.99 450.606L1202.45 453.614L1205.87 455.2L1206.42 457.802L1212.6 457.639L1214.47 458.209L1213.61 460.302L1210.14 460.445L1209.1 463.494L1214.18 468.129L1218.17 467.824L1220.97 470.06L1213.61 472.743L1215.97 476.138L1213.27 476.159L1212.9 481.037L1210.95 480.956L1209 489.27L1206.62 494.535L1207.43 496.873L1208.33 497.28L1210.4 506.224L1210.83 509.233L1207.23 507.647L1203.49 508.237L1203.69 512.688L1202.01 516.795L1198.9 517.974L1202.43 519.803L1204.49 523.3L1208.33 526.146L1214.2 528.341L1216.11 523.076L1218.57 521.552L1223.23 523.828L1227.17 522.06L1228.88 551.902L1216.91 553.243L1216.97 556.862L1214 557.309L1212.7 553.975L1208.75 551.881L1204.83 552.43L1200.66 550.296L1197.92 550.804L1202.19 555.114L1196.19 552.451L1192.55 551.373L1189.99 550.967L1188.75 553.894L1185.15 552.593L1183.93 554.077L1182.84 550.763L1180.13 553.955L1177.86 553.345L1177.9 551.678L1164.42 549.3L1152.34 551.536L1142.93 549.645L1120.35 562.635L1109.59 572.352L1101.2 580.971L1096.66 586.074L1093.21 591.786L1027.91 591.034L990.084 592.436L983.091 591.928L951.419 592.741L895.455 592.863L820.729 591.684L820.098 586.196L818.188 585.626L802.514 586.5L750.942 572.494L743.644 568.429L736.448 560.297L728.215 559.586L708.354 548.893L704.288 548.771L684.468 541.026L682.74 539.278L678.918 541.636L667.209 535.07L661.965 535.476L656.009 531.472L651.292 527.02L634.969 530.049L645.844 521.552L692.437 488.986L701.198 479.33L697.6 477.724L690.363 465.059L701.524 454.915L699.328 447.841L714.066 444.589L711.037 440.706L712.399 438.511L710.915 434.912L719.29 435.238L721.323 419.931L751.795 424.972L754.723 423.325L757.589 423.712L762.082 422.126L764.704 415.682L777.002 415.235L788.874 402.143L794.891 401.432L797.453 392.426L802.636 392.955L804.751 387.71L810.788 382.201L819.123 377.322L832.275 362.239L841.057 350.957L839.207 347.216L840.325 345.997L838.943 343.313L840.345 341.585L846.932 340.732L854.189 337.621L856.954 335.223L858.214 332.194L860.47 329.754L859.8 328.128L855.531 325.729L855.348 324.428L853.091 322.965L852.807 319.529L850.164 315.951L852.502 316.378L858.092 315.199L861.812 318.106L870.391 311.662L875.208 309.934L876.428 307.678L888.686 307.332L888.137 321.176L886.226 322.334L887.1 327.64L885.352 330.364L883.706 338.048L880.88 341.199L882.242 343.638L885.413 342.602L886.064 344.208L888.361 344.391L893.484 347.663L898.566 344.98L900.253 346.403L901.29 346.24L901.777 343.435L900.619 342.033L901.025 340.244L902.184 341.646L903.953 341.789L907.205 339.735L905.802 335.182L911.169 332.255L911.901 335.71L913.1 333.739L914.137 333.556L915.621 337.093L916.78 338.495L919.077 338.699L918.121 343.801L920.459 343.232L922.207 343.659L923.549 342.988L925.318 343.151L937.616 339.593L938.816 343.09L940.665 342.48L941.499 344.37L937.982 349.493L937.82 353.904L940.259 355.165L943.45 353.66L949.122 350.042L953.493 349.452L954.753 346.972L952.293 340.732L960.811 336.91L963.657 341.89L964.165 328.88L966.767 328.352L967.377 327.376L970.182 327.416L975.407 323.757L974.573 321.847L977.663 319.285L981.2 319.671L982.481 317.171L985.306 317.212L986.424 311.276L992.34 308.755L992.259 307.17L994.088 306.844L994.657 308.755L997.341 307.739L997.869 309.914L1000.72 309.711L1005.19 313.675L1002.48 317.313L1003.68 317.984L1004.05 319.346L1002.85 321.054L1003.56 324.022L999.943 329.124L1002.4 329.937L1003.38 327.945L1011.67 327.071L1016.61 330.832L1016.06 328.921L1018.71 328.189L1017.83 322.294L1020.76 321.318L1022.32 318.879L1026.86 321.806L1030.13 320.098L1025.84 317.191L1028.71 314.65L1027.59 313.187L1029.6 311.316L1031.05 312.028L1031.29 309.934L1037 309.589L1039.66 306.478L1038.53 305.279L1038.91 304.263L1040.48 303.917L1042.79 299.689L1049.18 302.392L1050.78 299.668L1054.18 299.323L1056.37 298.286L1054.97 294.891L1065.46 291.496L1071.34 285.886L1066.19 283.568L1064.16 283.284L1062.05 287.817L1060.62 286.821L1061.03 285.54L1058.59 280.113L1056.86 279.34L1057.51 276.189L1059.42 275.376L1060.5 277.145L1063.73 276.23L1063.1 275.071L1064.18 274.685L1065.32 278.059L1067.88 274.116L1074.65 276.128Z" fill="#035F38" stroke="white"/>
  <path d="M769.757 56.6847L771.2 56.5424L774.31 55.4447L776.343 63.1491L777.176 64.3688L776.038 65.995L780.531 78.3546L772.948 81.0583L780.409 85.7338L783.173 85.9981L785.328 91.7103L784.21 92.7877L780.632 93.1333L770.306 98.5813L774.432 111.835L779.494 110.738L779.575 121.43L776.363 124.581L774.595 126.98L776.323 132.143L782.99 132.855L783.397 150.459L789.353 154.179L788.357 158.57L782.563 157.35L779.982 159.404L775.814 159.119L774.066 161.233L775.489 167.697L777.441 167.819L777.766 173.918L776.933 173.857L777.197 181.317L772.989 182.415L772.501 203.211L772.216 218.417L767.378 222.462L765.63 232.646L764.004 239.822L753.636 245.148L746.765 244.477L748.758 251.328L753.697 251.592L757.295 259.053L753.962 268.749L755.832 270.193L750.201 275.214L753.596 279.645L751.36 281.658L759.775 289.809L757.173 302.088L758.678 305.32L766.545 304.425L769.004 296.396L776.404 300.746L776.851 303.145L776.75 305.767L778.132 304.527L778.051 306.885L779.961 305.95L781.262 307.068L784.291 305.645L786.344 313.898L791.244 312.597L794.374 314.854L804.904 318.594L814.682 315.748L818.077 316.988L820.659 323.412L816.268 326.014L821.878 334.694L831.189 328.779L848.407 326.543L853.103 322.965L855.359 324.429L855.542 325.729L859.811 328.128L860.482 329.755L858.225 332.194L856.965 335.223L854.2 337.622L846.943 340.732L840.357 341.586L838.954 343.314L840.336 345.997L839.218 347.217L841.068 350.957L832.286 362.239L819.134 377.323L810.799 382.201L804.762 387.71L802.648 392.955L797.464 392.427L794.903 401.432L788.886 402.144L777.014 415.235L764.715 415.682L762.093 422.126L757.6 423.712L754.734 423.326L751.807 424.972L721.335 419.931L719.302 435.238L710.927 434.913L712.411 438.511L711.049 440.706L714.077 444.589L699.339 447.842L701.535 454.916L690.375 465.06L681.857 448.797L675.454 444.325L669.01 441.885L666.713 439.304L653.824 434.933L652.32 429.831L654.942 426.334L654.699 424.057L650.592 420.398L642.054 425.054L631.036 414.158L628.211 404.38L623.088 404.847L624.104 402.022L630.02 401.066L630.792 401.839L632.094 400.843L624.877 388.625L622.824 386.287L626.178 381.917L630.833 383.523L629.552 381.693L628.272 374.68L634.513 370.879L635.082 364.374L641.384 358.783L647.645 363.926L649.556 357.218L648.783 354.047L640.184 341.199L639.391 338.028L634.167 329.714L630.549 311.296L625.019 313.024L625.04 309.284L624.247 305.787L628.719 302.677L621.604 295.745L622.925 291.171L624.247 290.948V288.508L618.392 284.992L617.335 285.764L615.241 288.691L612.029 287.431L610.078 280.865L609.732 276.86L606.968 272.591L605.199 275.681L602.292 276.962L599.67 275.681L599.893 275.62L596.255 272.327L595.015 270.863L593.348 266.229L592.27 265.355L591.01 265.009L588.286 267.042L587.066 267.123L584.607 266.473L580.358 263.525L578.508 263.423L577.98 263.749L577.065 262.915L573.324 262.996L572.918 261.208L571.759 261.025L571.292 259.317L570.417 258.036L569.808 255.983L570.275 254.255L570.031 253.788L566.84 253.442L558.038 253.564L555.029 252.812L553.159 252.019L549.642 249.072L549.174 248.238L553.891 243.522L554.378 242.912L554.257 241.855L552.549 241.326L549.703 240.92L540.901 235.167L540.596 235.574L540.982 236.488L541.002 237.627L539.783 237.728L539.336 237.525L537.791 236.549L536.144 234.191L535.9 233.378L535.859 231.996L536.368 229.617L538.99 229.109L542.812 228.987L544.479 228.255L546.593 226.487L548.565 223.783L553.606 219.067L555.11 218.254L559.318 218.965L560.03 218.559L561.331 218.599L562.246 218.213L564.116 216.526L565.132 214.188L566.921 214.046L571.8 211.485L573.101 209.696L575.723 207.886L576.048 207.358L574.036 202.479L572.389 199.633V197.092L572.186 196.665L569.035 196.381L567.267 195.771L567.043 195.181L566.941 189.205L566.433 188.656L563.282 188.005L563.12 187.314L561.961 186.928L562.042 181.236L562.53 180.586L566.352 179.874L567.47 179.183L568.303 178.207L569.116 176.256L573.873 172.861L576.13 170.117L575.662 169.12L574.524 167.982L574.199 165.705L575.886 165.583L577.797 166.335L578.325 165.095L582.553 162.31L583.915 162.697L585.948 164.973L587.859 165.258L589.079 164.506L591.335 162.107L593.023 162.615L593.47 163.103L594.344 163.164L595.523 163.916L598.511 166.803L599.345 166.925L601.418 164.567L602.435 164.831L603.187 164.465L605.341 164.404L605.87 164.689L607.801 163.672L608.431 163.693L611.094 166.986L612.965 167.555L615.018 166.396L618.067 164.018L618.148 160.135L617.01 156.74L615.75 156.497L613.94 155.643L609.732 155.846L604.732 153.854L603.166 152.309L601.825 149.544L599.528 147.877L598.511 148.203L598.247 149.809L597.739 150.195L593.632 150.378L591.478 149.727L590.258 148.04L588.794 146.881L587.087 146.454L585.135 146.658L582.777 146.475L580.419 144.97L579.85 143.588L579.423 139.014L580.094 138.018L582.492 135.64L582.899 132.123L583.367 131.289L585.094 131.025L586.152 131.981L588.103 131.96L588.571 132.631L588.794 133.729L589.729 134.237L590.746 134.298L592.189 134.074L593.673 133.322L594.689 132.204L596.051 131.493L596.417 129.867L595.137 126.553L593.043 125.455L589.567 125.618L588.815 126.695L587.229 127.59L584.912 127.163L579.403 126.939L578.041 125.293L577.288 124.947L576.069 124.886L574.564 124.093L569.889 123.788L569.645 123.382L569.686 121.451L570.011 120.455L573.182 120.272L573.609 120.841L573.955 122.162L574.361 122.406L574.808 122.162L575.073 118.361L575.479 117.934L577.573 117.182L579.22 114.193L581.171 112.75L581.822 111.815V110.534L581.374 109.437L578.976 107.485L578.589 106.204L577.044 105.737L575.54 106.123L574.361 105.188L572.816 105.107L572.552 104.05L573.182 102.83L574.666 101.305L577.166 101.366L579.423 100.817L580.582 103.338L581.679 103.887L583.326 103.765L583.509 103.318L583.163 102.017L584.139 99.618L582.879 97.3616L583.326 95.9589L585.033 94.17L585.298 93.3163L586.274 92.8894L587.819 92.9707L588.774 92.2592L591.396 92.6048L591.945 93.4179L592.758 96.9347L593.673 97.7478L595.096 97.9308L596.153 98.5406L596.763 100.756L597.393 101.305L598.491 98.4593L599.182 97.4429L600.91 96.9957L602.313 96.2639L602.8 97.5852L604.447 99.2928L605.24 98.6829L605.646 97.5649L605.565 96.7111L606.907 96.0606L607.13 96.4468L606.521 97.2599L606.764 97.6055L607.923 97.0363L609.021 97.6868L607.761 99.9026L607.7 100.512L609.956 101.122L610.667 101.874L611.948 101.854L613.737 101.692L614.327 101.244V100.208L613.148 97.7681L612.782 96.3248L613.371 95.5727L614.245 95.593L615.546 94.5156H616.725L618.087 95.593L620.771 96.0402L621.523 95.5524L622.051 95.8166L625.893 95.9183L627.398 95.1255L628.536 95.0442L629.248 94.475L629.918 94.5563L631.951 96.4875L631.24 97.4226L628.963 98.5406L628.882 99.1098L630.081 102.484L630.569 103.196L632.317 103.928L633.618 104.903L634.37 104.944L634.838 104.029L634.309 102.688L634.675 101.773L635.448 100.899L636.078 99.2521L637.684 98.6016L638.212 97.7885L638.273 97.1786L640.062 95.8166L640.672 95.6743L641.526 94.1294L642.949 93.6008L643.437 92.991L644.189 92.808L644.921 91.7307L644.656 90.9378L644.839 90.4703L646.222 90.7142L649.312 90.3687L650.938 90.9988H652.828L654.536 91.507L656.874 91.0192L657.91 90.4703L658.48 89.7385L658.785 87.8683L658.154 86.4656L658.419 85.6525L658.744 85.3272L660.126 85.063L660.594 84.5954L661.671 84.5344L661.895 85.0426L662.423 85.2866L664.233 84.5954L668.339 85.2459L669.05 84.8597L671.185 84.4938L671.53 83.9652L672.465 84.4531L672.872 83.7213L673.502 84.0262L677.385 82.461L677.832 81.9731L679.458 81.6478L681.146 80.6721L683.768 80.0622L684.093 79.5337L685.394 79.7573L686.817 79.0255L687.895 79.9809L688.484 79.5743L689.053 79.6353L689.338 79.3101L689.988 79.7573L690.558 79.5337L690.72 78.314L691.391 77.3382L691.716 77.7651L692.286 77.6228L691.94 78.8832L692.062 79.2084L692.753 79.3304L693.912 78.3343L694.664 76.891L695.66 77.3179L696.351 77.0333L697.144 77.6228L698.201 77.4195L698.831 77.5822L700.153 76.4844L701.779 76.6674L703.08 76.0169L704.564 76.0779L705.458 75.7526L708.67 76.1389L709.585 75.6713L710.012 74.8988L709.971 74.1873L710.296 73.8418L711.008 73.6995L711.557 74.1467L712.39 74.289L713.142 73.7401L713.915 73.6588L715.074 73.0286L715.236 72.2968L716.07 71.626L717.086 71.4837L717.574 71.8293L720.826 71.0161L721.111 71.4633L720.908 71.7683V74.0247L721.314 74.167L723.469 73.5775L725.36 72.5204L727.799 70.6502L729.425 69.8981L730.096 69.9997L732.007 71.4024L733.613 72.9473L735.382 75.3867L739.752 75.2647L740.423 74.3906L740.443 73.5165L739.366 69.2272L738.451 67.8449L739.244 65.3039L738.898 62.9051L739.406 62.2546L742.374 60.1812L745.078 59.0834H746.277L749.123 59.8762L749.977 59.6323L750.079 58.5549L748.697 56.6644L748.839 55.5463L749.428 54.8145L750.75 54.3063L754.084 55.2211L755.913 55.1804L757.438 55.8309L759.755 57.4165L760.772 57.5385L761.625 57.0913L762.642 55.7902L763.252 54.1233L763.374 52.8833L764.105 51.4197L766.524 50.2813L768.273 50.1187L768.862 50.2609L769.289 50.9521L768.496 53.8591L768.537 55.6683L769.757 56.6847Z" fill="#035F38" stroke="white"/>
  <path d="M497.08 613.842L498.462 612.826L499.113 611.342L499.845 610.427L501.227 611.159L501.959 611.992L503.24 612.46H505.089L505.923 614.025L505.455 615.875L505.821 619.005L505.638 621.038L504.622 622.319L505.821 624.799L506.655 628.031L508.139 628.946L509.338 630.145L509.989 631.894L510.05 633.459L490.453 619.27L490.656 617.257L491.49 616.708V614.777L491.957 613.862H493.238L494.336 614.411L495.982 614.472L497.08 613.842ZM529.219 612.378H525.011L525.296 605.243L528.65 604.41L535.236 603.983L540.278 604.552L541.254 606.646L545.035 607.337L549.1 607.479L549.669 608.455H539.16L533.549 611.545L529.219 612.378ZM612.382 495.003L615.635 501.203L620.554 500.451L631.45 514.315L629.743 518.258L641.106 520.047L642.834 522.527L645.822 521.572L634.947 530.089L651.27 527.04L655.966 531.512L661.922 535.517L667.187 535.111L678.896 541.656L682.718 539.298L684.446 541.046L704.266 548.812L708.332 548.913L728.192 559.606L736.425 560.318L743.622 568.449L750.919 572.494L802.513 586.5L818.165 585.626L820.076 586.195L820.706 591.684L820.158 596.38L826.398 601.198L827.598 605.04L826.459 607.561L824.061 610.955L822.821 615.123L822.455 620.957L819.934 630.186L827.435 636.406L833.717 639.09L833.96 677.917L833.188 679.014L832.72 682.43L836.928 686.556L839.327 685.784L843.86 688.325L843.962 690.154L848.495 695.663L859.33 703.408L856.545 706.173L855.021 704.933L852.622 705.909L850.589 708.064L851.422 709.243L852.581 712.251L852.114 718.106L850.426 718.919L846.523 715.524L846.544 724.103L842.783 727.945L843.108 729.754L842.295 734.206L838.29 735.344L839.469 740.568L841.157 739.532L840.527 736.137L842.702 734.897L842.275 737.357L844.572 737.255L843.881 740.142L845.405 743.801L848.211 743.049L848.048 744.837L844.186 747.317L831.094 753.863L820.544 757.766L810.664 765.206L799.545 776.428L793.995 773.012L778.037 789.58L774.602 788.747L774.297 756.669L763.564 761.71L757.892 743.455L756.611 738.271L747.321 730.018L742.524 725.2L737.645 714.426L736.791 713.451L735.429 712.678L733.071 712.719L731.323 713.166L712.641 722.049L711.747 722.212L688.003 720.708L672.615 719.142L667.065 718.248L649.624 721.318L613.724 728.372L613.012 728.311L611.63 726.989L584.065 692.96L578.881 687.735L576.991 681.718L558.492 668.362L560.464 666.614L561.663 665.964L563.045 662L563.594 658.036L562.679 653.807L561.013 648.38L559.447 646.449L557.049 646.266L556.215 643.684L554.467 642.2L553.45 638.785V636.386L554.467 634.089L554.365 626.628L553.45 623.315L551.601 621.933L552.068 619.9L553.552 616.485L553.735 613.171L552.251 607.276L550.32 605.162L550.035 601.198L552.068 599.815L553.166 594.022L553.999 592.924L554.467 590.952L560.077 589.57L561.46 587.639L562.11 585.159L565.79 581.744L569.937 581.012L572.783 578.43L576.462 577.048L580.324 574.751L582.805 570.522L583.455 563.794L583.333 560.379L581.808 560.155L579.633 561.903L573.555 560.826L568.128 561.049L564.224 556.272L564.448 549.544L565.099 546.718L562.273 545.844L560.321 544.116L554.894 544.34L554.67 546.291L556.845 547.368L558.797 547.592L561.399 549.544V552.146L559.874 553.02L558.35 554.768L556.174 555.845L553.572 554.544L550.523 553.67V559.972L549.06 561.009L548.511 559.098L548.775 553.67L547.698 551.495L545.787 549.584H543.063L534.098 555.561L532.472 557.736L532.228 561.802L533.407 563.265L534.789 566.314L535.704 567.697L538.469 568.896H540.684L542.534 567.981L544.831 567.331L549.71 566.965L550.808 569.079L552.556 570.461L554.955 571.295L558.004 569.181L559.488 567.331L561.236 566.965L561.602 570.563L564.733 575.808L564.651 579.853L563.818 582.801L559.59 585.464H557.374L552.129 586.48L549.649 585.647L547.352 583.167L545.238 581.967L538.977 580.687L535.846 580.321L534.098 581.337L530.5 584.651L527.735 584.833L526.455 584.102L527.186 580.239L526.353 578.857L526.068 576.377L526.17 573.328L524.605 571.397L522.206 570.929H515.579L514.298 571.214L514.4 573.429L518.73 580.341L519.746 582.638L519.014 585.301L519.929 592.294L519.462 595.059L518.364 596.908L517.083 597.559L515.701 596.827L514.034 601.706L512.57 602.905L510.822 602.255L508.606 602.438L506.39 603.271H504.276L503.992 601.787L504.093 599.856L504.561 597.64L506.858 594.144L508.525 592.294L509.257 590.627L507.59 589.428L505.659 588.411L503.91 589.428L501.796 591.542L499.316 591.725L496.918 591.359L495.82 590.444L495.027 590.139L505.801 576.885L514.481 563.855L519.014 558.874L522.348 553.67L538.265 538.892L550.381 537.895L551.519 525.373L568.067 526.735L581.646 490.368L605.654 484.818L612.382 495.003Z" fill="#035F38" stroke="white"/>
  <path d="M162.743 655.84L162.906 656.064L163.882 655.474L164.471 655.739L162.499 656.999L161.829 657.832L162.012 658.585L161.707 658.666L161.381 657.771L161.829 656.166L161.463 653.868L161.666 653.625L162.499 654.743L162.743 655.84ZM165.447 649.071L166.016 649.234L166.585 648.908L167.114 648.421L167.439 647.343L167.785 648.766L168.313 648.339L168.476 648.685L168.191 651.205L168.415 652.039L170.204 652.954L168.11 652.506L167.825 653.055L166.565 653.34L166.524 652.893L167.439 652.1L166.362 651.693L166.972 650.636L166.85 650.006L165.508 649.925L163.841 647.933L163.78 647.485L164.797 646.55L164.959 646.794L164.349 647.607L165.447 649.071ZM141.012 642.302L142.476 642.668L143.269 643.399L141.195 643.684L140.22 644.985L140.118 646.53L140.687 647.953L140.89 649.701L141.378 650.453L141.846 650.514L142.09 649.904L142.273 650.108L141.785 651.632L142.761 653.035L145.119 654.214L147.233 653.401L147.558 653.482L147.68 653.787L146.908 655.454L146.664 655.495L146.094 654.824L143.249 654.417L141.968 653.665L140.423 651.205L139.102 646.754L139.976 644.05L140.037 642.729L141.012 642.302ZM151.583 641.489L153.169 641.753L153.697 643.176L153.392 644.68L153.738 645.778L152.701 647.607L152.661 648.603L152.274 649.417L151.38 650.047L150.79 650.108L149.977 651.002L149.713 651.612L150.038 652.466L149.754 652.689L149.286 652.303L149.022 651.165L149.225 650.616L148.94 649.417L149.489 648.238L149.428 647.302L149.205 646.754L148.27 645.961L148.453 644.863L147.843 643.623L148.717 642.566L150.119 642.668L151.583 641.489ZM242.999 616.383L243.284 616.424L243.589 615.855L244.016 615.733L244.483 616.078L245.561 618.965L245.601 620.205L246.089 621.343L245.866 622.116L246.089 623.335L246.008 623.6L244.646 623.722L245.195 624.535L245.093 624.758L243.06 623.945L242.634 622.705L241.597 621.14L240.235 619.819L239.686 618.863L240.113 618.233L241.983 616.769L242.085 616.525L241.434 615.916L241.373 615.387L242.369 615.794L242.999 616.383ZM249.809 601.848L258.855 604.084L264.181 604.369L265.442 601.218L271.54 602.031L274.183 600.283L277.009 599.897L281.786 597.844L285.79 595.425L288.352 592.965L284.205 590.526L293.19 583.838L295.324 579.752L294.776 577.231L300.874 577.983L301.667 576.682L304.472 576.031L306.891 576.153L309.453 575.544L313.112 574.08L319.088 573.938L326.65 570.99L342.262 569.364L346.633 569.974L355.943 560.745L360.721 567.514L363.282 569.1L364.441 568.734L365.05 567.717L366.189 567.107L368.12 567.372L369.482 571.458L368.852 574.588L369.502 576.397L372.45 577.251L374.483 578.451L376.495 577.068L378.243 577.841L379.28 581.012L383.468 582.272L386.192 580.87L388.042 582.598L391.132 582.374L394.669 584.488L398.247 594.347L403.898 636.163L375.926 645.351L376.028 843.816L370.783 843.613L368.466 845.93L367.327 845.056L366.758 844.934L362.936 845.646L361.452 846.398L361.046 847.516L360.578 847.902L360.009 847.455L359.704 846.52L358.993 845.625L358.586 845.808L358.566 846.906L357.814 847.434L357 847.231L355.008 846.052L352.691 843.938L350.048 840.563L347.792 838.734L346.003 836.294L342.364 830.298L339.416 823.345L337.567 820.621L335.371 818.467L334.761 817.491L334.599 816.413L334.965 812.775L333.176 810.193L330.147 806.818L315.063 796.146L308.497 791.816L306.566 790.657L304.635 789.905L295.345 790.19L280.851 792.507L274.305 794.296L262.921 799.317L259.018 800.659L256.131 802.55L243.081 814.259L235.702 820.377L235.763 819.32L237.45 815.336L237.673 812.856L237.612 811.148L237.084 809.116L235.478 806.961L235.783 804.664L234.827 803.647L235.417 799.5L236.149 798.037L238.954 794.622L240.723 791.552L244.28 782.567L245.134 778.339L244.687 775.919L243.711 774.029L240.377 770.228L240.153 769.536L240.906 768.398L240.743 769.414L241.211 770.451L243.304 772.118L244.788 774.11L246.008 777.424L247.004 776.346L247.512 774.964L247.736 772.138L247.37 769.374L246.577 768.723L244.829 768.703L243.975 767.951L242.613 768.52L243.203 767.544L242.349 765.227L236.901 763.621L235.275 763.357L232.124 763.824L230.721 764.841L229.888 766.142L229.644 766.121L227.469 762.564L226.31 761.751L225.476 761.547L224.074 761.608L223.423 761.364L221.167 761.71L218.057 762.645L215.658 763.845L214.845 763.824L214.133 763.153L211.572 759.006L211.287 757.97L209.824 755.693L209.173 753.294L204.62 748.984L205.108 748.456L205.209 747.48L204.396 744.939L202.404 744.756L198.623 745.529L198.135 746.057L195.919 745.956L190.573 746.83L189.475 746.504L189.312 745.651L189.597 743.293L191.183 736.645L191.325 732.315L191.02 729.347L190.369 728.209L190.105 726.318L189.312 724.367L187.483 722.639L187.178 721.684L185.918 720.87L185.45 720.708L185.145 721.074L184.922 720.891L183.397 718.309L181.445 713.756L179.717 711.641L178.234 703.632L176.323 700.827L175.814 700.339L174.209 699.953L173.436 699.018L173.741 695.399L173.172 692.817L171.911 689.646L169.879 687.654L165.63 685.743L162.642 684.991L155.283 684.422L152.843 683.405L150.018 681.454L148.839 679.563L148.656 678.791L148.554 670.883L148.026 668.546L148.066 668.342L149.083 670.009L149.123 670.782L149.611 670.68L151.542 665.069L153.047 665.313L153.819 665.13L154.266 665.578L155.486 665.476L157.255 666.187L159.47 666.004L161.3 666.309L162.601 665.639L164.044 666.797L168.151 667.143L169.98 666.818L170.712 665.598L171.241 665.476L172.074 666.045L174.859 666.858L175.977 668.586L176.363 668.647L176.77 669.542L177.685 669.968L178.742 669.765L178.254 670.7L178.721 671.839L182.258 674.278L186.466 674.359L187.706 673.363L188.601 672.103L189.516 671.595L189.841 670.68L193.256 669.786L193.724 669.765L193.907 670.151L193.358 671.026L193.419 671.412L193.846 671.249L194.943 672.469L195.817 672.266L196.244 671.859L196.285 671.209L198.399 672.144L199.7 671.676L199.985 671.229L199.599 670.334L198.094 669.135L195.756 668.098L190.837 668.139L189.292 668.566L189.333 667.875L190.004 667.204L189.861 666.452L188.845 667.143L188.662 666.94L188.743 665.049L187.605 662.732L185.45 659.601L184.149 659.134L182.035 657.141L180.104 656.145L180.043 655.8L178.843 654.783L178.112 654.499L178.01 655.19L177.115 655.657L175.51 655.495L173.883 655.759L172.481 654.946L172.379 654.397L173.863 654.905L173.456 654.295L173.68 653.299L174.249 652.466L173.578 651.958L173.558 651.043L176.77 646.591L177.298 646.245L178.986 645.473L179.595 645.412L180.632 645.9L181.039 645.737L184.271 642.403L185.633 641.692L186.344 641.753L187.706 642.525H188.459L188.743 640.96L188.276 636.589L188.682 634.577L188.967 633.906L189.536 633.459L190.004 631.446L191.305 629.251L192.26 628.519L192.789 627.462L193.602 627.259L194.964 625.328L195.594 624.921L196.407 626.059L196.875 626.283L200.229 626.1L201.55 625.754L201.997 625.063L203.4 624.677L206.144 623.01L206.51 622.116L207.872 620.388L208.665 620.449L208.929 620.977L209.742 621.445L210.251 621.059L211.511 621.912L213.686 622.156L215.15 623.254L215.902 623.396L217.935 623.193L220.069 622.339L221.573 622.299L223.586 622.949L226.533 622.522L229.156 622.563L230.335 622.339L232.103 621.506L233.262 621.547L235.6 620.937L237.348 621.608L240.824 621.77L241.353 622.319L242.003 623.864L243.589 625.063L245.398 625.267L245.967 625.165L245.947 624.636L248.468 625.856L249.891 625.937L249.911 625.389L247.207 624.149L247.756 623.945L247.919 623.376L247.451 622.644L247.39 621.608L246.577 620.571L246.354 619.778L246.333 618.294L246.699 617.765L248.793 618.66L250.724 620.124L252.777 620.449L254.424 622.4L256.335 623.742L256.599 623.417L254.79 621.77L252.859 618.802L252.269 618.558L250.785 618.721L249.992 617.481L247.512 616.302L247.756 615.651L248.671 615.102L248.285 614.472L248.976 614.025L250.48 613.415L251.659 613.253L253.062 613.578L253.286 613.334L252.432 611.748V610.833L251.741 611.037L250.907 612.46L249.037 613.334L248.163 614.045L247.858 613.862L248.081 613.212L247.634 612.907L247.817 611.891L246.598 611.728L247.634 611.443L246.923 611.077L246.902 610.732L248.183 609.614L249.017 609.451L248.935 608.618L250.338 608.475L250.785 609.309L252.188 610.163L252.513 610.081L250.297 607.073L248.366 605.548L249.342 605.284L250.155 604.491L250.053 604.003L249.362 603.983L249.382 603.475L250.46 603.21L250.602 603.536L251.07 603.332L251.11 603.617L251.497 603.678L252.167 603.353L252.574 602.763L251.558 602.966L249.809 601.848Z" fill="#035F38" stroke="white"/>
  <path d="M1195.74 73.3945L1197.53 73.3132L1198.38 73.7807L1198.83 74.5125L1199.2 77.4398L1197.94 79.371L1198.22 81.6071L1198.06 82.4812L1196.43 84.3311L1194.7 85.2865L1194.36 87.482L1193.14 87.9495L1190.64 89.7791L1189.89 89.4132L1188.83 87.4616L1187.49 87.9902L1186.57 87.8885L1184.93 86.9128L1182.85 86.6688L1182.02 86.6892L1181.65 86.9534L1181.51 88.0715L1181.84 89.4132L1184.46 92.9503L1184.8 95.7556L1186.41 98.7439L1194.89 106.977L1226.76 132.773L1238.15 143.69L1240.22 146.129L1247.35 157.94L1253.58 167.372L1260.95 180.768L1261.24 180.484L1265.71 189.144L1265.39 189.367L1278.17 211.972L1280.51 217.42L1284.01 222.828L1284.49 224.19L1286.08 226.365L1288.76 231.691L1289.11 231.488L1289.5 232.24L1289.19 232.484L1292.32 239.07L1293.09 239.842L1293.05 240.391L1297 248.624L1294.03 248.97L1292.97 255.17L1286.91 256.715L1287.97 260.171L1282.87 265.172L1281.77 263.85L1273.86 265.009L1274.05 268.79L1276.08 268.444L1275.47 270.985L1275.83 273.994L1273.78 273.283L1265.69 278.426L1260.69 279.991L1259.8 277.938L1257.38 279.015L1256.87 281.292L1252.6 283.569L1251.68 282.837L1248.31 286.11L1253.05 292.96L1254.12 299.262L1257.13 300.177L1258.96 302.941L1262.17 305.462L1264.82 306.824L1272.99 312.252L1271.57 326.095L1275.31 327.152L1276.44 335.202L1273.74 338.008L1266.95 350.347L1261.5 352.847L1255.1 351.262L1238.13 344.188L1235.79 340.081L1233.17 341.626L1228.61 338.374L1231.76 334.044L1229.43 325.729L1222.92 321.562L1214.67 321.237L1207.67 313.837L1200.05 315.809L1195.99 319.773L1193.53 329.571L1193.77 335.65L1192.29 338.252L1187.85 335.609L1183.4 336.097L1180.29 337.886L1179.38 337.195L1177.55 342.114L1175.68 342.561L1170.55 339.553L1156.67 343.374L1154.92 341.504L1153.03 342.236L1152.48 344.228L1151.08 345.021L1139.49 344.635L1137.58 347.196L1129.41 353.152L1125.45 354.331L1124.69 352.644L1122.15 352.766L1120.79 348.111L1123.31 346.424L1123.25 345.102L1128.64 342.826L1129.04 343.415L1131.18 342.724L1130.59 341.586L1131.93 341.016L1131.28 338.557L1126.73 336.747L1125.65 333.678L1127.03 332.865L1123.98 327.62L1121.71 327.518L1116.18 321.623L1113.41 328.555L1110.79 321.826L1113.07 320.058L1110.89 317.334L1104.43 316.074L1103.9 314.407L1100.71 317.09L1095.01 317.558L1089.18 319.082L1083.37 312.679L1086.29 309.914L1084.59 307.271L1085.66 305.035L1087.78 304.547L1087.55 298.388L1088.43 293.692L1090.18 288.325L1088.45 285.662L1088.29 281.068L1074.67 276.128L1078.94 271.087L1079.52 266.574L1088.33 260.821L1092.35 261.96L1093.9 260.028L1096.01 259.805L1096.99 258.321L1093.12 256.105L1088.47 255.678L1086.46 251.023L1079.22 254.58L1079.42 242.607L1080.66 241.143L1086.21 236.773L1088.63 236.305L1087.8 234.537L1086.88 193.962L1084.81 193.657L1084.69 192.518L1084.46 189.957L1077.09 189.408L1075.07 184.082L1075.89 181.663L1077.72 184.184L1080.6 184.611L1082.29 188.229L1084.24 187.395L1083.69 181.134L1086.21 180.118L1085.83 176.682L1087.84 175.605L1085.62 169.608L1081.72 170.97L1079.91 170.401L1077.53 176.825L1072.19 176.906L1071.19 171.682L1074 168.389L1072.69 165.644L1068.32 168.714L1067.37 167.718L1069.73 165.787L1071.23 162.026L1073.49 158.651L1073.22 156.314L1075.5 155.216L1075.38 153.773L1077.41 152.675L1075.56 149.788L1073.51 151.17L1072.88 149.646L1070.62 150.479L1070.48 151.902L1064.83 156.842L1063.85 150.967L1064.77 144.726L1068.1 146.353L1069.6 144.808L1066.35 139.665L1064.3 135.07L1069.42 130.049L1070.09 127.081L1072.13 127.59L1073.12 123.28L1075.89 123.605L1079.38 125.801L1082.13 121.674L1088.88 123.199L1088.47 127.793L1091.92 128.118L1092.66 124.683L1095.5 125.293L1095.1 126.655L1096.52 127.224L1096.5 129.846L1097.21 130.273L1097.33 130.741L1097.07 132.265L1101.89 134.074L1105.08 126.207L1103.37 125.211L1104.55 119.336L1111.24 120.434L1113.01 114.478L1115.24 114.844L1116.38 114.275L1117.03 113.136L1117.62 110.534L1117.97 110.25L1119.31 110.738L1124.65 110.697L1125.2 111.022L1126.06 112.628L1126.95 112.201L1131.65 108.481L1133.96 106.286L1135.73 105.493L1140.53 101.773L1143.29 100.289L1144.43 98.9065L1144.41 97.5242L1141.06 92.7267L1146.3 90.023L1149.09 91.2021L1149.54 91.1207L1173.79 79.8182L1173.95 79.2287L1172.93 77.9683V77.5821L1174.05 74.2889L1174.4 74.1873L1178.52 76.0372L1182.79 76.3827L1184.7 76.2811L1186.84 74.8784L1190.54 74.9598L1192.77 72.6627L1193.83 70.1623L1195.92 69.9793L1198.69 68.3124L1200.84 67.418L1201.56 67.5196L1201.82 69.2678L1201.66 69.5728L1195.68 72.8253L1195.74 73.3945Z" fill="#035F38" stroke="white"/>
  <path d="M895.052 4.72526L896.048 7.10367L896.556 7.36794L899.117 6.6971L901.76 5.47741L903.447 5.23347L904.768 5.45708L908.021 6.96137L909.159 6.49382L912.107 6.31087L915.075 6.8394L919.141 8.87223L921.519 9.6447L922.718 10.4375L923.592 11.5352L924.995 15.6415L925.869 16.475L927.882 17.2475L930.199 17.5524L933.431 20.9269L934.102 21.2318L936.765 21.3131L937.436 20.9676L939.469 18.6705L943.799 16.8003L944.388 16.0888L945.771 12.1857L946.746 11.149L948.291 11.1693L950.853 12.6533L952.947 12.6939L953.719 12.3687L954.939 10.9864L955.853 10.5798L959.797 9.80733L960.529 9.94963L960.915 12.7549L961.85 14.6455L963.273 17.4711L964.9 18.9551L965.428 21.3945L966.831 22.8174L968.193 25.4601L968.477 27.1677L968.152 31.8432L968.416 34.3029L967.563 36.3764L967.42 38.1043L967.583 38.7751L969.453 41.4381L969.595 44.7517L969.921 45.951L971.242 48.5327L973.011 50.4232L976.934 51.4397L979.333 53.3302L979.516 53.879L979.556 56.603L976.466 57.5585L975.755 58.1277L975.45 58.7782L975.043 61.8477L975.267 64.6937L975.816 68.3934L976.771 71.707L976.426 74.4309L975.613 76.5044L975.267 76.789L974.637 76.7484L971.201 76.0775L968.782 74.7969L968.457 74.8578L968.213 75.3457L968.233 77.9274L968.518 78.5373L969.229 79.1065L971.283 79.6147L971.689 80.2855L971.933 81.7898L970.49 83.7413L970.348 84.3308L970.795 85.022L971.974 85.7335L972.584 86.4653L973.153 87.746L973.397 90.0024L974.007 90.5309L975.45 90.9578L975.917 90.7952L978.885 88.2135L979.8 86.2823L981.569 85.9164L987.383 87.746L987.769 88.6404L987.505 90.2057L987.911 90.9375L990.676 90.409L993.461 91.3441L994.376 90.6529L996.042 90.1854L997.059 88.9453L997.018 87.685L996.225 85.3472L996.937 82.9078L997.872 81.5458L1003.02 82.1963L1007.98 83.2941L1009.38 84.4528L1009.48 85.7741L1010.88 86.5669L1010.76 87.8476L1013.52 89.4129L1013.83 89.3112L1014.46 88.2948L1014.72 85.8148L1013.42 84.4325L1010.35 82.8062L1010.92 80.7734L1012.08 78.8218L1011.09 77.2159L1009.24 75.7726L1008.56 74.248L1008.75 73.9431L1009.6 73.7398L1012.49 73.7804L1014.03 74.126L1017.43 76.728L1018.22 79.1674L1017.94 81.0376L1019.77 82.1963L1018.83 85.1033L1019.22 85.5505L1022.73 87.8476L1026.47 88.8844L1026.6 90.7952L1024.18 90.2667L1023.53 91.1001L1021.62 91.2018L1021.37 92.2995L1022.12 93.4176L1022.08 94.1697L1023.57 95.3284L1023.61 95.6537L1021.94 101.366L1023.99 103.582L1026.01 104.273L1026.51 104.009L1028.12 100.126L1028.91 98.9265L1035.54 101.61L1035.11 98.7232L1033.28 95.1251L1031.37 94.7389L1029.69 94.8405L1028.95 95.3691L1027.59 95.1048L1028.53 90.8969L1030.28 90.0227L1030.76 89.2503L1037.92 89.8804L1039.24 90.1041L1040.24 91.1001L1045.75 91.649L1045.62 94.6373L1048.18 95.0438L1049.24 98.4996L1049.83 98.8655L1054.43 99.8413L1057.54 100.878L1057.9 101.366L1062.33 101.203L1062.64 100.695L1062.37 99.3331L1062.66 98.9062L1063.92 99.3737L1065.52 100.736L1067.29 101.61L1067.62 101.447L1067.7 100.919L1066.66 98.52L1066.68 97.8288L1069.73 96.8124L1071.4 95.4097L1071.81 94.4746L1071.26 93.4379L1071.48 93.2346L1073.82 93.4785L1073.9 94.2104L1076.1 94.5966L1075.06 101.569L1073.76 107.444L1064.83 106.102L1063.51 108.562L1064.49 110.697L1063.15 111.327L1060.24 111.916L1060.71 113.847L1059.49 119.052L1056.72 119.499L1056.76 121.593L1057.62 121.755L1057.66 121.999L1056.23 126.695L1060.42 128.199L1060.85 128.972L1062.29 129.419L1062.31 130.557L1061.46 133.037L1062.15 133.871L1064.28 135.07L1066.34 139.664L1069.59 144.807L1068.09 146.352L1064.75 144.726L1063.84 150.967L1064.81 156.842L1070.46 151.902L1070.61 150.479L1072.86 149.646L1073.49 151.17L1075.55 149.788L1077.4 152.674L1075.36 153.772L1075.49 155.216L1073.21 156.313L1073.47 158.651L1071.22 162.026L1069.71 165.786L1067.35 167.717L1068.31 168.714L1072.68 165.644L1073.98 168.388L1071.18 171.681L1072.17 176.906L1077.52 176.825L1079.9 170.401L1081.71 170.97L1085.61 169.608L1087.82 175.605L1085.81 176.682L1086.2 180.118L1083.68 181.134L1084.23 187.395L1082.27 188.229L1080.59 184.61L1077.7 184.183L1075.87 181.663L1075.06 184.082L1077.07 189.408L1084.45 189.957L1084.67 192.518L1069.39 191.38L1066.56 185.952L1063.61 186.094L1063.13 183.492L1057.76 183.614L1050.2 179.772L1045.14 181.927L1044.04 170.238L1042.37 168.348L1042.35 163.53L1041.52 161.436L1040.18 161.558L1038.89 163.388L1034.63 163.428L1030.95 165.258L1029.26 163.672L1021.64 165.359L1019.79 170.197L1010.43 170.909L998.909 169.466L998.38 166.904L996.469 164.75L996.429 162.513L998.949 161.375L997.689 157.899L998.97 153.264L1000.56 150.886L992.363 141.982L992.607 139.481L988.582 139.38L987.261 142.043L984.801 142.388L983.866 143.689L982.768 143.872L981.284 145.417L977.788 145.377L977.361 144.198L970.978 143.059L971.567 139.197L971.039 139.156L971.201 137.205L954.512 137.672L953.556 143.181L949.979 143.71L950.71 148.507L946.868 149.015L946.279 145.885L942.254 140.803L942.051 139.664L940.668 139.563L940.058 140.62L932.334 140.823L933.513 139.786L933.35 137.835L935.017 137.693L934.57 135.965L936.277 134.989L935.932 131.33L933.106 132.489L928.207 131.249L927.313 132.57L925.971 131.899L926.926 129.744L926.479 122.975L924.304 122.223L923.918 119.092L915.339 118.95L913.855 120.535L911.924 120.657L910.989 122.548L908.793 122.08L908.062 125.394L906.395 125.557L907.066 128.687L909.261 129.155L907.98 132.123L905.256 131.35L905.155 128.26L904.443 125.963L902.797 125.536L902.329 123.829L899.849 123.341L899.727 120.515L895.844 120.21L895.966 123.605L890.396 124.012L890.213 122.019L886.331 121.735L885.985 123.381L882.936 123.158L884.237 125.211L883.912 126.309L884.969 127.508L884.074 128.565L878.26 128.403L878.382 131.757L880.314 131.635L879.094 134.054L878.057 132.854L876.045 134.379L875.963 136.046L874.825 136.514L873.158 136.676L871.959 138.526L874.805 142.653L874.988 144.889L877.163 145.621L878.403 148.202L882.814 148.548L882.306 153.223L885.05 153.447L885.741 155.703L885.599 158.468L884.196 158.915L886.514 162.127L880.435 167.738L882.306 174.222L880.131 173.775L883.485 177.597L880.11 179.284L879.033 178.918L877.285 180.707L875.923 180.606L875.252 183.025L873.605 183.187L870.78 184.895L870.027 188.676L868.93 188.859L867.934 192.071L863.583 191.481L861.896 192.457L860.351 195.892L854.598 195.77L855.472 200.202L857.891 201.178L858.339 203.109L853.399 208.496L851.834 207.297L850.634 209.39L851.651 210.813L849.354 213.09L848.276 212.48L844.109 208.659L838.478 206.382L836.161 203.495L827.379 203.739L827.826 217.339L819.471 214.371L816.95 215.814L812.58 215.265L808.575 213.11H795.911L795.626 206.849L788.104 208.008L782.209 210.63L778.855 203.597L772.492 203.211L772.98 182.415L777.188 181.317L776.924 173.857L777.757 173.918L777.432 167.819L775.481 167.697L774.058 161.233L775.806 159.119L779.973 159.403L782.555 157.35L788.348 158.57L789.344 154.179L783.388 150.459L782.982 132.854L776.314 132.143L774.586 126.98L776.355 124.581L779.567 121.43L779.485 110.737L774.424 111.835L770.297 98.5809L780.624 93.133L784.201 92.7874L785.319 91.71L783.165 85.9977L780.4 85.7335L772.94 81.058L780.522 78.3543L776.029 65.9947L777.168 64.3684L776.334 63.1487L774.302 55.4443L783.998 51.7243L796.317 48.6953L799.407 49.2645L801.237 46.8455L801.867 46.4999L807.945 45.6054L811.767 45.9104L813.373 44.2028L816.198 43.8775L820.914 42.7392L821.362 42.2716L821.748 40.1168L822.236 39.5883L823.11 39.6899L824.858 40.7063L829.025 40.564L831.648 41.5398L832.684 41.2145L833.518 40.564L835.002 40.5437L839.942 38.4905L840.551 37.2912L841.141 34.4249L841.751 33.5304L843.052 32.453L844.068 32.0465L845.694 32.1278L850.207 34.3639L853.216 33.5914L857.241 33.3475L857.83 32.7376L857.404 31.3147L857.932 28.9159L859.009 27.2693L860.636 25.7244L859.518 24.7283L859.03 23.7729L857.302 21.7604L856.977 21.1099L857.282 19.5446L856.265 17.9386L856.306 17.5931L859.314 17.5321L860.778 16.8816L861.347 17.0239L862.831 18.2436L863.339 18.0403L863.929 17.2068L864.6 16.9629L868.32 17.3898L872.121 16.5766L872.955 17.4101L873.646 17.4711L874.296 16.2717L874.825 13.2022L875.211 12.5516L876.329 12.0231L877.061 11.21L877.386 9.66503L877.996 8.75026L877.874 7.02236L878.769 5.98561L879.5 5.74167L881.391 6.14824L887.693 10.3562L888.526 10.6205L888.973 10.2139L889.299 9.2788L888.709 6.94104L887.591 5.68069L886.961 5.55872L885.985 6.02627L885.619 5.762L885.436 2.89571L885.761 1.57438L886.758 0.679932L888.201 0.720588L890.945 1.55405L894.238 3.62753L895.052 4.72526Z" fill="#035F38" stroke="white"/>
  <path d="M1304.84 265.151L1305.63 266.411L1308.34 272.815L1314.5 285.073L1314.86 286.333L1319.82 296.314L1320.53 298.388L1320.84 297.595L1321.35 299.018L1324.03 303.714L1325.7 307.352L1325.15 303.429L1325.33 301.6H1325.94L1326.22 302.718L1330.19 302.697L1330.11 299.221L1330.47 298.083L1332 297.9L1332.49 296.782L1335.29 296.7L1335.39 296.294L1335.94 296.152L1337.45 296.213L1339.54 293.834L1341.08 293.814L1340.94 292.614L1341.47 290.256L1341.45 287.166L1341.31 285.886L1339.78 284.28L1339.97 279.32L1341.23 279.035L1347.14 279.259L1347.47 278.283L1347.49 275.539L1348.1 273.831L1349.07 272.896L1353.55 274.217L1354.95 274.787L1356.11 275.701L1358.24 276.149L1358 276.88L1358.47 277.47L1362.02 278.791L1364.06 280.336L1365.03 279.686L1366.05 278.059L1366.94 278.385L1367.73 279.584L1367.76 282.003L1366.9 285.947L1365.05 288.894L1364.83 290.988L1364.26 292.472L1364.44 294.749L1368.26 294.871L1374.75 292.411L1377.45 292.452L1377.61 293.285L1377.96 293.326L1378.1 293.651L1378.16 295.277L1378.79 295.542L1379.16 297.249L1378.31 298.408L1378.81 299.424L1379.71 299.587L1380.87 302.616L1380.93 303.388L1379.77 305.787L1379.75 307.007L1380.93 307.291L1386.44 307.535L1392.13 306.438L1392.39 306.255L1392.58 303.795L1392.8 303.612L1393.37 303.917L1393.31 304.954L1396.03 303.368L1400.97 304.08L1401.76 304.425L1404.98 307.23L1407.03 307.861L1409.22 307.637L1410 307.21L1411.2 305.726L1411.79 305.564L1413.62 305.747L1415.49 305.421L1417.13 305.889H1418.76L1421.08 306.763L1422.36 306.824L1423.09 306.6L1427.09 304.039L1428.78 302.311L1429.17 301.417L1429.21 298.388L1429.82 295.684L1431.4 295.237L1434.9 296.66L1437.18 297.209L1439.31 297.351L1440.35 296.721L1441.02 295.582L1443.88 292.777L1444.31 291.679L1444.05 290.175L1444.58 289.87L1445.63 290.012L1446.08 290.5L1446.81 290.704L1447.36 292.025L1447.6 292.249L1447.95 292.147L1448.4 292.899L1450.19 291.537L1452.48 291.313L1455.98 292.147L1457.08 291.293L1456.28 292.391L1456.57 293.082L1459.46 294.342L1460.88 294.159L1463.03 294.668L1465.31 295.725L1468.1 298.144L1471.04 298.469L1472.16 298.876L1472.93 299.404L1478.14 305.299L1478.77 309.121L1479.17 309.853L1481.74 312.638L1482.96 314.955H1483.26L1485.11 316.663L1487.14 319.549L1488.97 321.298L1489.54 322.355L1489.77 323.208L1488.69 325.058L1488.63 326.217L1490.5 332.051L1490.44 332.946L1489.6 334.775L1489.62 335.487L1490.7 337.499L1493.14 340.284L1493.61 340.569L1496.53 340.447L1498.49 338.76L1499.18 338.699L1502.41 341.646L1503.71 342.256L1506.66 342.866L1507.72 343.557L1509.36 345.224L1510.13 345.59L1512.47 345.814L1513.06 346.647L1513.24 348.131L1516.11 348.192L1517.11 348.497L1519.71 350.631L1520.81 352.38L1521.13 353.884L1520.66 354.453L1519.75 353.843L1519.32 354.331L1519.44 355.226L1518.9 356.567L1519.04 358.905L1519.63 360.084L1520.42 360.653L1523.92 361.71L1524.45 363.072V364.434L1527.54 370.065L1527.88 371.265L1528 372.749L1527.45 375.086L1527.64 375.859L1528.17 376.794L1529.83 377.526L1530.77 379.05L1532.64 378.867L1533.74 379.599L1534.16 380.433L1535.5 380.006L1536.38 380.636L1537.15 380.006L1537.66 378.969L1539.18 378.318L1541.54 378.217L1544.02 379.071L1545.49 380.778L1546.4 381.042L1549.51 380.209L1550.79 380.534L1552.4 381.571L1556.06 381.205L1556.52 381.307L1556.99 381.917L1556.46 384.153L1556.67 384.661L1558.43 385.332L1560.57 383.705L1561.69 383.401L1563.39 383.482L1565.57 386.775L1565.92 386.836L1567.3 385.616L1566.87 383.665L1568.52 381.53L1568.4 379.823L1568.64 379.457L1573.42 377.749L1576.06 376.082L1578.42 372.809L1580.61 371.326L1581.43 370.025L1582.32 369.821L1583.23 368.967L1583.82 367.91L1583.21 366.874L1583.44 366.061L1590.92 366.081L1591.02 366.63L1589.52 369.74L1589.56 370.736L1590.13 371.691L1588.97 372.688L1586.79 373.907L1585.61 373.541L1583.74 375.92L1583.68 377.607L1584.25 379.538L1585.15 380.453L1587.22 380.107L1590.86 381.815L1590.96 382.1L1590.19 382.872L1591.71 384.132L1591.08 386.186L1591.31 387.548L1595.07 389.682L1595.37 392.182L1594.84 392.914L1594.8 393.524L1595.96 394.906L1596.39 396.37L1597.34 396.817L1598.7 396.716L1600.15 399.196L1606.14 399.724L1609.26 401.615L1609.76 402.387L1611 407.632V408.628L1610.37 408.526L1609.3 407.693L1607.43 407.754L1606.23 406.554L1603.99 405.558L1597.44 408.587L1595.64 408.628L1594.17 407.734H1593.62L1592.57 408.831L1591.94 411.596L1588.95 413.486L1588.03 414.625L1587.75 415.174L1587.65 416.881L1588.17 419.727L1591.2 423.569L1591.22 424.891L1589.17 426.436L1588.89 426.923L1588.68 428.163L1589.58 429.871L1589.33 431.66L1586.89 434.425L1586.26 436.193L1585.71 436.62L1584.23 437.027L1583.74 438.815L1582.99 439.71L1582.44 441.885L1580.59 442.271L1576.32 444.772L1574.6 443.857L1573.68 444.263L1571.77 444.385L1570.1 446.561L1567.68 448.268L1565.73 448.248L1559.82 447.455L1557.89 448.553L1555.91 448.044L1554.29 448.715L1552.91 448.858L1548.62 452.374L1547.48 454.55L1547.29 456.806L1545.18 462.173L1543.86 464.734L1543.7 466.747L1543.92 469.064L1543.15 471.036L1542.98 472.398L1541.4 475.528L1541.16 477.521L1543.17 488.64L1544.29 496.934L1543.59 502.057L1545.04 505.878L1547.34 509.151L1547.68 510.452L1547.03 513.4L1547.52 515.148L1547.27 518.828L1547.03 519.559L1546.52 519.946L1543.37 520.251L1542.54 521.165L1541.97 524.337L1540.81 526.837L1540.69 528.748L1537.37 528.422L1534.89 529.093L1533.76 528.666L1532.52 529.48L1531.3 528.585L1528.59 529.073L1527.29 531.777L1523.37 534.48L1522.55 536.025L1521.46 536.554L1519.89 536.574L1518.83 537.103L1518.31 539.562L1516.54 540.558L1514.71 540.518L1512.15 542.144L1511.82 542.103L1511.33 541.412L1508.08 541.717L1507.78 541.392L1507.92 541.067L1509.42 540.254L1510.18 538.465L1511.35 537.448L1510.78 536.92L1510.7 535.985L1509.69 535.537L1509.34 534.074L1508.14 532.387L1507.41 531.899H1506.54L1505.34 532.387L1502.59 532.346L1500.36 533.444L1498.57 532.895L1497.9 531.817L1497.29 531.573L1495.05 532.326L1493.61 531.939L1488.83 532.183L1487.51 532.468L1485.44 533.484L1482.65 534.216L1481.86 534.175L1479.44 532.427L1476.78 532.387L1474.5 531.329L1470.92 530.455L1468.58 530.435L1463.81 528.809L1462.81 528.219L1461.41 526.634L1458.97 524.56L1457.04 525.109L1454.76 522.121L1450.55 521.877L1447.79 519.254L1443.9 519.153L1442.99 519.336L1442.14 519.925L1440.67 528.931L1439.94 530.659L1438.4 531.451L1437.6 535.741L1436.59 539.278L1433.31 546.576L1432.62 549.056L1431.63 555.683L1429.98 561.598L1424.29 573.307L1423.21 576.153L1421.99 580.707L1421.36 590.221L1420.12 593.066L1417.99 596.847L1416.56 601.259L1413.62 607.825L1412.86 610.02L1412.19 613.496L1412.29 614.736L1408.21 616.2L1406.77 614.94L1406.28 611.728L1407.5 603.19L1401.09 596.217L1398 584.529L1384.91 569.181L1386.31 567.331L1384.59 567.676L1384.04 567.067L1386.03 565.583L1386.76 563.59L1385.83 563.631L1384.55 565.989L1383.16 564.952L1381.78 564.891L1380.46 564.607L1381.94 562.289L1380.79 562.269L1379.02 564.769L1377.74 563.286L1376.58 560.379L1374.36 561.822L1372.49 561.883L1370.28 558.508L1358 558.203L1346.51 551.78L1332.99 545.844L1333.16 541.778L1324.72 538.282L1305.92 544.848L1293.52 527.467L1275.93 529.439L1274 524.479L1269.02 524.032L1267.05 521.714L1262.33 518.645L1255.66 513.034L1249.3 521.145L1244.26 515.839L1238.47 522.344L1228.26 520.068L1227.18 522.06L1223.24 523.828L1218.59 521.552L1216.13 523.076L1214.22 528.341L1208.34 526.146L1204.5 523.3L1202.45 519.803L1198.91 517.974L1202.02 516.795L1203.71 512.688L1203.5 508.237L1207.24 507.647L1210.84 509.233L1210.41 506.224L1208.34 497.28L1207.45 496.873L1206.63 494.535L1209.01 489.27L1210.96 480.956L1212.91 481.037L1213.28 476.158L1215.98 476.138L1213.63 472.743L1220.98 470.06L1218.18 467.824L1214.2 468.129L1209.11 463.494L1210.15 460.445L1213.63 460.302L1214.48 458.209L1212.61 457.639L1206.43 457.802L1205.88 455.2L1202.47 453.614L1201 450.606L1204.13 449.65L1203.69 446.561L1205.74 444.67L1207.75 444.507L1210.78 445.544L1218.06 438.063L1218.02 435.543L1219.68 429.038L1218.06 424.199L1201.88 426.862L1199.09 421.313L1200.01 417.41L1199.66 415.072L1202.95 413.364L1203.77 414.523L1207.55 412.917L1203.73 408.933L1200.53 407.083L1200.43 403.261L1194.5 398.362L1191.16 397.264L1191.26 395.232L1188.09 391.593L1188.68 388.117L1198.01 383.624L1208.3 379.843L1211.82 374.314L1212.63 371.122L1211.59 368.337L1212.51 364.638L1211.31 362.849L1212.41 358.153L1216 358.051L1217.75 356.831L1223.34 354.27L1226.45 349.94L1232.27 345.102L1233.16 341.626L1235.78 340.081L1238.12 344.187L1255.1 351.262L1261.5 352.847L1266.95 350.347L1273.74 338.007L1276.44 335.202L1275.3 327.152L1271.56 326.095L1272.98 312.252L1264.81 306.824L1262.17 305.462L1258.96 302.941L1257.13 300.177L1254.12 299.262L1253.04 292.96L1248.31 286.109L1251.68 282.837L1252.6 283.568L1256.86 281.292L1257.37 279.015L1259.79 277.937L1260.69 279.991L1265.69 278.425L1273.78 273.282L1275.83 273.994L1275.46 270.985L1276.07 268.444L1274.04 268.79L1273.86 265.009L1281.77 263.85L1282.86 265.171L1287.97 260.17L1286.91 256.715L1292.97 255.17L1294.02 248.97L1296.99 248.624L1304.84 265.151Z" fill="#035F38" stroke="white"/>
  <path d="M820.729 591.684L895.456 592.863L902.612 604.552L906.129 616.139L911.556 629.962L916.435 651.083L918.691 654.295L921.72 670.944L925.278 695.053L923.794 696.049L923.082 700.745L920.338 705.035L919.687 711.316L914.727 723.696L914.829 724.834L909.503 732.457L913.65 733.921L912.552 735.629L914.26 740.914L916.394 739.979L917.289 740.04L916.842 742.012L919.586 741.585L923.774 744.634L924.993 741.625L925.888 741.707L926.66 744.898L930.218 745.224L931.193 746.647L932.596 746.098L933.572 747.317L932.86 749.696L934.873 751.647L936.336 750.672L937.353 751.444L935.93 753.965L937.17 754.961L938.451 755.53L937.434 756.546L938.776 758.437L938.247 762.828L938.369 765.471L939.142 766.426L938.166 768.987L942.313 771.549L945.22 771.386L945.667 773.175L948.005 774.049L948.228 775.797L949.509 776.143L949.997 777.485L951.135 779.091L953.29 779.497L955.973 784.193L959.124 783.359L959.836 784.64L959.124 786.653L960.832 786.734L960.852 787.974L963.068 789.986L962.56 791.003L962.519 792.324L962.885 793.219L962.702 793.991L963.21 794.418L965.223 794.255L963.637 796.248L961.259 797.691L960.669 797.711L959.551 796.857L958.25 798.077L957.539 799.256L954.876 802.183L954.754 803.261L952.904 807.916L951.908 808.119L950.871 807.164L950.221 806.981L950.18 805.07L949.712 804.298L947.558 803.098L945.261 801.086L944.366 801.065L944.041 801.452L943.594 803.586L942.496 804.907L940.89 806.147L941.215 809.258L939.101 810.62L937.637 811.087L935.97 812.957L934.466 816.19L930.604 818.365L929.709 820.459H929.12L928.693 819.158L927.778 819.28L926.152 822.939L923.652 823.955L922.635 823.081L921.578 822.796L920.155 823.691L917.472 823.975L916.008 825.256L913.223 826.008L910.011 829.2L909.035 831.233L906.759 831.903L905.336 833.123L904.706 834.221L905.051 834.973L906.047 835.623L905.763 836.498L905.417 836.66L903.527 836.355L901.25 836.904L899.522 836.254L897.001 836.559L896.025 837.148L895.09 839.181L893.2 840.258L892.224 842.698L891.655 843.084L890.476 842.433L890.029 842.576L888.341 845.198L888.179 847.515L886.817 848.817L886.552 850.361H885.638L885.068 850.748L883.3 852.659L879.559 858.086L878.929 859.509L878.665 861.074L877.527 862.111L875.961 862.721L874.742 863.737L874.294 862.355L875.819 861.318L874.701 860.81L874.01 861.135L873.441 860.912L873.014 859.611L871.001 860.871L870.737 860.363L866.529 860.099L866.549 861.196L869.639 861.4L870.391 862.579L869.66 863.351L870.493 865.506L869.761 871.848L872.567 875.731L873.522 878.536L875.575 879.634L876.307 881.423L872.628 882.887L870.574 882.744L869.883 883.7L865.716 882.48L866.183 881.504L864.557 880.163L862.951 880.59L859.455 877.601L856.223 876.463L853.153 873.028L848.234 870.121L846.14 869.551L844.92 867.844L845.55 865.892L849.026 865.77L848.945 861.318L850.205 860.058L849.026 857.11L850.226 855.85L852.34 855.403L851.669 854.996L851.161 855.22L849.982 854.122L847.38 855.809L846.668 854.793L845.408 855.911L842.582 853.268L840.834 851.154L840.082 850.951L838.883 849.853L825.73 849.447L823.596 849.975L822.844 849.874L822.112 849.386L794.303 847.312L791.335 813.445L770.742 810.945L770.925 794.926L771.718 793.991L771.799 788.36L774.564 789.56L774.625 788.767L778.06 789.6L794.018 773.053L799.568 776.468L810.687 765.247L820.567 757.827L831.117 753.924L844.229 747.378L848.091 744.898L848.254 743.109L845.449 743.862L843.924 740.203L844.615 737.316L842.318 737.418L842.745 734.978L840.59 736.198L841.22 739.613L839.533 740.65L838.354 735.425L842.359 734.267L843.172 729.815L842.847 728.006L846.607 724.143L846.587 715.565L850.49 718.959L852.177 718.146L852.625 712.292L851.466 709.283L850.632 708.104L852.665 705.949L855.064 704.974L856.589 706.193L859.374 703.429L848.518 695.684L843.985 690.175L843.883 688.325L839.35 685.784L836.951 686.556L832.743 682.45L833.211 679.035L834.004 677.917L833.76 639.09L827.478 636.406L819.977 630.186L822.478 620.957L822.864 615.123L824.084 610.955L826.482 607.56L827.621 605.04L826.421 601.198L820.181 596.38L820.729 591.684Z" fill="#035F38" stroke="white"/>
  <path d="M174.441 249.356L179.055 249.498L179.686 249.051L181.231 250.169L183.446 249.64L183.731 249.925L184.646 249.722L184.869 250.006L185.682 249.945L185.723 249.518L189.321 248.787L190.277 249.579L190.439 250.474L192.94 251.084L193.224 253.584L193.163 255.942L192.675 256.613L189.301 256.796L188.549 256.918L188.345 257.263L188.508 258.117L189.382 258.707L189.687 259.317L189.667 260.78L191.171 261.41L194.159 261.288L195.725 261.898L199.282 260.109L200.278 258.707L200.258 257.243L201.132 256.938L201.925 258.646L203.043 258.422L203.551 258.625L204.283 259.865L203.185 262.041L203.571 262.671L204.405 262.772L206.865 261.492L208.003 260.374L209.975 259.621L210.158 259.337L208.694 255.84L208.633 255.048L209.385 253.259L212.617 249.193L216.277 249.437L219.326 251.165L220.85 250.697L222.497 250.901L223.818 250.148L224.591 249.01L225.099 246.896L226.42 246.632L228.555 247.018L230.222 245.819L230.14 244.416L231.177 243.928L232.214 244.335L232.539 244.721L233.352 250.86L235.67 253.93L236.767 256.532L238.129 257.812L238.516 260.231L240.101 261.309L240.122 261.939L239.776 262.203L239.959 263.037L240.752 263.342L240.813 263.057L242.012 262.386L241.951 263.484L243.211 263.585L242.805 262.671L243.171 262.467L243.659 262.976L243.964 262.894L244.086 261.349L244.452 261.288L244.878 262.915L245.59 263.362L245.305 262.102L247.216 261.512L247.907 261.736L247.704 260.353L248.639 260.861V259.804L248.964 259.174L249.249 259.642L249.168 260.252L249.574 259.947L249.879 260.475L250.428 260.191L250.53 260.902L251.526 260.475L252.603 261.004L253.66 260.597L253.62 260.983L252.502 261.654L252.705 262.366H253.05L253.559 261.817L254.067 262.142L254.351 260.902L254.982 260.922L254.9 261.715L255.429 262.163L255.998 263.321L256.303 263.077L256.059 262.284L257.136 262.711L256.974 261.736L258.092 262.264L260.084 261.41L260.795 260.719L261.243 260.679L261.588 261.227L262.34 261.512L264.17 261.329L264.19 260.719L263.397 259.845L263.54 259.174L264.597 259.459L265.369 258.503L265.695 258.727L265.227 259.703L265.451 259.987L266.325 260.292L267.626 260.028L268.154 260.272L268.805 261.614L269.313 261.634L269.76 260.638L270.756 260.069L272.017 259.682L272.627 259.906L273.379 261.044L274.415 261.268L275.31 262.122L275.33 263.016L277.119 263.89L277.322 264.602L278.725 265.191L280.494 265.293L280.717 266.228L281.551 267.184L282.709 267.793L282.933 268.546L282.608 268.972L281.469 269.135L282.547 270.497L282.282 271.757L281.815 272.022L281.673 272.997L281.937 273.851L283.482 275.295L283.827 276.291L283.685 277.104L284.397 277.998L285.25 277.734L286.978 278.588L287.263 279.462L287.852 279.055L288.645 279.177L289.601 278.832L290.759 280.112L291.227 280.214L292.63 279.95L293.036 279.543L295.76 280.865L296.248 281.495L298.443 282.023L299.196 282.755L299.053 283.406L299.46 283.751L301.859 284.524L302.651 285.296L303.18 286.658L302.59 288.183L302.712 288.915L302.895 288.976L303.2 288.203L303.526 288.061L304.644 289.707L304.705 290.277L304.013 290.48L303.668 290.947L304.318 291.537L304.278 292.431L305.274 292.818L305.07 293.875L306.514 295.013L307.916 298.123L308.852 299.404L309.563 299.79L314.604 300.197L317.349 301.681L317.471 302.819L315.58 306.011L314.97 308.633L315.438 310.889L313.934 313.878L313.812 315.646L317.166 320.83L318.385 320.749L319.422 320.118L320.032 320.993L315.052 326.928L315.722 328.697L311.515 333.169L314.482 337.296L313.751 341.585L313.893 346.809L315.763 347.379L315.885 348.944L318.548 350.204L319.056 353.294L317.288 356.872L317.43 358.681L313.629 365.369L315.946 368.195H311.576L310.742 370.37L307.998 373.826L308.913 375.513L305.03 377.81L301.655 377.2L296.777 377.302L296.065 380.25L292.203 380.229L289.153 382.973L287.547 387.08L285.088 385.86L286.47 389.031L283.868 397.915L284.234 403.546L282.933 405.518L275.29 412.002L276.326 414.421L270.207 416.353L256.486 416.332L254.046 415.153L251.709 420.642L248.192 419.117L248.802 433.632L244.045 433.835L241.28 445.463L242.175 448.39L239.39 450.077L235.141 450.179L226.461 445.259L224.733 445.483L223.33 447.963L210.666 445.076L210.971 440.198L212.333 439.242L211.276 437.087L194.566 434.201L189.87 436.356L181.698 436.925L179.482 443.816L175.844 446.052L174.217 445.239L170.538 448.756L168.058 448.817L146.347 463.392L138.338 471.605L131.691 471.442L129.536 473.211L117.237 472.54L117.542 478.638L98.2099 470.975L87.2529 467.905L52.4102 464.022L32.3056 460.871L27.6707 461.115L21.6942 459.123L18.1571 454.936L18.34 454.265L18.0758 454.062L16.1649 454.102L13.3799 453.472L8.33851 451.053L2.17904 448.715L1 447.821L5.3096 435.725L7.99293 429.444L9.96477 423.589L12.3025 418.304L18.584 414.401L21.186 410.986L22.5683 407.449L23.1172 404.704L22.8122 403.363L21.8975 402.062L15.6973 396.512L12.4652 394.601L12.3635 393.808L13.2376 388.584L13.9288 381.042L15.4941 377.932L16.0836 373.602L16.0633 369.557L16.8154 363.865L17.3846 362.544L17.8115 362.076L19.9866 362.035L25.333 359.982L27.4268 358.58L29.8865 356.12L31.5331 353.599L34.1758 348.293L34.4197 347.602L33.9115 345.956L31.3298 341.849L33.9318 339.186L33.7692 338.455L32.9764 338.109L32.9561 334.958L33.6472 333.677L36.6965 333.454L37.1234 333.19L37.164 330.852L37.9162 330.384L38.5463 328.494L41.128 326.014L42.7949 325.607L45.6409 327.111L47.1452 329.043L50.3977 330.77L50.0521 331.462L51.3532 333.19L51.7394 333.515L53.2437 333.718L53.386 334.734L54.5854 336.442L56.6792 338.414L58.3461 340.65L58.8543 342.317L59.9114 343.191L60.0943 344.919L61.5173 346.139L62.1475 347.297L63.8347 347.826L64.2819 348.456L65.583 354.412L66.3351 355.164L66.4571 356.181L66.9043 356.933L67.9614 357.705L69.0388 359.596L69.3437 361.019L69.0794 361.812L69.547 362.157L71.2342 362.483L72.088 361.934L72.7792 362.096L73.3077 363.133L73.8972 363.377L74.2021 364.515L75.3609 363.987L76.0114 364.637L76.052 365.349L77.2311 365.837L77.5563 365.552L77.5766 363.946L89.4687 358.539L94.5101 353.599L95.0996 352.623L94.2052 350.042L94.0832 348.802L91.6032 348.314L90.5258 347.806L90.2615 347.277L90.3631 346.179L90.8104 345.61L91.1153 344.309L91.2169 343.008L90.6477 341.443L88.7572 338.353L88.1067 336.259L87.5172 330.933L85.5657 320.688L86.1349 318.797L85.5453 317.212L82.984 315.789L82.5367 314.935L82.4961 314.101L83.2889 313.146L84.1427 312.902L85.4437 313.207L88.1067 315.667L91.1559 315.911L92.4976 317.049L93.0058 317.09L94.7134 315.077L97.4984 313.471L99.2466 310.889L103.597 305.726L105.589 304.608L108.943 303.856L110.712 302.331L113.11 302.128L116.139 301.051L116.546 299.851L116.18 298.692L114.513 294.83L113.842 293.732L112.724 292.858L112.684 292.35L114.859 288.711L114.574 286.15L115.082 285.642L116.302 285.337L116.505 284.097L118.03 284.442L119.798 285.438L120.632 285.398L123.356 284.422L127.34 285.154L128.946 285.032L132.971 281.434L134.15 279.889L136.773 277.531L145.514 274.238L148.055 273.77L153.869 270.863L154.052 270.619L153.32 270.091L152.527 268.119L154.052 266.553L154.011 265.923L153.157 265.008L157.528 264.622L157.65 262.386H159.54L159.642 261.451L158.707 259.317L159.093 256.166L159.642 254.377L160.231 254.234L160.618 254.641L160.963 254.356L161.756 251.775L163.952 251.795L164.846 252.263L167.631 252.669L167.672 253.869L165.74 255.759L165.618 256.267L169.135 255.861L169.46 255.21L170.009 254.966L170.64 250.575L169.196 249.783L168.464 248.929L168.2 246.489L168.668 244.009L169.786 243.908L173.384 245.615L174.441 249.356Z" fill="#035F38" stroke="white"/>
  <path d="M1093.21 591.786L1090.04 598.718L1086.28 605.06L1087.99 625.795L1090.14 631.466L1078.21 630.592L1078.92 640.98L1090 641.265L1090.33 648.054L1091.87 649.904L1092.65 652.323L1105.33 661.207L1109.11 667.732L1107.3 674.4L1108.58 676.412L1116.12 683.629L1124.95 684.584L1125.62 684.666L1129.4 688.142L1131.86 688.487L1134.09 691.516L1138.2 694.321L1138.38 701.111L1137.49 703.469L1135.74 705.482L1136.66 709.405L1135.72 711.946L1134.22 712.658L1125.58 720.87L1125.6 724.367L1132.27 726.704L1133.61 725.79L1135.84 726.074L1135.25 727.965L1141.17 727.233L1142.59 729.632L1137.35 735.994L1136.9 740.589L1138.4 741.483L1137.86 743.821L1139.38 744.492L1140.32 748.354L1144.14 749.147L1151.58 752.664L1150.52 754.818L1148.24 755.51L1148.69 756.384L1152.51 755.957L1154.71 757.339L1156.76 756.445L1157.17 758.356L1157.47 758.315L1156.5 760.022L1155.78 763.438L1155.3 764.291L1153.63 765.552L1149.58 764.271L1144.73 764.047L1143.18 764.352L1142.25 764.21L1138.08 762.381L1136.21 762.645L1134.54 763.377L1133.34 763.173L1133 762.807L1131.57 762.726L1130.46 761.181L1128.69 760.429L1128.48 759.901L1126.72 759.026L1125.58 757.908L1123.95 757.705L1122.77 756.811L1122.43 757.014L1122.26 756.038L1121.9 755.591L1118.97 754.351L1118.2 754.961H1115.15L1113.81 753.152L1113.32 751.444L1112.2 750.448L1110.62 749.655L1110.11 748.11L1109.25 747.704L1107.63 746.24L1107 746.403L1106.2 745.894L1105.84 746.118L1105.09 744.756L1103.18 744.573L1102.61 743.882L1101.96 744.248L1101.16 743.821L1099.43 743.618L1099.11 743.211L1098.09 743.028L1097.54 741.849L1093.6 742.113L1092.62 741.869L1092.08 742.195L1092.93 743.963L1092.79 744.39L1092.18 744.715L1091.51 744.736L1089.86 745.65L1087.99 746.159L1086.06 745.569L1085.27 744.654L1084.13 744.329L1082.2 747.48L1081.63 749.431L1078.82 748.639L1077.2 748.822L1071.67 751.729L1069.02 752.826L1068.52 753.436L1068.35 753.782L1068.74 754.493L1068.64 755.144L1067.84 756.851L1066.79 758.213L1066.22 759.657L1066.36 766.304L1064.71 769.434L1063.21 774.679L1063.13 777.667L1063.8 780.879L1066.77 784.701L1066.65 785.88L1065.87 786.266L1065.24 786.348L1064.31 785.697L1060.14 785.311L1058.72 784.132L1058.74 781.611L1058.25 781.103L1055.97 780.981L1050.71 779.538L1047.88 779.822L1046.76 779.538L1045.52 779.965L1044.59 779.619L1042.98 779.558L1041.74 778.623L1040.16 778.359L1039.16 777.81L1036.42 774.008L1033.37 773.053L1030.99 771.732L1030.24 771.61L1028.73 771.976L1026.74 771.549L1018.18 767.585L1016.21 767.524L1014.58 768.052L1013.61 767.829L1012.78 768.621L1011.8 768.804L1010.56 768.377L1009.3 767.056L1006.45 766.243L1005.23 765.47L1004.64 764.637L1001.68 763.641L999.887 763.722L997.611 764.983L994.256 765.938L992.366 767.28L990.13 766.751L989.581 765.979L988.036 764.901L987.324 764.881L986.145 765.43L983.015 765.552L982.059 766.629L978.543 766.446L978.238 766.853L978.278 767.788L976.591 771.122L974.497 772.24L974.599 774.273L974.131 775.594L969.232 776.163L967.992 777.261L967.891 777.749L968.622 778.867L971.224 780.778L971.265 781.794L970.635 783.136L969.944 783.359L969.049 783.095L967.403 781.692L966.752 782.241L965.919 783.563L965.675 785.331L965.045 787.079L964.252 788.299L963.662 788.624L963.073 789.986L960.857 787.974L960.837 786.734L959.129 786.653L959.841 784.64L959.129 783.359L955.978 784.193L953.295 779.497L951.14 779.09L950.002 777.484L949.514 776.143L948.233 775.797L948.01 774.049L945.672 773.175L945.225 771.386L942.318 771.549L938.171 768.987L939.146 766.426L938.374 765.47L938.252 762.828L938.781 758.437L937.439 756.546L938.455 755.53L937.175 754.961L935.935 753.965L937.357 751.444L936.341 750.671L934.877 751.647L932.865 749.696L933.576 747.317L932.601 746.098L931.198 746.646L930.222 745.223L926.665 744.898L925.892 741.707L924.998 741.625L923.778 744.634L919.591 741.585L916.846 742.012L917.293 740.04L916.399 739.979L914.265 740.914L912.557 735.629L913.655 733.921L909.508 732.457L914.834 724.834L914.732 723.696L919.692 711.316L920.343 705.034L923.087 700.745L923.799 696.049L925.282 695.053L921.725 670.944L918.696 654.295L916.44 651.083L911.561 629.962L906.133 616.139L902.616 604.552L895.461 592.863L951.425 592.741L983.096 591.928L990.089 592.436L1027.92 591.033L1093.21 591.786Z" fill="#035F38" stroke="white"/>
  <path d="M565.112 546.718L564.462 549.544V552.796L564.238 556.273L568.141 561.05L573.569 560.826L579.647 561.903L581.822 560.155L583.347 560.379L583.469 563.794L582.818 570.523L580.338 574.751L576.476 577.048L572.796 578.43L569.95 581.012L565.803 581.744L562.124 585.159L561.473 587.639L560.091 589.57L556.961 590.221L554.48 590.953L554.013 592.924L553.179 594.022L552.631 597.153L552.082 599.816L550.049 601.198L550.232 602.946L550.334 605.162L552.265 607.276L553.098 610.508L553.749 613.171L553.566 616.485L552.082 619.9L551.614 621.933L553.464 623.315L554.379 626.629L554.48 634.089L553.464 636.386V638.785L554.48 642.2L556.229 643.684L557.062 646.266L559.461 646.449L561.026 648.38L562.693 653.808L563.608 658.036L563.059 662L561.677 665.964L560.477 666.614L559.563 667.529L558.505 668.363L543.95 657.853H543.91V657.833L510.043 633.378L510.002 633.398L509.941 631.833L509.291 630.085L508.091 628.885L506.607 627.97L506.14 626.405L505.774 624.738L504.575 622.258L505.591 620.978L505.774 618.945L505.408 615.814L505.876 613.964L505.042 612.399H503.192L501.912 611.931L501.18 611.098L499.797 610.366L499.066 611.281L498.415 612.765L497.033 613.781L495.915 614.411L494.268 614.35L493.17 613.802H491.89L491.422 614.716V616.648L490.589 617.196L490.385 619.209L480.607 612.155L476.969 613.558L477.07 611.85L478.371 609.675L480.12 608.801L480.343 604.898L481.868 600.548L483.819 596.421L485.547 594.022L487.499 592.721L491.625 591.847L494.939 590.078L495 590.058V590.241L495.732 590.363L496.829 591.278L499.228 591.644L501.708 591.461L502.542 590.729L503.822 589.347L505.571 588.33L507.502 589.347L509.169 590.546L508.437 592.213L506.77 594.063L505.571 595.811L504.473 597.559L504.005 599.775L503.904 601.706L504.188 603.19H506.302L508.518 602.357L510.734 602.174L512.482 602.824L513.946 601.625L514.779 599.409L515.613 596.746L516.995 597.478L518.276 596.827L519.374 594.978L519.841 592.213L519.475 588.432L519.008 586.867L518.926 585.2L519.658 582.537L518.642 580.24L515.694 575.361L514.312 573.328L514.21 571.112L515.491 570.828L519.353 570.726L522.118 570.828L524.517 571.295L526.082 573.226L525.98 576.276L526.265 578.756L527.098 580.138L526.814 582.435L526.346 584L527.627 584.732L530.392 584.549L531.957 582.984L533.99 581.236L535.738 580.219L538.868 580.585L543.015 581.419L545.13 581.886L547.244 583.086L549.541 585.566L552.021 586.399L557.266 585.383H559.481L561.412 584.102L563.71 582.72L564.543 579.772L564.624 575.727L563.425 573.43L561.494 570.482L561.209 568.734L561.108 566.884L559.359 567.25L557.875 569.1L554.826 571.214L552.427 570.38L550.679 568.998L549.581 566.884H547.284L544.703 567.25L542.405 567.9L540.556 568.815H538.34L535.575 567.616L534.66 566.233L533.278 563.184L532.099 561.721L532.343 557.655L533.969 555.48L542.934 549.503H545.658L547.569 551.414L548.646 553.589L548.382 559.017L548.931 560.928L550.395 559.891V553.589L553.444 554.463L556.046 555.764L558.221 554.687L559.745 552.939L561.27 552.065V549.544L558.668 547.592L556.717 547.369L554.541 546.291L554.765 544.34L558.241 544.116H560.193L562.144 545.844L565.112 546.718ZM533.542 611.545L535.494 610.285L537.445 609.451L539.133 608.476H549.642L549.073 607.5L545.007 607.358L541.226 606.666L540.251 604.573L535.209 604.003L531.855 604.288L528.643 604.43L525.289 605.264L525.147 608.211L525.004 612.419H529.212L533.542 611.545Z" fill="#035F38" stroke="white" stroke-width="0.5"/>
</svg>
