<svg width="36" height="36" viewBox="0 0 36 36" fill="none" xmlns="http://www.w3.org/2000/svg">
  <path d="M17.9988 2C14.8839 2.0026 11.8967 3.23769 9.68956 5.4355C7.48238 7.6333 6.2346 10.6152 6.21875 13.73C6.21875 18.4 8.83875 22.31 10.7588 25.16L11.1087 25.68C13.019 28.4486 15.0683 31.1187 17.2488 33.68L18.0088 34.57L18.7688 33.68C20.9489 31.1185 22.9982 28.4484 24.9088 25.68L25.2588 25.15C27.1688 22.3 29.7888 18.4 29.7888 13.73C29.7729 10.6135 28.5237 7.63006 26.3144 5.43197C24.1051 3.23388 21.1153 1.99996 17.9988 2V2ZM17.9988 19C16.7013 19 15.433 18.6153 14.3542 17.8944C13.2754 17.1736 12.4346 16.1491 11.9381 14.9504C11.4416 13.7517 11.3117 12.4327 11.5648 11.1602C11.8179 9.88769 12.4427 8.71881 13.3601 7.80138C14.2776 6.88395 15.4464 6.25917 16.719 6.00605C17.9915 5.75293 19.3105 5.88284 20.5092 6.37935C21.7078 6.87586 22.7324 7.71667 23.4532 8.79546C24.174 9.87425 24.5588 11.1426 24.5588 12.44C24.5588 14.1798 23.8676 15.8484 22.6374 17.0786C21.4071 18.3089 19.7386 19 17.9988 19V19Z" fill="white"/>
  <path d="M17.9995 16.17C20.0596 16.17 21.7295 14.5 21.7295 12.44C21.7295 10.3799 20.0596 8.70996 17.9995 8.70996C15.9395 8.70996 14.2695 10.3799 14.2695 12.44C14.2695 14.5 15.9395 16.17 17.9995 16.17Z" fill="white"/>
</svg>
