<svg width="26" height="26" viewBox="0 0 26 26" fill="none" xmlns="http://www.w3.org/2000/svg">
<path d="M16.7247 12.3375H17.0869L16.8307 12.0814L13.3419 8.5942C13.3419 8.59419 13.3418 8.59418 13.3418 8.59417C13.2802 8.53256 13.2314 8.45942 13.198 8.37893C13.1647 8.29843 13.1475 8.21215 13.1475 8.12501C13.1475 8.03787 13.1647 7.95159 13.198 7.87109C13.2314 7.79059 13.2802 7.71744 13.3419 7.65583C13.4035 7.59421 13.4766 7.54534 13.5571 7.51199C13.6376 7.47865 13.7239 7.46148 13.811 7.46148C13.8982 7.46148 13.9845 7.47865 14.065 7.51199C14.1455 7.54534 14.2186 7.59421 14.2802 7.65583L19.1552 12.5308L19.1554 12.531C19.2171 12.5925 19.266 12.6656 19.2994 12.7461C19.3328 12.8266 19.35 12.9129 19.35 13C19.35 13.0872 19.3328 13.1734 19.2994 13.2539C19.266 13.3344 19.2171 13.4075 19.1554 13.4691L19.1552 13.4692L14.2802 18.3442C14.1558 18.4686 13.987 18.5385 13.811 18.5385C13.6351 18.5385 13.4663 18.4686 13.3419 18.3442C13.2174 18.2198 13.1475 18.051 13.1475 17.875C13.1475 17.699 13.2174 17.5303 13.3419 17.4058L16.8307 13.9186L17.0869 13.6625H16.7247L7.31105 13.6625C7.13534 13.6625 6.96683 13.5927 6.84259 13.4685C6.71835 13.3442 6.64855 13.1757 6.64855 13C6.64855 12.8243 6.71835 12.6558 6.84259 12.5316C6.96683 12.4073 7.13534 12.3375 7.31105 12.3375L16.7247 12.3375Z" fill="white" stroke="white" stroke-width="0.3"/>
</svg>
