<svg width="99" height="99" fill="none" xmlns="http://www.w3.org/2000/svg"><path fill-rule="evenodd" clip-rule="evenodd" d="M23.58 54.554c-3.113 5.647-4.857 10.734-5.232 15.26.209 4.351 4.715 5.279 13.52 2.783 14.15-4.973 27.737-13.602 40.757-25.886 6.415-6.321 9.079-11.464 7.992-15.428-1.446-5.281-7.053-7.402-16.82-6.362-.418-.58-.315-1.076.31-1.491 9.77-2.615 22.73 1.426 19.442 13.637-5.58 12.958-18.198 24.674-37.85 35.147-14.887 6.838-24.695 7.899-29.422 3.181-3.604-5.416-1.47-13.416 6.396-23.998l.078.697c.024.476.356.88.403 1.337.045.446.287.6.426 1.123z" fill="#FEFEFE"/><path fill-rule="evenodd" clip-rule="evenodd" d="m21.628 61.722 47.066-.406V23.78l-5.811-3.37-5.81 3.254v9.645l-12.537 6.116-.247-6.93h-2.556l-.378 8.498-3.936 2.034-.916-15.412h-2.208l-.813 17.083-3.094 1.358-1.438-21.114h-2.208l-1.163 23.416-3.95 1.976v11.388zm2.293-1.057 2.325-.022v-8.812l1.627-.639v9.45h3.487V49.566l1.627-.814v11.885h3.197V47.24l1.569-.813v14.206h3.428V44.799l1.628-.813v16.643h3.312V42.475l1.685-.814v18.975h3.371V40.15l1.511-.813v21.255h4.068V35.908L23.921 51.424v9.24zm34.742-35.958 3.69-2.209v37.985h-3.69V24.707z" fill="#FEFEFE"/><path fill-rule="evenodd" clip-rule="evenodd" d="M49.324.022c27.241 0 49.325 22.084 49.325 49.325 0 27.24-22.084 49.324-49.325 49.324C22.084 98.671 0 76.588 0 49.347S22.083.022 49.324.022zm0 4.41c24.806 0 44.916 20.109 44.916 44.915 0 24.806-20.11 44.915-44.916 44.915-24.806 0-44.915-20.11-44.915-44.915 0-24.806 20.11-44.916 44.915-44.916z" fill="#FEFEFE"/></svg>