<svg width="99" height="99" viewBox="0 0 99 99" fill="none" xmlns="http://www.w3.org/2000/svg">
<path fill-rule="evenodd" clip-rule="evenodd" d="M84.5343 70.4829C77.2848 82.253 64.2816 90.1007 49.4435 90.1007C34.6058 90.1007 21.6026 82.253 14.3532 70.4829H23.1729H73.3319H84.5343V70.4829Z" fill="#FEFEFE"/>
<path fill-rule="evenodd" clip-rule="evenodd" d="M65.0592 66.7559V61.5215L61.0777 58.8221C60.2249 58.2438 60.0007 57.0765 60.5789 56.2238C61.1572 55.371 62.3244 55.1467 63.1772 55.725L65.0592 57.0009V51.8667L59.6095 48.3994C58.7403 47.8463 58.4823 46.686 59.0354 45.8165C59.5884 44.9473 60.7487 44.6891 61.6182 45.2424L65.0592 47.4317V42.0199C65.0285 42.0034 64.9982 41.986 64.9682 41.9675L61.8423 40.0393C60.9652 39.4984 60.6911 38.3418 61.2322 37.4647C61.7731 36.5876 62.9297 36.3136 63.8068 36.8546L65.0592 37.6271V32.31C64.9505 32.2686 64.844 32.2166 64.7415 32.1534L58.3551 28.2136C57.478 27.6725 57.2039 26.5159 57.745 25.639C58.286 24.7619 59.4427 24.4878 60.3196 25.0289L65.0592 27.9528V24.2253L51.3485 16.3094V19.7145C51.3857 19.7342 51.4227 19.7549 51.459 19.7774L55.7259 22.4094C56.603 22.9505 56.8771 24.1069 56.336 24.984C55.7949 25.8611 54.6385 26.1352 53.7614 25.5941L51.3485 24.1056V29.5C51.4922 29.5455 51.6327 29.6089 51.7664 29.6914L59.4363 34.4226C60.3134 34.9635 60.5875 36.1201 60.0464 36.9972C59.5053 37.8743 58.3487 38.1484 57.4718 37.6073L51.3485 33.8301V38.9315L57.3205 42.7312C58.1899 43.2842 58.4479 44.4446 57.8946 45.314C57.3416 46.1834 56.1813 46.4414 55.3118 45.8882L51.3485 43.3666V48.4254L54.4609 50.5354C55.3139 51.1137 55.538 52.281 54.9597 53.1337C54.3814 53.9867 53.2142 54.2108 52.3614 53.6325L51.3485 52.9459V58.2507C51.3951 58.2749 51.4407 58.301 51.4858 58.3295L58.7848 62.9366C59.6561 63.4865 59.9182 64.6461 59.3682 65.5174C58.8183 66.3887 57.6587 66.6508 56.7874 66.1007L51.3485 62.6676V68.1966H60.8264C60.2679 67.5443 60.2153 66.566 60.7527 65.8532C61.3729 65.0302 62.5499 64.8648 63.3727 65.485L65.0592 66.7559V66.7559ZM41.4889 68.1844H42.7067C43.7372 68.1844 44.5776 69.0248 44.5776 70.0553C44.5776 71.0858 43.7372 71.9262 42.7067 71.9262H41.4889C40.4584 71.9262 39.618 71.0858 39.618 70.0553C39.618 69.0248 40.4584 68.1844 41.4889 68.1844ZM58.3622 52.9358L58.9207 53.3145C59.7736 53.8926 59.9976 55.06 59.4195 55.9128C58.8411 56.7656 57.6737 56.9899 56.8211 56.4116L56.2626 56.0329C55.4099 55.4546 55.1857 54.2873 55.7639 53.4346C56.3422 52.5818 57.5094 52.3575 58.3622 52.9358V52.9358ZM47.6066 16.0166L33.5895 24.1095V68.1966L36.7665 68.2856C37.7089 68.2856 38.492 68.9885 38.6191 69.8967C38.631 69.9818 38.6374 70.0684 38.6374 70.1565C38.6374 71.187 37.797 72.0275 36.7665 72.0275L31.7185 71.9384C30.688 71.9384 29.8476 71.098 29.8476 70.0675V23.0292C29.8476 22.3422 30.1881 21.7525 30.7831 21.409L48.2886 11.3023C48.8835 10.9588 49.5645 10.9588 50.1595 11.3023L67.8656 21.5248C68.4605 21.8683 68.801 22.458 68.801 23.145V70.0675C68.801 71.098 67.9606 71.9384 66.9301 71.9384H47.5166C46.4861 71.9384 45.6457 71.098 45.6457 70.0675L45.6461 70.0316C45.6653 69.0177 46.4981 68.1966 47.5166 68.1966H47.6066V16.0166V16.0166ZM45.6466 25.0482V60.2085C45.6466 61.239 44.8062 62.0794 43.7757 62.0794C42.7452 62.0794 41.9048 61.239 41.9048 60.2085V25.0482C41.9048 24.0176 42.7452 23.1772 43.7757 23.1772C44.8062 23.1772 45.6466 24.0176 45.6466 25.0482ZM39.5888 35.1448V51.4183C39.5888 52.4488 38.7483 53.2892 37.7178 53.2892C36.6873 53.2892 35.8469 52.4488 35.8469 51.4183V35.1448C35.8469 34.1143 36.6873 33.2739 37.7178 33.2739C38.7483 33.2739 39.5888 34.1143 39.5888 35.1448Z" fill="#FEFEFE"/>
<path fill-rule="evenodd" clip-rule="evenodd" d="M49.3242 0.0224609C76.5652 0.0224609 98.6486 22.1058 98.6486 49.3468C98.6486 76.5878 76.5652 98.6712 49.3242 98.6712C22.0832 98.6712 0 76.5878 0 49.3468C0 22.1058 22.0832 0.0224609 49.3242 0.0224609V0.0224609ZM49.3242 4.43146C74.1302 4.43146 94.2397 24.5409 94.2397 49.3468C94.2397 74.1528 74.1302 94.2622 49.3242 94.2622C24.5183 94.2622 4.40889 74.1528 4.40889 49.3468C4.40889 24.5409 24.5183 4.43146 49.3242 4.43146V4.43146Z" fill="#FEFEFE"/>
</svg>
