<svg width="46" height="46" viewBox="0 0 46 46" fill="none" xmlns="http://www.w3.org/2000/svg">
<path d="M22.9732 23.6536C17.5586 23.6536 13.0583 19.1571 13.0583 13.8365C13.0583 8.33179 17.5586 3.83337 22.9751 3.83337C28.5756 3.83337 32.89 8.32987 32.89 13.8365C32.8804 16.449 31.8338 18.9508 29.9804 20.792C28.1269 22.6332 25.6183 23.6632 23.0058 23.6555L22.9732 23.6536V23.6536ZM22.9732 9.61596C20.6808 9.61596 18.9367 11.5422 18.9367 13.8384C18.9367 16.1307 20.6808 17.8749 22.9751 17.8749C25.3613 17.8749 27.0135 16.1307 27.0135 13.8384C27.0154 11.5403 25.3613 9.61596 22.9732 9.61596ZM26.9215 31.8225L32.5239 37.237C33.626 38.4273 33.626 40.1715 32.5239 41.2735C31.3318 42.4638 29.4937 42.4638 28.5756 41.2735L22.9751 35.767L17.5586 41.2735C17.0085 41.8236 16.2725 42.0977 15.4445 42.0977C14.8024 42.0977 14.0684 41.8217 13.4244 41.2735C12.3223 40.1715 12.3223 38.4273 13.4244 37.2351L19.1168 31.8205C17.0611 31.2118 15.089 30.3497 13.2461 29.2541C11.868 28.52 11.5939 26.6858 12.328 25.3077C13.2461 23.9315 14.8983 23.5655 16.3683 24.4835C18.359 25.6984 20.6459 26.3411 22.978 26.3411C25.31 26.3411 27.597 25.6984 29.5876 24.4835C31.0577 23.5655 32.7999 23.9315 33.626 25.3077C34.454 26.6858 34.0841 28.5181 32.798 29.2541C31.0558 30.3562 29.0356 31.1823 26.9234 31.8244L26.9215 31.8225V31.8225Z" fill="#009247"/>
</svg>
