<svg width="20" height="20" viewBox="0 0 20 20" fill="none" xmlns="http://www.w3.org/2000/svg">
  <path fill-rule="evenodd" clip-rule="evenodd" d="M9.99982 3.75C11.3506 3.75052 12.6649 4.18866 13.7458 4.9988C14.8267 5.80894 15.6161 6.94746 15.9956 8.24385C16.3752 9.54023 16.3245 10.9247 15.8512 12.1899C15.3779 13.455 14.5075 14.5328 13.3702 15.2618C12.233 15.9908 10.8902 16.3317 9.54299 16.2335C8.19576 16.1352 6.91661 15.6032 5.89712 14.717C4.87764 13.8308 4.17271 12.6382 3.8879 11.3177C3.6031 9.9973 3.75376 8.62013 4.31732 7.3925C4.37866 7.24324 4.37989 7.07605 4.32076 6.9259C4.26163 6.77576 4.14671 6.6543 4.00007 6.58696C3.85343 6.51961 3.68642 6.51159 3.534 6.56458C3.38158 6.61757 3.25556 6.72746 3.18232 6.87125C2.50608 8.34449 2.32536 9.99716 2.66723 11.5817C3.0091 13.1663 3.85515 14.5974 5.07866 15.6608C6.30217 16.7242 7.83727 17.3625 9.45401 17.4802C11.0708 17.5979 12.6821 17.1886 14.0467 16.3136C15.4113 15.4387 16.4557 14.1452 17.0235 12.6268C17.5912 11.1085 17.6518 9.44703 17.196 7.89139C16.7403 6.33575 15.7928 4.96964 14.4955 3.99769C13.1981 3.02574 11.6208 2.50028 9.99982 2.5V3.75Z" fill="white"/>
  <path d="M9.99966 5.58261V0.667608C9.99964 0.608228 9.9827 0.550084 9.95083 0.499984C9.91896 0.449884 9.87347 0.409902 9.81969 0.384719C9.76592 0.359537 9.70608 0.350196 9.64719 0.357792C9.5883 0.365388 9.53279 0.389605 9.48716 0.427608L6.53716 2.88511C6.502 2.91444 6.4737 2.95113 6.45429 2.99261C6.43487 3.03408 6.4248 3.07931 6.4248 3.12511C6.4248 3.1709 6.43487 3.21613 6.45429 3.25761C6.4737 3.29908 6.502 3.33578 6.53716 3.36511L9.48716 5.82261C9.53279 5.86061 9.5883 5.88483 9.64719 5.89242C9.70608 5.90002 9.76592 5.89068 9.81969 5.8655C9.87347 5.84031 9.91896 5.80033 9.95083 5.75023C9.9827 5.70013 9.99964 5.64199 9.99966 5.58261Z" fill="white"/>
</svg>
