<svg width="35" height="35" viewBox="0 0 35 35" fill="none" xmlns="http://www.w3.org/2000/svg">
<g clip-path="url(#clip0_1_78)">
<path fill-rule="evenodd" clip-rule="evenodd" d="M34.1979 8.67413C34.44 7.87788 34.1979 7.29163 33.0385 7.29163H29.2104C28.2362 7.29163 27.7871 7.79767 27.5435 8.35621C27.5435 8.35621 25.5967 13.017 22.839 16.0445C21.9465 16.9225 21.541 17.201 21.054 17.201C20.8104 17.201 20.4444 16.9225 20.4444 16.1248V8.67413C20.4444 7.71746 20.176 7.29163 19.3652 7.29163H13.3452C12.7371 7.29163 12.371 7.73496 12.371 8.15642C12.371 9.06204 13.7506 9.27204 13.8921 11.8212V17.36C13.8921 18.5748 13.669 18.795 13.1819 18.795C11.884 18.795 8.72667 14.1123 6.85271 8.75433C6.48958 7.71163 6.12208 7.29163 5.14354 7.29163H1.3125C0.21875 7.29163 0 7.79767 0 8.35621C0 9.35079 1.29792 14.2916 6.04479 20.8264C9.20937 25.2889 13.6646 27.7083 17.7231 27.7083C20.1571 27.7083 20.4575 27.1716 20.4575 26.2456V22.8725C20.4575 21.7977 20.6879 21.5833 21.4594 21.5833C22.0281 21.5833 23.0008 21.8633 25.2729 24.0143C27.8687 26.565 28.296 27.7083 29.7573 27.7083H33.5854C34.6792 27.7083 35.2275 27.1716 34.9125 26.11C34.5654 25.0541 33.3258 23.5214 31.6823 21.7029C30.7898 20.6675 29.451 19.5518 29.0442 18.9933C28.4769 18.2773 28.6387 17.9579 29.0442 17.3206C29.0442 17.3206 33.7108 10.866 34.1965 8.67413H34.1979Z" fill="#009247"/>
</g>
<defs>
<clipPath id="clip0_1_78">
<rect width="35" height="35" fill="white"/>
</clipPath>
</defs>
</svg>
