<svg width="20" height="20" viewBox="0 0 20 20" fill="none" xmlns="http://www.w3.org/2000/svg">
  <path d="M10.1922 0.884644C5.04933 0.884644 0.865234 5.11184 0.865234 10.3077C0.865234 15.5036 5.04933 19.7308 10.1922 19.7308C15.3352 19.7308 19.5192 15.5036 19.5192 10.3077C19.5192 5.11184 15.3352 0.884644 10.1922 0.884644ZM2.73064 10.3077C2.73064 9.46059 2.87614 8.64737 3.13263 7.88693L4.59604 9.36541L6.46144 11.25V13.1346L8.32684 15.0193L9.25954 15.9616V17.7812C5.58563 17.3147 2.73064 14.1448 2.73064 10.3077ZM16.0962 14.8996C15.4872 14.4039 14.5638 14.077 13.923 14.077V13.1346C13.923 12.6348 13.7265 12.1555 13.3767 11.802C13.0269 11.4486 12.5524 11.25 12.0576 11.25H8.32684V8.4231C8.82158 8.4231 9.29605 8.22455 9.64588 7.87111C9.99571 7.51768 10.1922 7.03832 10.1922 6.53849V5.59618H11.1249C11.6197 5.59618 12.0941 5.39762 12.444 5.04419C12.7938 4.69076 12.9903 4.2114 12.9903 3.71157V3.32428C15.7213 4.44468 17.6538 7.15099 17.6538 10.3077C17.6537 11.9706 17.1057 13.5861 16.0962 14.8996Z" fill="#2E6143"/>
</svg>
