<svg width="25" height="25" viewbox="0 0 25 25" fill="none" xmlns="http://www.w3.org/2000/svg">
  <path d="M15.9375 11.5625C15.6889 11.5625 15.4504 11.4637 15.2746 11.2879C15.0988 11.1121 15 10.8736 15 10.625C15 10.3764 15.0988 10.1379 15.2746 9.96209C15.4504 9.78627 15.6889 9.6875 15.9375 9.6875C16.1861 9.6875 16.4246 9.78627 16.6004 9.96209C16.7762 10.1379 16.875 10.3764 16.875 10.625C16.875 10.8736 16.7762 11.1121 16.6004 11.2879C16.4246 11.4637 16.1861 11.5625 15.9375 11.5625ZM15.9375 15.3125C15.6889 15.3125 15.4504 15.2137 15.2746 15.0379C15.0988 14.8621 15 14.6236 15 14.375C15 14.1264 15.0988 13.8879 15.2746 13.7121C15.4504 13.5363 15.6889 13.4375 15.9375 13.4375C16.1861 13.4375 16.4246 13.5363 16.6004 13.7121C16.7762 13.8879 16.875 14.1264 16.875 14.375C16.875 14.6236 16.7762 14.8621 16.6004 15.0379C16.4246 15.2137 16.1861 15.3125 15.9375 15.3125ZM15 18.125C15 18.3736 15.0988 18.6121 15.2746 18.7879C15.4504 18.9637 15.6889 19.0625 15.9375 19.0625C16.1861 19.0625 16.4246 18.9637 16.6004 18.7879C16.7762 18.6121 16.875 18.3736 16.875 18.125C16.875 17.8764 16.7762 17.6379 16.6004 17.4621C16.4246 17.2863 16.1861 17.1875 15.9375 17.1875C15.6889 17.1875 15.4504 17.2863 15.2746 17.4621C15.0988 17.6379 15 17.8764 15 18.125ZM13.75 10.625C13.75 10.4592 13.6842 10.3003 13.5669 10.1831C13.4497 10.0658 13.2908 10 13.125 10H8.75C8.58424 10 8.42527 10.0658 8.30806 10.1831C8.19085 10.3003 8.125 10.4592 8.125 10.625C8.125 10.7908 8.19085 10.9497 8.30806 11.0669C8.42527 11.1842 8.58424 11.25 8.75 11.25H13.125C13.2908 11.25 13.4497 11.1842 13.5669 11.0669C13.6842 10.9497 13.75 10.7908 13.75 10.625ZM13.75 14.375C13.75 14.2092 13.6842 14.0503 13.5669 13.9331C13.4497 13.8158 13.2908 13.75 13.125 13.75H8.75C8.58424 13.75 8.42527 13.8158 8.30806 13.9331C8.19085 14.0503 8.125 14.2092 8.125 14.375C8.125 14.5408 8.19085 14.6997 8.30806 14.8169C8.42527 14.9342 8.58424 15 8.75 15H13.125C13.2908 15 13.4497 14.9342 13.5669 14.8169C13.6842 14.6997 13.75 14.5408 13.75 14.375ZM13.75 18.125C13.75 17.9592 13.6842 17.8003 13.5669 17.6831C13.4497 17.5658 13.2908 17.5 13.125 17.5H8.75C8.58424 17.5 8.42527 17.5658 8.30806 17.6831C8.19085 17.8003 8.125 17.9592 8.125 18.125C8.125 18.2908 8.19085 18.4497 8.30806 18.5669C8.42527 18.6842 8.58424 18.75 8.75 18.75H13.125C13.2908 18.75 13.4497 18.6842 13.5669 18.5669C13.6842 18.4497 13.75 18.2908 13.75 18.125ZM10.625 2.5C10.2371 2.4998 9.85867 2.61991 9.54189 2.84379C9.2251 3.06766 8.98555 3.38428 8.85625 3.75H6.875C6.37772 3.75 5.90081 3.94754 5.54917 4.29918C5.19754 4.65081 5 5.12772 5 5.625V20.625C5 21.1223 5.19754 21.5992 5.54917 21.9508C5.90081 22.3025 6.37772 22.5 6.875 22.5H18.125C18.6223 22.5 19.0992 22.3025 19.4508 21.9508C19.8025 21.5992 20 21.1223 20 20.625V5.625C20 5.12772 19.8025 4.65081 19.4508 4.29918C19.0992 3.94754 18.6223 3.75 18.125 3.75H16.1437C16.0144 3.38428 15.7749 3.06766 15.4581 2.84379C15.1413 2.61991 14.7629 2.4998 14.375 2.5H10.625ZM10 4.375C10 4.20924 10.0658 4.05027 10.1831 3.93306C10.3003 3.81585 10.4592 3.75 10.625 3.75H14.375C14.5408 3.75 14.6997 3.81585 14.8169 3.93306C14.9342 4.05027 15 4.20924 15 4.375C15 4.54076 14.9342 4.69973 14.8169 4.81694C14.6997 4.93415 14.5408 5 14.375 5H10.625C10.4592 5 10.3003 4.93415 10.1831 4.81694C10.0658 4.69973 10 4.54076 10 4.375ZM6.875 5H8.85625C8.98555 5.36572 9.2251 5.68234 9.54189 5.90621C9.85867 6.13009 10.2371 6.2502 10.625 6.25H14.375C14.7629 6.2502 15.1413 6.13009 15.4581 5.90621C15.7749 5.68234 16.0144 5.36572 16.1437 5H18.125C18.2908 5 18.4497 5.06585 18.5669 5.18306C18.6842 5.30027 18.75 5.45924 18.75 5.625V20.625C18.75 20.7908 18.6842 20.9497 18.5669 21.0669C18.4497 21.1842 18.2908 21.25 18.125 21.25H6.875C6.70924 21.25 6.55027 21.1842 6.43306 21.0669C6.31585 20.9497 6.25 20.7908 6.25 20.625V5.625C6.25 5.45924 6.31585 5.30027 6.43306 5.18306C6.55027 5.06585 6.70924 5 6.875 5Z" fill="#2E6143"/>
</svg>
