<svg width="24" height="24" viewBox="0 0 24 24" fill="none" xmlns="http://www.w3.org/2000/svg">
  <path d="M12 12V6M12 12L6.75 15.031L12 12ZM12 12L17.25 15.031L12 12ZM7 8C7 8.53043 6.78929 9.03914 6.41421 9.41421C6.03914 9.78929 5.53043 10 5 10C4.46957 10 3.96086 9.78929 3.58579 9.41421C3.21071 9.03914 3 8.53043 3 8C3 7.46957 3.21071 6.96086 3.58579 6.58579C3.96086 6.21071 4.46957 6 5 6C5.53043 6 6.03914 6.21071 6.41421 6.58579C6.78929 6.96086 7 7.46957 7 8V8ZM7 16C7 16.5304 6.78929 17.0391 6.41421 17.4142C6.03914 17.7893 5.53043 18 5 18C4.46957 18 3.96086 17.7893 3.58579 17.4142C3.21071 17.0391 3 16.5304 3 16C3 15.4696 3.21071 14.9609 3.58579 14.5858C3.96086 14.2107 4.46957 14 5 14C5.53043 14 6.03914 14.2107 6.41421 14.5858C6.78929 14.9609 7 15.4696 7 16ZM14 20C14 20.5304 13.7893 21.0391 13.4142 21.4142C13.0391 21.7893 12.5304 22 12 22C11.4696 22 10.9609 21.7893 10.5858 21.4142C10.2107 21.0391 10 20.5304 10 20C10 19.4696 10.2107 18.9609 10.5858 18.5858C10.9609 18.2107 11.4696 18 12 18C12.5304 18 13.0391 18.2107 13.4142 18.5858C13.7893 18.9609 14 19.4696 14 20V20ZM21 16C21 16.5304 20.7893 17.0391 20.4142 17.4142C20.0391 17.7893 19.5304 18 19 18C18.4696 18 17.9609 17.7893 17.5858 17.4142C17.2107 17.0391 17 16.5304 17 16C17 15.4696 17.2107 14.9609 17.5858 14.5858C17.9609 14.2107 18.4696 14 19 14C19.5304 14 20.0391 14.2107 20.4142 14.5858C20.7893 14.9609 21 15.4696 21 16ZM21 8C21 8.53043 20.7893 9.03914 20.4142 9.41421C20.0391 9.78929 19.5304 10 19 10C18.4696 10 17.9609 9.78929 17.5858 9.41421C17.2107 9.03914 17 8.53043 17 8C17 7.46957 17.2107 6.96086 17.5858 6.58579C17.9609 6.21071 18.4696 6 19 6C19.5304 6 20.0391 6.21071 20.4142 6.58579C20.7893 6.96086 21 7.46957 21 8V8ZM14 4C14 4.53043 13.7893 5.03914 13.4142 5.41421C13.0391 5.78929 12.5304 6 12 6C11.4696 6 10.9609 5.78929 10.5858 5.41421C10.2107 5.03914 10 4.53043 10 4C10 3.46957 10.2107 2.96086 10.5858 2.58579C10.9609 2.21071 11.4696 2 12 2C12.5304 2 13.0391 2.21071 13.4142 2.58579C13.7893 2.96086 14 3.46957 14 4V4Z" stroke="#2E6143" stroke-width="1.5" stroke-linecap="round" stroke-linejoin="round"/>
</svg>
