<svg width="28" height="28" viewBox="0 0 28 28" fill="none" xmlns="http://www.w3.org/2000/svg">
  <mask id="mask0_389_5" style="mask-type:alpha" maskUnits="userSpaceOnUse" x="3" y="1" width="22" height="26">
  <path d="M14 14V7M14 14L7.875 17.5362L14 14ZM14 14L20.125 17.5362L14 14Z" stroke="white" stroke-linecap="round" stroke-linejoin="round"/>
  <path d="M8.16667 9.33325C8.16667 9.95209 7.92083 10.5456 7.48325 10.9832C7.04566 11.4208 6.45217 11.6666 5.83333 11.6666C5.21449 11.6666 4.621 11.4208 4.18342 10.9832C3.74583 10.5456 3.5 9.95209 3.5 9.33325C3.5 8.71441 3.74583 8.12092 4.18342 7.68334C4.621 7.24575 5.21449 6.99992 5.83333 6.99992C6.45217 6.99992 7.04566 7.24575 7.48325 7.68334C7.92083 8.12092 8.16667 8.71441 8.16667 9.33325V9.33325ZM8.16667 18.6666C8.16667 19.2854 7.92083 19.8789 7.48325 20.3165C7.04566 20.7541 6.45217 20.9999 5.83333 20.9999C5.21449 20.9999 4.621 20.7541 4.18342 20.3165C3.74583 19.8789 3.5 19.2854 3.5 18.6666C3.5 18.0477 3.74583 17.4543 4.18342 17.0167C4.621 16.5791 5.21449 16.3333 5.83333 16.3333C6.45217 16.3333 7.04566 16.5791 7.48325 17.0167C7.92083 17.4543 8.16667 18.0477 8.16667 18.6666ZM16.3333 23.3333C16.3333 23.9521 16.0875 24.5456 15.6499 24.9832C15.2123 25.4208 14.6188 25.6666 14 25.6666C13.3812 25.6666 12.7877 25.4208 12.3501 24.9832C11.9125 24.5456 11.6667 23.9521 11.6667 23.3333C11.6667 22.7144 11.9125 22.1209 12.3501 21.6833C12.7877 21.2458 13.3812 20.9999 14 20.9999C14.6188 20.9999 15.2123 21.2458 15.6499 21.6833C16.0875 22.1209 16.3333 22.7144 16.3333 23.3333V23.3333ZM24.5 18.6666C24.5 19.2854 24.2542 19.8789 23.8166 20.3165C23.379 20.7541 22.7855 20.9999 22.1667 20.9999C21.5478 20.9999 20.9543 20.7541 20.5168 20.3165C20.0792 19.8789 19.8333 19.2854 19.8333 18.6666C19.8333 18.0477 20.0792 17.4543 20.5168 17.0167C20.9543 16.5791 21.5478 16.3333 22.1667 16.3333C22.7855 16.3333 23.379 16.5791 23.8166 17.0167C24.2542 17.4543 24.5 18.0477 24.5 18.6666ZM24.5 9.33325C24.5 9.95209 24.2542 10.5456 23.8166 10.9832C23.379 11.4208 22.7855 11.6666 22.1667 11.6666C21.5478 11.6666 20.9543 11.4208 20.5168 10.9832C20.0792 10.5456 19.8333 9.95209 19.8333 9.33325C19.8333 8.71441 20.0792 8.12092 20.5168 7.68334C20.9543 7.24575 21.5478 6.99992 22.1667 6.99992C22.7855 6.99992 23.379 7.24575 23.8166 7.68334C24.2542 8.12092 24.5 8.71441 24.5 9.33325V9.33325ZM16.3333 4.66659C16.3333 5.28542 16.0875 5.87892 15.6499 6.3165C15.2123 6.75409 14.6188 6.99992 14 6.99992C13.3812 6.99992 12.7877 6.75409 12.3501 6.3165C11.9125 5.87892 11.6667 5.28542 11.6667 4.66659C11.6667 4.04775 11.9125 3.45425 12.3501 3.01667C12.7877 2.57908 13.3812 2.33325 14 2.33325C14.6188 2.33325 15.2123 2.57908 15.6499 3.01667C16.0875 3.45425 16.3333 4.04775 16.3333 4.66659V4.66659Z" fill="white" stroke="white" stroke-linecap="round" stroke-linejoin="round"/>
  </mask>
  <g mask="url(#mask0_389_5)">
  <path d="M0 0H28V28H0V0Z" fill="#2E6143"/>
  </g>
</svg>
