<svg width="35" height="35" viewBox="0 0 35 35" fill="none" xmlns="http://www.w3.org/2000/svg">
  <path d="M29.9407 26.6663C29.2635 25.0384 28.2806 23.5598 27.0469 22.3127C25.8169 21.062 24.3599 20.0648 22.7563 19.3763C22.742 19.369 22.7276 19.3653 22.7133 19.358C24.9501 17.7186 26.4042 15.0481 26.4042 12.0352C26.4042 7.04397 22.4189 3 17.5 3C12.5811 3 8.5958 7.04397 8.5958 12.0352C8.5958 15.0481 10.0499 17.7186 12.2867 19.3617C12.2724 19.369 12.258 19.3726 12.2437 19.3799C10.6352 20.0685 9.19181 21.0558 7.95312 22.3163C6.72057 23.5644 5.73786 25.0428 5.05926 26.67C4.3926 28.263 4.03306 29.9709 4.00009 31.7013C3.99913 31.7401 4.00585 31.7788 4.01986 31.815C4.03386 31.8512 4.05487 31.8842 4.08164 31.9121C4.1084 31.9399 4.14039 31.962 4.17572 31.9771C4.21104 31.9922 4.24899 32 4.28732 32H6.44156C6.59954 32 6.7252 31.8725 6.7288 31.7158C6.8006 28.9033 7.91363 26.2692 9.88117 24.2727C11.9169 22.207 14.6205 21.0704 17.5 21.0704C20.3795 21.0704 23.0831 22.207 25.1188 24.2727C27.0864 26.2692 28.1994 28.9033 28.2712 31.7158C28.2748 31.8761 28.4005 32 28.5584 32H30.7127C30.751 32 30.789 31.9922 30.8243 31.9771C30.8596 31.962 30.8916 31.9399 30.9184 31.9121C30.9451 31.8842 30.9661 31.8512 30.9801 31.815C30.9941 31.7788 31.0009 31.7401 30.9999 31.7013C30.964 29.9598 30.6086 28.2657 29.9407 26.6663V26.6663ZM17.5 18.3015C15.852 18.3015 14.301 17.6494 13.1341 16.4653C11.9672 15.2813 11.3245 13.7074 11.3245 12.0352C11.3245 10.3629 11.9672 8.78907 13.1341 7.60503C14.301 6.42098 15.852 5.76884 17.5 5.76884C19.148 5.76884 20.699 6.42098 21.8659 7.60503C23.0328 8.78907 23.6755 10.3629 23.6755 12.0352C23.6755 13.7074 23.0328 15.2813 21.8659 16.4653C20.699 17.6494 19.148 18.3015 17.5 18.3015Z" fill="#2E6143"/>
</svg>
